M48
METRIC,LZ,000.000
;FILE_FORMAT=3:3
;TYPE=PLATED
;Layer: PTH_Through
;EasyEDA v6.5.23, 2023-08-24 15:40:58
;a67cddfb3fce44daa9051d46cbbcc19f,10
;Gerber Generator version 0.2
;Holesize 1 = 0.889 mm
T01C0.889
;Holesize 2 = 1.101 mm
T02C1.101
;Holesize 3 = 1.200 mm
T03C1.200
;Holesize 4 = 2.974 mm
T04C2.974
%
G05
G90
T01
X093730Y049190
X096270Y049190
X093730Y051730
X096270Y051730
X093730Y054270
X096270Y054270
X093730Y056810
X096270Y056810
T02
X091000Y081230
X091000Y083770
T03
X037498Y079400G85X037503Y079400
X039997Y079400G85X040002Y079400
X042497Y079400G85X042502Y079400
X057497Y079400G85X057503Y079400
X059997Y079400G85X060002Y079400
X062497Y079400G85X062502Y079400
X077497Y079400G85X077503Y079400
X079997Y079400G85X080002Y079400
X082497Y079400G85X082502Y079400
X017498Y054400G85X017503Y054400
X019997Y054400G85X020003Y054400
X022497Y054400G85X022502Y054400
X037498Y054400G85X037503Y054400
X039997Y054400G85X040002Y054400
X042497Y054400G85X042502Y054400
X057497Y054400G85X057503Y054400
X059997Y054400G85X060002Y054400
X062497Y054400G85X062502Y054400
X077497Y054400G85X077503Y054400
X079997Y054400G85X080002Y054400
X082497Y054400G85X082502Y054400
X017498Y029400G85X017503Y029400
X019997Y029400G85X020003Y029400
X022497Y029400G85X022502Y029400
X037498Y029400G85X037503Y029400
X039997Y029400G85X040002Y029400
X042497Y029400G85X042502Y029400
X057497Y029400G85X057503Y029400
X059997Y029400G85X060002Y029400
X062497Y029400G85X062502Y029400
X077497Y029400G85X077503Y029400
X079997Y029400G85X080002Y029400
X082497Y029400G85X082502Y029400
X017498Y079400G85X017503Y079400
X019997Y079400G85X020003Y079400
X022497Y079400G85X022502Y079400
T04
X035600Y086400G85X035600Y086400
X044400Y086400G85X044400Y086400
X055600Y086400G85X055600Y086400
X064400Y086400G85X064400Y086400
X075600Y086400G85X075600Y086400
X084400Y086400G85X084400Y086400
X015600Y061400G85X015600Y061400
X024400Y061400G85X024400Y061400
X035600Y061400G85X035600Y061400
X044400Y061400G85X044400Y061400
X055600Y061400G85X055600Y061400
X064400Y061400G85X064400Y061400
X075600Y061400G85X075600Y061400
X084400Y061400G85X084400Y061400
X015600Y036400G85X015600Y036400
X024400Y036400G85X024400Y036400
X035600Y036400G85X035600Y036400
X044400Y036400G85X044400Y036400
X055600Y036400G85X055600Y036400
X064400Y036400G85X064400Y036400
X075600Y036400G85X075600Y036400
X084400Y036400G85X084400Y036400
X015600Y086400G85X015600Y086400
X024400Y086400G85X024400Y086400
M30
