M48
METRIC,LZ,000.000
;FILE_FORMAT=3:3
;TYPE=PLATED
;Layer: PTH_Through_Via
;EasyEDA v6.5.23, 2023-08-24 15:40:58
;a67cddfb3fce44daa9051d46cbbcc19f,10
;Gerber Generator version 0.2
;Holesize 1 = 0.305 mm
T01C0.305
;Holesize 2 = 0.306 mm
T02C0.306
%
G05
G90
T01
X091000Y057000
X090000Y055000
X095999Y033000
X098000Y035000
X097000Y034000
X091675Y033000
X010000Y055000
X012000Y057000
X011000Y056000
X010000Y035001
X011000Y034000
X012002Y033000
X010000Y080000
X012000Y082000
X011000Y081000
X097000Y069000
X092000Y069000
X092000Y068000
X091000Y069000
X095000Y040000
X096500Y040000
X093500Y046500
X095000Y046500
X096500Y046500
X095000Y043500
X096500Y043500
X088000Y069000
X088000Y066000
T02
X001072Y088768
X001072Y083688
X001072Y078608
X001072Y073528
X001072Y068448
X001072Y063368
X001072Y058288
X001072Y053208
X001072Y048128
X001072Y043048
X001072Y037968
X001072Y032888
X001072Y027808
X001072Y022728
X001072Y017648
X001072Y012568
X006152Y088768
X006152Y083688
X006152Y078608
X006152Y073528
X006152Y068448
X006152Y063368
X006152Y058288
X006152Y053208
X006152Y048128
X006152Y043048
X006152Y037968
X006152Y032888
X006152Y027808
X006152Y022728
X006152Y017648
X006152Y012568
X011232Y098928
X011232Y093848
X011232Y088768
X011232Y083688
X011232Y078608
X011232Y073528
X011232Y068448
X011232Y063368
X011232Y058288
X011232Y053208
X011232Y048128
X011232Y043048
X011232Y037968
X011232Y027808
X011232Y022728
X011232Y017648
X011232Y012568
X011232Y007488
X011232Y002408
X016312Y098928
X016312Y093848
X016312Y073528
X016312Y068448
X016312Y048128
X016312Y043048
X016312Y027808
X016312Y022728
X016312Y017648
X016312Y012568
X016312Y007488
X016312Y002408
X021392Y098928
X021392Y093848
X021392Y073528
X021392Y068448
X021392Y048128
X021392Y043048
X021392Y022728
X021392Y017648
X021392Y012568
X021392Y007488
X021392Y002408
X026472Y098928
X026472Y093848
X026472Y088768
X026472Y083688
X026472Y078608
X026472Y068448
X026472Y053208
X026472Y048128
X026472Y043048
X026472Y027808
X026472Y017648
X026472Y012568
X026472Y007488
X026472Y002408
X031552Y098928
X031552Y093848
X031552Y088768
X031552Y083688
X031552Y078608
X031552Y068448
X031552Y063368
X031552Y053208
X031552Y048128
X031552Y043048
X031552Y037968
X031552Y027808
X031552Y022728
X031552Y017648
X031552Y012568
X031552Y007488
X031552Y002408
X036632Y098928
X036632Y093848
X036632Y068448
X036632Y048128
X036632Y043048
X036632Y027808
X036632Y022728
X036632Y017648
X036632Y012568
X036632Y007488
X036632Y002408
X041712Y098928
X041712Y093848
X041712Y068448
X041712Y048128
X041712Y043048
X041712Y022728
X041712Y017648
X041712Y012568
X041712Y007488
X041712Y002408
X046792Y098928
X046792Y093848
X046792Y088768
X046792Y083688
X046792Y078608
X046792Y068448
X046792Y063368
X046792Y053208
X046792Y048128
X046792Y043048
X046792Y027808
X046792Y017648
X046792Y002408
X051872Y098928
X051872Y093848
X051872Y088768
X051872Y083688
X051872Y078608
X051872Y068448
X051872Y063368
X051872Y053208
X051872Y048128
X051872Y043048
X051872Y037968
X051872Y027808
X051872Y017648
X051872Y002408
X056952Y098928
X056952Y093848
X056952Y068448
X056952Y048128
X056952Y043048
X056952Y017648
X056952Y002408
X062032Y098928
X062032Y093848
X062032Y083688
X062032Y068448
X062032Y048128
X062032Y043048
X062032Y017648
X062032Y002408
X067112Y098928
X067112Y093848
X067112Y088768
X067112Y083688
X067112Y078608
X067112Y068448
X067112Y063368
X067112Y053208
X067112Y048128
X067112Y043048
X067112Y037968
X067112Y027808
X067112Y017648
X067112Y012568
X067112Y007488
X067112Y002408
X072192Y098928
X072192Y093848
X072192Y088768
X072192Y083688
X072192Y078608
X072192Y068448
X072192Y063368
X072192Y053208
X072192Y048128
X072192Y043048
X072192Y037968
X072192Y027808
X072192Y017648
X072192Y012568
X072192Y007488
X072192Y002408
X077272Y098928
X077272Y093848
X077272Y068448
X077272Y048128
X077272Y043048
X077272Y017648
X077272Y012568
X077272Y007488
X077272Y002408
X082352Y098928
X082352Y093848
X082352Y048128
X082352Y043048
X082352Y017648
X082352Y012568
X082352Y007488
X082352Y002408
X087432Y098928
X087432Y093848
X087432Y073528
X087432Y063368
X087432Y058288
X087432Y053208
X087432Y048128
X087432Y043048
X087432Y037968
X087432Y027808
X087432Y017648
X087432Y012568
X087432Y007488
X087432Y002408
X092512Y088768
X092512Y078608
X092512Y073528
X092512Y063368
X092512Y058288
X092512Y017648
X092512Y012568
X097592Y088768
X097592Y027808
X097592Y022728
X097592Y017648
X097592Y012568
M30
