G04 Layer: BottomSolderMaskLayer*
G04 EasyEDA v6.5.23, 2023-08-24 15:40:58*
G04 a67cddfb3fce44daa9051d46cbbcc19f,10*
G04 Gerber Generator version 0.2*
G04 Scale: 100 percent, Rotated: No, Reflected: No *
G04 Dimensions in millimeters *
G04 leading zeros omitted , absolute positions ,4 integer and 5 decimal *
%FSLAX45Y45*%
%MOMM*%

%AMMACRO1*1,1,$1,$2,$3*1,1,$1,$4,$5*1,1,$1,0-$2,0-$3*1,1,$1,0-$4,0-$5*20,1,$1,$2,$3,$4,$5,0*20,1,$1,$4,$5,0-$2,0-$3,0*20,1,$1,0-$2,0-$3,0-$4,0-$5,0*20,1,$1,0-$4,0-$5,$2,$3,0*4,1,4,$2,$3,$4,$5,0-$2,0-$3,0-$4,0-$5,$2,$3,0*%
%ADD10MACRO1,0.1016X0.7874X-0.85X0.7874X0.85*%
%ADD11C,1.8016*%
%ADD12MACRO1,0.1016X0.7874X-0.7874X0.7874X0.7874*%
%ADD13C,1.6764*%
%ADD14MACRO1,0.1016X0.432X0.4032X-0.432X0.4032*%
%ADD15MACRO1,0.1016X0.432X-0.4032X-0.432X-0.4032*%
%ADD16O,1.8330926000000003X0.4446016*%
%ADD17O,0.4446016X1.8330926000000003*%
%ADD18MACRO1,0.1016X0.675X0.705X-0.675X0.705*%
%ADD19MACRO1,0.1016X0.675X-0.705X-0.675X-0.705*%
%ADD20MACRO1,0.1016X-0.675X-0.705X0.675X-0.705*%
%ADD21MACRO1,0.1016X-0.675X0.705X0.675X0.705*%
%ADD22MACRO1,0.1016X-0.705X0.675X-0.705X-0.675*%
%ADD23MACRO1,0.1016X0.705X0.675X0.705X-0.675*%
%ADD24C,1.9017*%
%ADD25C,4.5616*%

%LPD*%
D10*
G01*
X9099981Y8122984D03*
D11*
G01*
X9099981Y8376970D03*
D12*
G01*
X9372980Y4918989D03*
D13*
G01*
X9626981Y4918989D03*
G01*
X9372981Y5172989D03*
G01*
X9626981Y5172989D03*
G01*
X9372981Y5426989D03*
G01*
X9626981Y5426989D03*
G01*
X9372981Y5680989D03*
G01*
X9626981Y5680989D03*
D14*
G01*
X9699980Y7124660D03*
D15*
G01*
X9699980Y7275310D03*
D16*
G01*
X8513419Y6972477D03*
G01*
X8513419Y7037476D03*
G01*
X8513419Y7102475D03*
G01*
X8513419Y7167498D03*
G01*
X8513419Y7232497D03*
G01*
X8513419Y7297496D03*
G01*
X8513419Y7362494D03*
G01*
X8513419Y7427493D03*
G01*
X9086570Y6972477D03*
G01*
X9086570Y7037476D03*
G01*
X9086570Y7102475D03*
G01*
X9086570Y7167498D03*
G01*
X9086570Y7232497D03*
G01*
X9086570Y7297496D03*
G01*
X9086570Y7362494D03*
G01*
X9086570Y7427493D03*
D17*
G01*
X9427489Y3013405D03*
G01*
X9362490Y3013405D03*
G01*
X9297492Y3013405D03*
G01*
X9232468Y3013405D03*
G01*
X9167469Y3013405D03*
G01*
X9102470Y3013405D03*
G01*
X9037472Y3013405D03*
G01*
X8972473Y3013405D03*
G01*
X9427489Y3586556D03*
G01*
X9362490Y3586556D03*
G01*
X9297492Y3586556D03*
G01*
X9232468Y3586556D03*
G01*
X9167469Y3586556D03*
G01*
X9102470Y3586556D03*
G01*
X9037472Y3586556D03*
G01*
X8972473Y3586556D03*
D18*
G01*
X7999984Y3599990D03*
D19*
G01*
X7999984Y3799994D03*
D18*
G01*
X5999987Y3599990D03*
D19*
G01*
X5999987Y3799994D03*
D18*
G01*
X3999992Y3599990D03*
D19*
G01*
X3999992Y3799994D03*
D18*
G01*
X1999996Y3599990D03*
D19*
G01*
X1999996Y3799994D03*
D20*
G01*
X7999984Y5099992D03*
D21*
G01*
X7999984Y4899987D03*
D20*
G01*
X5999987Y5099992D03*
D21*
G01*
X5999987Y4899987D03*
D20*
G01*
X3999992Y5099992D03*
D21*
G01*
X3999992Y4899987D03*
D20*
G01*
X1999996Y5099992D03*
D21*
G01*
X1999996Y4899987D03*
D18*
G01*
X7999984Y8499980D03*
D19*
G01*
X7999984Y8699985D03*
D18*
G01*
X5999987Y8499980D03*
D19*
G01*
X5999987Y8699985D03*
D18*
G01*
X3999992Y8499980D03*
D19*
G01*
X3999992Y8699985D03*
D18*
G01*
X1999996Y8499980D03*
D19*
G01*
X1999996Y8699985D03*
D18*
G01*
X9599980Y3599990D03*
D19*
G01*
X9599980Y3799994D03*
D22*
G01*
X8999984Y6749986D03*
D23*
G01*
X8799979Y6749986D03*
D24*
G01*
X3750005Y7939989D03*
G01*
X3999991Y7939989D03*
G01*
X4249978Y7939989D03*
D25*
G01*
X3559987Y8639987D03*
G01*
X4439996Y8639987D03*
D24*
G01*
X5750001Y7939989D03*
G01*
X5999988Y7939989D03*
G01*
X6249974Y7939989D03*
D25*
G01*
X5559983Y8639987D03*
G01*
X6439992Y8639987D03*
D24*
G01*
X7749997Y7939989D03*
G01*
X7999984Y7939989D03*
G01*
X8249970Y7939989D03*
D25*
G01*
X7559979Y8639987D03*
G01*
X8439988Y8639987D03*
D24*
G01*
X1750009Y5439994D03*
G01*
X1999995Y5439994D03*
G01*
X2249982Y5439994D03*
D25*
G01*
X1559991Y6139992D03*
G01*
X2440000Y6139992D03*
D24*
G01*
X3750005Y5439994D03*
G01*
X3999991Y5439994D03*
G01*
X4249978Y5439994D03*
D25*
G01*
X3559987Y6139992D03*
G01*
X4439996Y6139992D03*
D24*
G01*
X5750001Y5439994D03*
G01*
X5999988Y5439994D03*
G01*
X6249974Y5439994D03*
D25*
G01*
X5559983Y6139992D03*
G01*
X6439992Y6139992D03*
D24*
G01*
X7749997Y5439994D03*
G01*
X7999984Y5439994D03*
G01*
X8249970Y5439994D03*
D25*
G01*
X7559979Y6139992D03*
G01*
X8439988Y6139992D03*
D24*
G01*
X1750009Y2939999D03*
G01*
X1999995Y2939999D03*
G01*
X2249982Y2939999D03*
D25*
G01*
X1559991Y3639997D03*
G01*
X2440000Y3639997D03*
D24*
G01*
X3750005Y2939999D03*
G01*
X3999991Y2939999D03*
G01*
X4249978Y2939999D03*
D25*
G01*
X3559987Y3639997D03*
G01*
X4439996Y3639997D03*
D24*
G01*
X5750001Y2939999D03*
G01*
X5999988Y2939999D03*
G01*
X6249974Y2939999D03*
D25*
G01*
X5559983Y3639997D03*
G01*
X6439992Y3639997D03*
D24*
G01*
X7749997Y2939999D03*
G01*
X7999984Y2939999D03*
G01*
X8249970Y2939999D03*
D25*
G01*
X7559979Y3639997D03*
G01*
X8439988Y3639997D03*
D24*
G01*
X1750009Y7939989D03*
G01*
X1999995Y7939989D03*
G01*
X2249982Y7939989D03*
D25*
G01*
X1559991Y8639987D03*
G01*
X2440000Y8639987D03*
M02*
