G04 Layer: TopSolderMaskLayer*
G04 EasyEDA v6.5.23, 2023-08-24 15:40:58*
G04 a67cddfb3fce44daa9051d46cbbcc19f,10*
G04 Gerber Generator version 0.2*
G04 Scale: 100 percent, Rotated: No, Reflected: No *
G04 Dimensions in millimeters *
G04 leading zeros omitted , absolute positions ,4 integer and 5 decimal *
%FSLAX45Y45*%
%MOMM*%

%AMMACRO1*1,1,$1,$2,$3*1,1,$1,$4,$5*1,1,$1,0-$2,0-$3*1,1,$1,0-$4,0-$5*20,1,$1,$2,$3,$4,$5,0*20,1,$1,$4,$5,0-$2,0-$3,0*20,1,$1,0-$2,0-$3,0-$4,0-$5,0*20,1,$1,0-$4,0-$5,$2,$3,0*4,1,4,$2,$3,$4,$5,0-$2,0-$3,0-$4,0-$5,$2,$3,0*%
%ADD10MACRO1,0.1016X0.7874X-0.85X0.7874X0.85*%
%ADD11C,1.8016*%
%ADD12MACRO1,0.1016X0.7874X-0.7874X0.7874X0.7874*%
%ADD13C,1.6764*%
%ADD14C,1.9017*%
%ADD15C,4.5616*%

%LPD*%
D10*
G01*
X9099981Y8122984D03*
D11*
G01*
X9099981Y8376970D03*
D12*
G01*
X9372980Y4918989D03*
D13*
G01*
X9626981Y4918989D03*
G01*
X9372981Y5172989D03*
G01*
X9626981Y5172989D03*
G01*
X9372981Y5426989D03*
G01*
X9626981Y5426989D03*
G01*
X9372981Y5680989D03*
G01*
X9626981Y5680989D03*
D14*
G01*
X3750005Y7939989D03*
G01*
X3999991Y7939989D03*
G01*
X4249978Y7939989D03*
D15*
G01*
X3559987Y8639987D03*
G01*
X4439996Y8639987D03*
D14*
G01*
X5750001Y7939989D03*
G01*
X5999988Y7939989D03*
G01*
X6249974Y7939989D03*
D15*
G01*
X5559983Y8639987D03*
G01*
X6439992Y8639987D03*
D14*
G01*
X7749997Y7939989D03*
G01*
X7999984Y7939989D03*
G01*
X8249970Y7939989D03*
D15*
G01*
X7559979Y8639987D03*
G01*
X8439988Y8639987D03*
D14*
G01*
X1750009Y5439994D03*
G01*
X1999995Y5439994D03*
G01*
X2249982Y5439994D03*
D15*
G01*
X1559991Y6139992D03*
G01*
X2440000Y6139992D03*
D14*
G01*
X3750005Y5439994D03*
G01*
X3999991Y5439994D03*
G01*
X4249978Y5439994D03*
D15*
G01*
X3559987Y6139992D03*
G01*
X4439996Y6139992D03*
D14*
G01*
X5750001Y5439994D03*
G01*
X5999988Y5439994D03*
G01*
X6249974Y5439994D03*
D15*
G01*
X5559983Y6139992D03*
G01*
X6439992Y6139992D03*
D14*
G01*
X7749997Y5439994D03*
G01*
X7999984Y5439994D03*
G01*
X8249970Y5439994D03*
D15*
G01*
X7559979Y6139992D03*
G01*
X8439988Y6139992D03*
D14*
G01*
X1750009Y2939999D03*
G01*
X1999995Y2939999D03*
G01*
X2249982Y2939999D03*
D15*
G01*
X1559991Y3639997D03*
G01*
X2440000Y3639997D03*
D14*
G01*
X3750005Y2939999D03*
G01*
X3999991Y2939999D03*
G01*
X4249978Y2939999D03*
D15*
G01*
X3559987Y3639997D03*
G01*
X4439996Y3639997D03*
D14*
G01*
X5750001Y2939999D03*
G01*
X5999988Y2939999D03*
G01*
X6249974Y2939999D03*
D15*
G01*
X5559983Y3639997D03*
G01*
X6439992Y3639997D03*
D14*
G01*
X7749997Y2939999D03*
G01*
X7999984Y2939999D03*
G01*
X8249970Y2939999D03*
D15*
G01*
X7559979Y3639997D03*
G01*
X8439988Y3639997D03*
D14*
G01*
X1750009Y7939989D03*
G01*
X1999995Y7939989D03*
G01*
X2249982Y7939989D03*
D15*
G01*
X1559991Y8639987D03*
G01*
X2440000Y8639987D03*
M02*
