G04 Layer: BottomSilkscreenLayer*
G04 EasyEDA v6.5.23, 2023-08-24 15:40:58*
G04 a67cddfb3fce44daa9051d46cbbcc19f,10*
G04 Gerber Generator version 0.2*
G04 Scale: 100 percent, Rotated: No, Reflected: No *
G04 Dimensions in millimeters *
G04 leading zeros omitted , absolute positions ,4 integer and 5 decimal *
%FSLAX45Y45*%
%MOMM*%

%ADD10C,0.2032*%
%ADD11C,0.1524*%
%ADD12C,0.2030*%
%ADD13C,0.3000*%

%LPD*%
D10*
X9874981Y8480709D02*
G01*
X9874981Y8404346D01*
X9874981Y8404346D02*
G01*
X9831344Y8404346D01*
X9807346Y8480709D02*
G01*
X9803709Y8477074D01*
X9800071Y8480709D01*
X9803709Y8484346D01*
X9807346Y8480709D01*
X9803709Y8455256D02*
G01*
X9803709Y8404346D01*
X9776071Y8455256D02*
G01*
X9776071Y8404346D01*
X9776071Y8440709D02*
G01*
X9765164Y8451618D01*
X9757890Y8455256D01*
X9746980Y8455256D01*
X9739708Y8451618D01*
X9736071Y8440709D01*
X9736071Y8404346D01*
X9712073Y8480709D02*
G01*
X9712073Y8404346D01*
X9675708Y8455256D02*
G01*
X9712073Y8418893D01*
X9697526Y8433437D02*
G01*
X9672073Y8404346D01*
X9581164Y8480709D02*
G01*
X9581164Y8418893D01*
X9577527Y8407984D01*
X9570255Y8404346D01*
X9562983Y8404346D01*
X9592073Y8455256D02*
G01*
X9566617Y8455256D01*
X9538982Y8480709D02*
G01*
X9538982Y8404346D01*
X9538982Y8440709D02*
G01*
X9528073Y8451618D01*
X9520801Y8455256D01*
X9509892Y8455256D01*
X9502617Y8451618D01*
X9498982Y8440709D01*
X9498982Y8404346D01*
X9474982Y8433437D02*
G01*
X9431345Y8433437D01*
X9431345Y8440709D01*
X9434982Y8447984D01*
X9438619Y8451618D01*
X9445891Y8455256D01*
X9456800Y8455256D01*
X9464073Y8451618D01*
X9471345Y8444346D01*
X9474982Y8433437D01*
X9474982Y8426165D01*
X9471345Y8415256D01*
X9464073Y8407984D01*
X9456800Y8404346D01*
X9445891Y8404346D01*
X9438619Y8407984D01*
X9431345Y8415256D01*
X9367347Y8444346D02*
G01*
X9370982Y8451618D01*
X9381891Y8455256D01*
X9392800Y8455256D01*
X9403709Y8451618D01*
X9407347Y8444346D01*
X9403709Y8437074D01*
X9396437Y8433437D01*
X9378254Y8429800D01*
X9370982Y8426165D01*
X9367347Y8418893D01*
X9367347Y8415256D01*
X9370982Y8407984D01*
X9381891Y8404346D01*
X9392800Y8404346D01*
X9403709Y8407984D01*
X9407347Y8415256D01*
X9343346Y8433437D02*
G01*
X9299709Y8433437D01*
X9299709Y8440709D01*
X9303346Y8447984D01*
X9306981Y8451618D01*
X9314256Y8455256D01*
X9325165Y8455256D01*
X9332437Y8451618D01*
X9339709Y8444346D01*
X9343346Y8433437D01*
X9343346Y8426165D01*
X9339709Y8415256D01*
X9332437Y8407984D01*
X9325165Y8404346D01*
X9314256Y8404346D01*
X9306981Y8407984D01*
X9299709Y8415256D01*
X9871344Y8280928D02*
G01*
X9871344Y8284565D01*
X9867709Y8291837D01*
X9864072Y8295474D01*
X9856800Y8299109D01*
X9842253Y8299109D01*
X9834981Y8295474D01*
X9831344Y8291837D01*
X9827709Y8284565D01*
X9827709Y8277293D01*
X9831344Y8270019D01*
X9838618Y8259109D01*
X9874981Y8222747D01*
X9824072Y8222747D01*
X9744072Y8273656D02*
G01*
X9744072Y8197293D01*
X9744072Y8262746D02*
G01*
X9736800Y8270019D01*
X9729528Y8273656D01*
X9718619Y8273656D01*
X9711344Y8270019D01*
X9704072Y8262746D01*
X9700435Y8251837D01*
X9700435Y8244565D01*
X9704072Y8233656D01*
X9711344Y8226384D01*
X9718619Y8222747D01*
X9729528Y8222747D01*
X9736800Y8226384D01*
X9744072Y8233656D01*
X9676437Y8299109D02*
G01*
X9672800Y8295474D01*
X9669162Y8299109D01*
X9672800Y8302746D01*
X9676437Y8299109D01*
X9672800Y8273656D02*
G01*
X9672800Y8222747D01*
X9645164Y8273656D02*
G01*
X9645164Y8222747D01*
X9645164Y8259109D02*
G01*
X9634255Y8270019D01*
X9626981Y8273656D01*
X9616071Y8273656D01*
X9608799Y8270019D01*
X9605164Y8259109D01*
X9605164Y8222747D01*
X9541164Y8262746D02*
G01*
X9544799Y8270019D01*
X9555708Y8273656D01*
X9566617Y8273656D01*
X9577527Y8270019D01*
X9581164Y8262746D01*
X9577527Y8255474D01*
X9570255Y8251837D01*
X9552073Y8248200D01*
X9544799Y8244565D01*
X9541164Y8237293D01*
X9541164Y8233656D01*
X9544799Y8226384D01*
X9555708Y8222747D01*
X9566617Y8222747D01*
X9577527Y8226384D01*
X9581164Y8233656D01*
X9442983Y8273656D02*
G01*
X9450255Y8270019D01*
X9457527Y8262746D01*
X9461164Y8251837D01*
X9461164Y8244565D01*
X9457527Y8233656D01*
X9450255Y8226384D01*
X9442983Y8222747D01*
X9432074Y8222747D01*
X9424799Y8226384D01*
X9417527Y8233656D01*
X9413892Y8244565D01*
X9413892Y8251837D01*
X9417527Y8262746D01*
X9424799Y8270019D01*
X9432074Y8273656D01*
X9442983Y8273656D01*
X9389892Y8273656D02*
G01*
X9389892Y8222747D01*
X9389892Y8259109D02*
G01*
X9378983Y8270019D01*
X9371711Y8273656D01*
X9360801Y8273656D01*
X9353527Y8270019D01*
X9349892Y8259109D01*
X9349892Y8222747D01*
X9871344Y8099328D02*
G01*
X9871344Y8102965D01*
X9867709Y8110237D01*
X9864072Y8113875D01*
X9856800Y8117509D01*
X9842253Y8117509D01*
X9834981Y8113875D01*
X9831344Y8110237D01*
X9827709Y8102965D01*
X9827709Y8095693D01*
X9831344Y8088419D01*
X9838618Y8077509D01*
X9874981Y8041147D01*
X9824072Y8041147D01*
X9800071Y8092056D02*
G01*
X9800071Y8041147D01*
X9800071Y8077509D02*
G01*
X9789162Y8088419D01*
X9781890Y8092056D01*
X9770981Y8092056D01*
X9763709Y8088419D01*
X9760071Y8077509D01*
X9760071Y8041147D01*
X9692436Y8117509D02*
G01*
X9692436Y8041147D01*
X9692436Y8081147D02*
G01*
X9699708Y8088419D01*
X9706980Y8092056D01*
X9717890Y8092056D01*
X9725164Y8088419D01*
X9732436Y8081147D01*
X9736071Y8070237D01*
X9736071Y8062965D01*
X9732436Y8052056D01*
X9725164Y8044784D01*
X9717890Y8041147D01*
X9706980Y8041147D01*
X9699708Y8044784D01*
X9692436Y8052056D01*
X9612436Y8117509D02*
G01*
X9612436Y8041147D01*
X9612436Y8081147D02*
G01*
X9605164Y8088419D01*
X9597890Y8092056D01*
X9586981Y8092056D01*
X9579709Y8088419D01*
X9572437Y8081147D01*
X9568799Y8070237D01*
X9568799Y8062965D01*
X9572437Y8052056D01*
X9579709Y8044784D01*
X9586981Y8041147D01*
X9597890Y8041147D01*
X9605164Y8044784D01*
X9612436Y8052056D01*
X9526617Y8092056D02*
G01*
X9533892Y8088419D01*
X9541164Y8081147D01*
X9544799Y8070237D01*
X9544799Y8062965D01*
X9541164Y8052056D01*
X9533892Y8044784D01*
X9526617Y8041147D01*
X9515708Y8041147D01*
X9508436Y8044784D01*
X9501164Y8052056D01*
X9497527Y8062965D01*
X9497527Y8070237D01*
X9501164Y8081147D01*
X9508436Y8088419D01*
X9515708Y8092056D01*
X9526617Y8092056D01*
X9429892Y8092056D02*
G01*
X9429892Y8041147D01*
X9429892Y8081147D02*
G01*
X9437164Y8088419D01*
X9444436Y8092056D01*
X9455345Y8092056D01*
X9462617Y8088419D01*
X9469892Y8081147D01*
X9473526Y8070237D01*
X9473526Y8062965D01*
X9469892Y8052056D01*
X9462617Y8044784D01*
X9455345Y8041147D01*
X9444436Y8041147D01*
X9437164Y8044784D01*
X9429892Y8052056D01*
X9405891Y8092056D02*
G01*
X9405891Y8041147D01*
X9405891Y8070237D02*
G01*
X9402254Y8081147D01*
X9394982Y8088419D01*
X9387710Y8092056D01*
X9376801Y8092056D01*
X9309163Y8117509D02*
G01*
X9309163Y8041147D01*
X9309163Y8081147D02*
G01*
X9316438Y8088419D01*
X9323710Y8092056D01*
X9334619Y8092056D01*
X9341891Y8088419D01*
X9349163Y8081147D01*
X9352800Y8070237D01*
X9352800Y8062965D01*
X9349163Y8052056D01*
X9341891Y8044784D01*
X9334619Y8041147D01*
X9323710Y8041147D01*
X9316438Y8044784D01*
X9309163Y8052056D01*
D11*
X9122910Y8665301D02*
G01*
X9122910Y8582243D01*
X9128244Y8566495D01*
X9133324Y8561415D01*
X9143738Y8556335D01*
X9154152Y8556335D01*
X9164566Y8561415D01*
X9169900Y8566495D01*
X9174980Y8582243D01*
X9174980Y8592657D01*
X9088620Y8644473D02*
G01*
X9078460Y8649807D01*
X9062712Y8665301D01*
X9062712Y8556335D01*
X9527910Y5975304D02*
G01*
X9527910Y5892246D01*
X9533244Y5876498D01*
X9538324Y5871418D01*
X9548738Y5866338D01*
X9559152Y5866338D01*
X9569566Y5871418D01*
X9574900Y5876498D01*
X9579980Y5892246D01*
X9579980Y5902660D01*
X9488540Y5949396D02*
G01*
X9488540Y5954476D01*
X9483460Y5964890D01*
X9478126Y5970224D01*
X9467712Y5975304D01*
X9446884Y5975304D01*
X9436470Y5970224D01*
X9431390Y5964890D01*
X9426310Y5954476D01*
X9426310Y5944062D01*
X9431390Y5933648D01*
X9441804Y5918154D01*
X9493620Y5866338D01*
X9420976Y5866338D01*
X9799980Y7515301D02*
G01*
X9799980Y7406335D01*
X9799980Y7515301D02*
G01*
X9753244Y7515301D01*
X9737750Y7510221D01*
X9732416Y7504887D01*
X9727336Y7494473D01*
X9727336Y7484059D01*
X9732416Y7473645D01*
X9737750Y7468565D01*
X9753244Y7463485D01*
X9799980Y7463485D01*
X9763658Y7463485D02*
G01*
X9727336Y7406335D01*
X9693046Y7494473D02*
G01*
X9682632Y7499807D01*
X9666884Y7515301D01*
X9666884Y7406335D01*
X9622180Y7515301D02*
G01*
X9565030Y7515301D01*
X9596272Y7473645D01*
X9580778Y7473645D01*
X9570364Y7468565D01*
X9565030Y7463485D01*
X9559950Y7447737D01*
X9559950Y7437323D01*
X9565030Y7421829D01*
X9575444Y7411415D01*
X9591192Y7406335D01*
X9606686Y7406335D01*
X9622180Y7411415D01*
X9627514Y7416495D01*
X9632594Y7426909D01*
X9347111Y7174585D02*
G01*
X9269133Y7174585D01*
X9253639Y7179665D01*
X9243225Y7190079D01*
X9238145Y7205827D01*
X9238145Y7216241D01*
X9243225Y7231735D01*
X9253639Y7242149D01*
X9269133Y7247229D01*
X9347111Y7247229D01*
X9326283Y7281519D02*
G01*
X9331617Y7291933D01*
X9347111Y7307681D01*
X9238145Y7307681D01*
X9225381Y3847122D02*
G01*
X9225381Y3769144D01*
X9220301Y3753650D01*
X9209887Y3743236D01*
X9194139Y3738156D01*
X9183725Y3738156D01*
X9168231Y3743236D01*
X9157817Y3753650D01*
X9152737Y3769144D01*
X9152737Y3847122D01*
X9113113Y3821214D02*
G01*
X9113113Y3826294D01*
X9108033Y3836708D01*
X9102699Y3842042D01*
X9092285Y3847122D01*
X9071711Y3847122D01*
X9061297Y3842042D01*
X9055963Y3836708D01*
X9050883Y3826294D01*
X9050883Y3815880D01*
X9055963Y3805466D01*
X9066377Y3789972D01*
X9118447Y3738156D01*
X9045549Y3738156D01*
X8022005Y4089400D02*
G01*
X8027339Y4099813D01*
X8037753Y4110228D01*
X8047913Y4115307D01*
X8068741Y4115307D01*
X8079155Y4110228D01*
X8089569Y4099813D01*
X8094903Y4089400D01*
X8099983Y4073652D01*
X8099983Y4047744D01*
X8094903Y4032250D01*
X8089569Y4021836D01*
X8079155Y4011421D01*
X8068741Y4006342D01*
X8047913Y4006342D01*
X8037753Y4011421D01*
X8027339Y4021836D01*
X8022005Y4032250D01*
X7987715Y4094479D02*
G01*
X7977301Y4099813D01*
X7961807Y4115307D01*
X7961807Y4006342D01*
X7922183Y4089400D02*
G01*
X7922183Y4094479D01*
X7917103Y4104894D01*
X7912023Y4110228D01*
X7901609Y4115307D01*
X7880781Y4115307D01*
X7870367Y4110228D01*
X7865033Y4104894D01*
X7859953Y4094479D01*
X7859953Y4084065D01*
X7865033Y4073652D01*
X7875447Y4058157D01*
X7927517Y4006342D01*
X7854873Y4006342D01*
X6022009Y4089400D02*
G01*
X6027343Y4099813D01*
X6037757Y4110228D01*
X6047917Y4115307D01*
X6068745Y4115307D01*
X6079159Y4110228D01*
X6089573Y4099813D01*
X6094907Y4089400D01*
X6099987Y4073652D01*
X6099987Y4047744D01*
X6094907Y4032250D01*
X6089573Y4021836D01*
X6079159Y4011421D01*
X6068745Y4006342D01*
X6047917Y4006342D01*
X6037757Y4011421D01*
X6027343Y4021836D01*
X6022009Y4032250D01*
X5987719Y4094479D02*
G01*
X5977305Y4099813D01*
X5961811Y4115307D01*
X5961811Y4006342D01*
X5927521Y4094479D02*
G01*
X5917107Y4099813D01*
X5901613Y4115307D01*
X5901613Y4006342D01*
X4022013Y4089400D02*
G01*
X4027347Y4099813D01*
X4037761Y4110228D01*
X4047921Y4115307D01*
X4068749Y4115307D01*
X4079163Y4110228D01*
X4089577Y4099813D01*
X4094911Y4089400D01*
X4099991Y4073652D01*
X4099991Y4047744D01*
X4094911Y4032250D01*
X4089577Y4021836D01*
X4079163Y4011421D01*
X4068749Y4006342D01*
X4047921Y4006342D01*
X4037761Y4011421D01*
X4027347Y4021836D01*
X4022013Y4032250D01*
X3987723Y4094479D02*
G01*
X3977309Y4099813D01*
X3961815Y4115307D01*
X3961815Y4006342D01*
X3896283Y4115307D02*
G01*
X3912031Y4110228D01*
X3922191Y4094479D01*
X3927525Y4068571D01*
X3927525Y4053078D01*
X3922191Y4026915D01*
X3912031Y4011421D01*
X3896283Y4006342D01*
X3885869Y4006342D01*
X3870375Y4011421D01*
X3859961Y4026915D01*
X3854881Y4053078D01*
X3854881Y4068571D01*
X3859961Y4094479D01*
X3870375Y4110228D01*
X3885869Y4115307D01*
X3896283Y4115307D01*
X2022017Y4089400D02*
G01*
X2027351Y4099813D01*
X2037765Y4110228D01*
X2047925Y4115307D01*
X2068753Y4115307D01*
X2079167Y4110228D01*
X2089581Y4099813D01*
X2094915Y4089400D01*
X2099995Y4073652D01*
X2099995Y4047744D01*
X2094915Y4032250D01*
X2089581Y4021836D01*
X2079167Y4011421D01*
X2068753Y4006342D01*
X2047925Y4006342D01*
X2037765Y4011421D01*
X2027351Y4021836D01*
X2022017Y4032250D01*
X1920163Y4078986D02*
G01*
X1925497Y4063492D01*
X1935911Y4053078D01*
X1951405Y4047744D01*
X1956485Y4047744D01*
X1972233Y4053078D01*
X1982647Y4063492D01*
X1987727Y4078986D01*
X1987727Y4084065D01*
X1982647Y4099813D01*
X1972233Y4110228D01*
X1956485Y4115307D01*
X1951405Y4115307D01*
X1935911Y4110228D01*
X1925497Y4099813D01*
X1920163Y4078986D01*
X1920163Y4053078D01*
X1925497Y4026915D01*
X1935911Y4011421D01*
X1951405Y4006342D01*
X1961819Y4006342D01*
X1977313Y4011421D01*
X1982647Y4021836D01*
X8006918Y4667732D02*
G01*
X8012252Y4678146D01*
X8022666Y4688560D01*
X8032826Y4693640D01*
X8053654Y4693640D01*
X8064068Y4688560D01*
X8074482Y4678146D01*
X8079816Y4667732D01*
X8084896Y4651984D01*
X8084896Y4626076D01*
X8079816Y4610582D01*
X8074482Y4600168D01*
X8064068Y4589754D01*
X8053654Y4584674D01*
X8032826Y4584674D01*
X8022666Y4589754D01*
X8012252Y4600168D01*
X8006918Y4610582D01*
X7946720Y4693640D02*
G01*
X7962214Y4688560D01*
X7967548Y4678146D01*
X7967548Y4667732D01*
X7962214Y4657318D01*
X7951800Y4651984D01*
X7931226Y4646904D01*
X7915478Y4641824D01*
X7905064Y4631410D01*
X7899984Y4620996D01*
X7899984Y4605248D01*
X7905064Y4594834D01*
X7910398Y4589754D01*
X7925892Y4584674D01*
X7946720Y4584674D01*
X7962214Y4589754D01*
X7967548Y4594834D01*
X7972628Y4605248D01*
X7972628Y4620996D01*
X7967548Y4631410D01*
X7957134Y4641824D01*
X7941386Y4646904D01*
X7920812Y4651984D01*
X7910398Y4657318D01*
X7905064Y4667732D01*
X7905064Y4678146D01*
X7910398Y4688560D01*
X7925892Y4693640D01*
X7946720Y4693640D01*
X6006922Y4667732D02*
G01*
X6012256Y4678146D01*
X6022670Y4688560D01*
X6032830Y4693640D01*
X6053658Y4693640D01*
X6064072Y4688560D01*
X6074486Y4678146D01*
X6079820Y4667732D01*
X6084900Y4651984D01*
X6084900Y4626076D01*
X6079820Y4610582D01*
X6074486Y4600168D01*
X6064072Y4589754D01*
X6053658Y4584674D01*
X6032830Y4584674D01*
X6022670Y4589754D01*
X6012256Y4600168D01*
X6006922Y4610582D01*
X5899988Y4693640D02*
G01*
X5951804Y4584674D01*
X5972632Y4693640D02*
G01*
X5899988Y4693640D01*
X4001846Y4667732D02*
G01*
X4007180Y4678146D01*
X4017594Y4688560D01*
X4027754Y4693640D01*
X4048582Y4693640D01*
X4058996Y4688560D01*
X4069410Y4678146D01*
X4074744Y4667732D01*
X4079824Y4651984D01*
X4079824Y4626076D01*
X4074744Y4610582D01*
X4069410Y4600168D01*
X4058996Y4589754D01*
X4048582Y4584674D01*
X4027754Y4584674D01*
X4017594Y4589754D01*
X4007180Y4600168D01*
X4001846Y4610582D01*
X3905326Y4678146D02*
G01*
X3910406Y4688560D01*
X3926154Y4693640D01*
X3936314Y4693640D01*
X3952062Y4688560D01*
X3962476Y4672812D01*
X3967556Y4646904D01*
X3967556Y4620996D01*
X3962476Y4600168D01*
X3952062Y4589754D01*
X3936314Y4584674D01*
X3931234Y4584674D01*
X3915740Y4589754D01*
X3905326Y4600168D01*
X3899992Y4615662D01*
X3899992Y4620996D01*
X3905326Y4636490D01*
X3915740Y4646904D01*
X3931234Y4651984D01*
X3936314Y4651984D01*
X3952062Y4646904D01*
X3962476Y4636490D01*
X3967556Y4620996D01*
X2006930Y4667732D02*
G01*
X2012264Y4678146D01*
X2022678Y4688560D01*
X2032838Y4693640D01*
X2053666Y4693640D01*
X2064080Y4688560D01*
X2074494Y4678146D01*
X2079828Y4667732D01*
X2084908Y4651984D01*
X2084908Y4626076D01*
X2079828Y4610582D01*
X2074494Y4600168D01*
X2064080Y4589754D01*
X2053666Y4584674D01*
X2032838Y4584674D01*
X2022678Y4589754D01*
X2012264Y4600168D01*
X2006930Y4610582D01*
X1910410Y4693640D02*
G01*
X1962226Y4693640D01*
X1967560Y4646904D01*
X1962226Y4651984D01*
X1946732Y4657318D01*
X1931238Y4657318D01*
X1915490Y4651984D01*
X1905076Y4641824D01*
X1899996Y4626076D01*
X1899996Y4615662D01*
X1905076Y4600168D01*
X1915490Y4589754D01*
X1931238Y4584674D01*
X1946732Y4584674D01*
X1962226Y4589754D01*
X1967560Y4594834D01*
X1972640Y4605248D01*
X8022005Y8989390D02*
G01*
X8027339Y8999804D01*
X8037753Y9010218D01*
X8047913Y9015298D01*
X8068741Y9015298D01*
X8079155Y9010218D01*
X8089569Y8999804D01*
X8094903Y8989390D01*
X8099983Y8973642D01*
X8099983Y8947734D01*
X8094903Y8932240D01*
X8089569Y8921826D01*
X8079155Y8911412D01*
X8068741Y8906332D01*
X8047913Y8906332D01*
X8037753Y8911412D01*
X8027339Y8921826D01*
X8022005Y8932240D01*
X7935899Y9015298D02*
G01*
X7987715Y8942654D01*
X7909737Y8942654D01*
X7935899Y9015298D02*
G01*
X7935899Y8906332D01*
X6022009Y8989390D02*
G01*
X6027343Y8999804D01*
X6037757Y9010218D01*
X6047917Y9015298D01*
X6068745Y9015298D01*
X6079159Y9010218D01*
X6089573Y8999804D01*
X6094907Y8989390D01*
X6099987Y8973642D01*
X6099987Y8947734D01*
X6094907Y8932240D01*
X6089573Y8921826D01*
X6079159Y8911412D01*
X6068745Y8906332D01*
X6047917Y8906332D01*
X6037757Y8911412D01*
X6027343Y8921826D01*
X6022009Y8932240D01*
X5977305Y9015298D02*
G01*
X5920155Y9015298D01*
X5951397Y8973642D01*
X5935903Y8973642D01*
X5925489Y8968562D01*
X5920155Y8963482D01*
X5915075Y8947734D01*
X5915075Y8937320D01*
X5920155Y8921826D01*
X5930569Y8911412D01*
X5946317Y8906332D01*
X5961811Y8906332D01*
X5977305Y8911412D01*
X5982639Y8916492D01*
X5987719Y8926906D01*
X4022013Y8989390D02*
G01*
X4027347Y8999804D01*
X4037761Y9010218D01*
X4047921Y9015298D01*
X4068749Y9015298D01*
X4079163Y9010218D01*
X4089577Y8999804D01*
X4094911Y8989390D01*
X4099991Y8973642D01*
X4099991Y8947734D01*
X4094911Y8932240D01*
X4089577Y8921826D01*
X4079163Y8911412D01*
X4068749Y8906332D01*
X4047921Y8906332D01*
X4037761Y8911412D01*
X4027347Y8921826D01*
X4022013Y8932240D01*
X3982643Y8989390D02*
G01*
X3982643Y8994470D01*
X3977309Y9004884D01*
X3972229Y9010218D01*
X3961815Y9015298D01*
X3940987Y9015298D01*
X3930573Y9010218D01*
X3925493Y9004884D01*
X3920159Y8994470D01*
X3920159Y8984056D01*
X3925493Y8973642D01*
X3935907Y8958148D01*
X3987723Y8906332D01*
X3915079Y8906332D01*
X2022017Y8989390D02*
G01*
X2027351Y8999804D01*
X2037765Y9010218D01*
X2047925Y9015298D01*
X2068753Y9015298D01*
X2079167Y9010218D01*
X2089581Y8999804D01*
X2094915Y8989390D01*
X2099995Y8973642D01*
X2099995Y8947734D01*
X2094915Y8932240D01*
X2089581Y8921826D01*
X2079167Y8911412D01*
X2068753Y8906332D01*
X2047925Y8906332D01*
X2037765Y8911412D01*
X2027351Y8921826D01*
X2022017Y8932240D01*
X1987727Y8994470D02*
G01*
X1977313Y8999804D01*
X1961819Y9015298D01*
X1961819Y8906332D01*
X9882002Y3719400D02*
G01*
X9887336Y3729814D01*
X9897750Y3740228D01*
X9907910Y3745308D01*
X9928738Y3745308D01*
X9939152Y3740228D01*
X9949566Y3729814D01*
X9954900Y3719400D01*
X9959980Y3703652D01*
X9959980Y3677744D01*
X9954900Y3662250D01*
X9949566Y3651836D01*
X9939152Y3641422D01*
X9928738Y3636342D01*
X9907910Y3636342D01*
X9897750Y3641422D01*
X9887336Y3651836D01*
X9882002Y3662250D01*
X9847712Y3724480D02*
G01*
X9837298Y3729814D01*
X9821804Y3745308D01*
X9821804Y3636342D01*
X9777100Y3745308D02*
G01*
X9719950Y3745308D01*
X9751192Y3703652D01*
X9735444Y3703652D01*
X9725030Y3698572D01*
X9719950Y3693492D01*
X9714870Y3677744D01*
X9714870Y3667330D01*
X9719950Y3651836D01*
X9730364Y3641422D01*
X9745858Y3636342D01*
X9761606Y3636342D01*
X9777100Y3641422D01*
X9782180Y3646502D01*
X9787514Y3656916D01*
X9022003Y6589395D02*
G01*
X9027337Y6599809D01*
X9037751Y6610222D01*
X9047911Y6615303D01*
X9068739Y6615303D01*
X9079153Y6610222D01*
X9089567Y6599809D01*
X9094901Y6589395D01*
X9099981Y6573646D01*
X9099981Y6547738D01*
X9094901Y6532245D01*
X9089567Y6521830D01*
X9079153Y6511417D01*
X9068739Y6506337D01*
X9047911Y6506337D01*
X9037751Y6511417D01*
X9027337Y6521830D01*
X9022003Y6532245D01*
X8987713Y6594475D02*
G01*
X8977299Y6599809D01*
X8961805Y6615303D01*
X8961805Y6506337D01*
X8875445Y6615303D02*
G01*
X8927515Y6542659D01*
X8849537Y6542659D01*
X8875445Y6615303D02*
G01*
X8875445Y6506337D01*
D12*
X9226981Y8503983D02*
G01*
X9226981Y8186483D01*
D10*
X9226981Y8503983D02*
G01*
X8972981Y8503983D01*
X8972981Y7995983D01*
X9226981Y7995983D01*
X9226981Y8186483D01*
X9753981Y4791989D02*
G01*
X9245981Y4791989D01*
X9245981Y5807989D01*
X9753981Y5807989D01*
X9753981Y4791989D01*
D11*
X9766040Y7157364D02*
G01*
X9766040Y7061476D01*
X9633920Y7061476D01*
X9633920Y7157364D01*
X9766040Y7242606D02*
G01*
X9766040Y7338494D01*
X9633920Y7338494D01*
X9633920Y7242606D01*
X8622855Y6942366D02*
G01*
X8977134Y6942366D01*
X8977134Y7457605D01*
X8622855Y7457605D01*
X8622855Y6942366D01*
X9457601Y3122866D02*
G01*
X9457601Y3477145D01*
X8942362Y3477145D01*
X8942362Y3122866D01*
X9457601Y3122866D01*
X7909623Y3518872D02*
G01*
X7909623Y3659873D01*
X8090344Y3659873D02*
G01*
X8090344Y3518872D01*
X8075104Y3503632D02*
G01*
X7924863Y3503632D01*
X7909623Y3881112D02*
G01*
X7909623Y3740111D01*
X8090344Y3740111D02*
G01*
X8090344Y3881112D01*
X8075104Y3896352D02*
G01*
X7924863Y3896352D01*
X5909627Y3518872D02*
G01*
X5909627Y3659873D01*
X6090348Y3659873D02*
G01*
X6090348Y3518872D01*
X6075108Y3503632D02*
G01*
X5924867Y3503632D01*
X5909627Y3881112D02*
G01*
X5909627Y3740111D01*
X6090348Y3740111D02*
G01*
X6090348Y3881112D01*
X6075108Y3896352D02*
G01*
X5924867Y3896352D01*
X3909631Y3518872D02*
G01*
X3909631Y3659873D01*
X4090352Y3659873D02*
G01*
X4090352Y3518872D01*
X4075112Y3503632D02*
G01*
X3924871Y3503632D01*
X3909631Y3881112D02*
G01*
X3909631Y3740111D01*
X4090352Y3740111D02*
G01*
X4090352Y3881112D01*
X4075112Y3896352D02*
G01*
X3924871Y3896352D01*
X1909635Y3518872D02*
G01*
X1909635Y3659873D01*
X2090356Y3659873D02*
G01*
X2090356Y3518872D01*
X2075116Y3503632D02*
G01*
X1924875Y3503632D01*
X1909635Y3881112D02*
G01*
X1909635Y3740111D01*
X2090356Y3740111D02*
G01*
X2090356Y3881112D01*
X2075116Y3896352D02*
G01*
X1924875Y3896352D01*
X8090344Y5181109D02*
G01*
X8090344Y5040109D01*
X7909623Y5040109D02*
G01*
X7909623Y5181109D01*
X7924863Y5196349D02*
G01*
X8075104Y5196349D01*
X8090344Y4818870D02*
G01*
X8090344Y4959870D01*
X7909623Y4959870D02*
G01*
X7909623Y4818870D01*
X7924863Y4803630D02*
G01*
X8075104Y4803630D01*
X6090348Y5181109D02*
G01*
X6090348Y5040109D01*
X5909627Y5040109D02*
G01*
X5909627Y5181109D01*
X5924867Y5196349D02*
G01*
X6075108Y5196349D01*
X6090348Y4818870D02*
G01*
X6090348Y4959870D01*
X5909627Y4959870D02*
G01*
X5909627Y4818870D01*
X5924867Y4803630D02*
G01*
X6075108Y4803630D01*
X4090352Y5181109D02*
G01*
X4090352Y5040109D01*
X3909631Y5040109D02*
G01*
X3909631Y5181109D01*
X3924871Y5196349D02*
G01*
X4075112Y5196349D01*
X4090352Y4818870D02*
G01*
X4090352Y4959870D01*
X3909631Y4959870D02*
G01*
X3909631Y4818870D01*
X3924871Y4803630D02*
G01*
X4075112Y4803630D01*
X2090356Y5181109D02*
G01*
X2090356Y5040109D01*
X1909635Y5040109D02*
G01*
X1909635Y5181109D01*
X1924875Y5196349D02*
G01*
X2075116Y5196349D01*
X2090356Y4818870D02*
G01*
X2090356Y4959870D01*
X1909635Y4959870D02*
G01*
X1909635Y4818870D01*
X1924875Y4803630D02*
G01*
X2075116Y4803630D01*
X7909623Y8418863D02*
G01*
X7909623Y8559863D01*
X8090344Y8559863D02*
G01*
X8090344Y8418863D01*
X8075104Y8403623D02*
G01*
X7924863Y8403623D01*
X7909623Y8781102D02*
G01*
X7909623Y8640102D01*
X8090344Y8640102D02*
G01*
X8090344Y8781102D01*
X8075104Y8796342D02*
G01*
X7924863Y8796342D01*
X5909627Y8418863D02*
G01*
X5909627Y8559863D01*
X6090348Y8559863D02*
G01*
X6090348Y8418863D01*
X6075108Y8403623D02*
G01*
X5924867Y8403623D01*
X5909627Y8781102D02*
G01*
X5909627Y8640102D01*
X6090348Y8640102D02*
G01*
X6090348Y8781102D01*
X6075108Y8796342D02*
G01*
X5924867Y8796342D01*
X3909631Y8418863D02*
G01*
X3909631Y8559863D01*
X4090352Y8559863D02*
G01*
X4090352Y8418863D01*
X4075112Y8403623D02*
G01*
X3924871Y8403623D01*
X3909631Y8781102D02*
G01*
X3909631Y8640102D01*
X4090352Y8640102D02*
G01*
X4090352Y8781102D01*
X4075112Y8796342D02*
G01*
X3924871Y8796342D01*
X1909635Y8418863D02*
G01*
X1909635Y8559863D01*
X2090356Y8559863D02*
G01*
X2090356Y8418863D01*
X2075116Y8403623D02*
G01*
X1924875Y8403623D01*
X1909635Y8781102D02*
G01*
X1909635Y8640102D01*
X2090356Y8640102D02*
G01*
X2090356Y8781102D01*
X2075116Y8796342D02*
G01*
X1924875Y8796342D01*
X9509620Y3518872D02*
G01*
X9509620Y3659873D01*
X9690341Y3659873D02*
G01*
X9690341Y3518872D01*
X9675101Y3503632D02*
G01*
X9524860Y3503632D01*
X9509620Y3881112D02*
G01*
X9509620Y3740111D01*
X9690341Y3740111D02*
G01*
X9690341Y3881112D01*
X9675101Y3896352D02*
G01*
X9524860Y3896352D01*
X9081101Y6659626D02*
G01*
X8940101Y6659626D01*
X8940101Y6840346D02*
G01*
X9081101Y6840346D01*
X9096341Y6825106D02*
G01*
X9096341Y6674865D01*
X8718862Y6659626D02*
G01*
X8859862Y6659626D01*
X8859862Y6840346D02*
G01*
X8718862Y6840346D01*
X8703622Y6825106D02*
G01*
X8703622Y6674865D01*
G75*
G01*
X8090344Y3518873D02*
G02*
X8075104Y3503633I-15240J0D01*
G75*
G01*
X7924863Y3503633D02*
G02*
X7909624Y3518873I0J15240D01*
G75*
G01*
X8090344Y3881112D02*
G03*
X8075104Y3896352I-15240J0D01*
G75*
G01*
X7924863Y3896352D02*
G03*
X7909624Y3881112I0J-15240D01*
G75*
G01*
X6090349Y3518873D02*
G02*
X6075108Y3503633I-15241J0D01*
G75*
G01*
X5924867Y3503633D02*
G02*
X5909628Y3518873I0J15240D01*
G75*
G01*
X6090349Y3881112D02*
G03*
X6075108Y3896352I-15241J0D01*
G75*
G01*
X5924867Y3896352D02*
G03*
X5909628Y3881112I0J-15240D01*
G75*
G01*
X4090353Y3518873D02*
G02*
X4075113Y3503633I-15240J0D01*
G75*
G01*
X3924872Y3503633D02*
G02*
X3909631Y3518873I0J15240D01*
G75*
G01*
X4090353Y3881112D02*
G03*
X4075113Y3896352I-15240J0D01*
G75*
G01*
X3924872Y3896352D02*
G03*
X3909631Y3881112I0J-15240D01*
G75*
G01*
X2090356Y3518873D02*
G02*
X2075117Y3503633I-15240J0D01*
G75*
G01*
X1924875Y3503633D02*
G02*
X1909635Y3518873I1J15240D01*
G75*
G01*
X2090356Y3881112D02*
G03*
X2075117Y3896352I-15240J0D01*
G75*
G01*
X1924875Y3896352D02*
G03*
X1909635Y3881112I1J-15240D01*
G75*
G01*
X7909624Y5181110D02*
G02*
X7924863Y5196350I15239J0D01*
G75*
G01*
X8075104Y5196350D02*
G02*
X8090344Y5181110I0J-15240D01*
G75*
G01*
X7909624Y4818870D02*
G03*
X7924863Y4803630I15239J0D01*
G75*
G01*
X8075104Y4803630D02*
G03*
X8090344Y4818870I0J15240D01*
G75*
G01*
X5909628Y5181110D02*
G02*
X5924867Y5196350I15239J0D01*
G75*
G01*
X6075108Y5196350D02*
G02*
X6090349Y5181110I0J-15240D01*
G75*
G01*
X5909628Y4818870D02*
G03*
X5924867Y4803630I15239J0D01*
G75*
G01*
X6075108Y4803630D02*
G03*
X6090349Y4818870I0J15240D01*
G75*
G01*
X3909631Y5181110D02*
G02*
X3924872Y5196350I15241J0D01*
G75*
G01*
X4075113Y5196350D02*
G02*
X4090353Y5181110I0J-15240D01*
G75*
G01*
X3909631Y4818870D02*
G03*
X3924872Y4803630I15241J0D01*
G75*
G01*
X4075113Y4803630D02*
G03*
X4090353Y4818870I0J15240D01*
G75*
G01*
X1909635Y5181110D02*
G02*
X1924875Y5196350I15241J0D01*
G75*
G01*
X2075117Y5196350D02*
G02*
X2090356Y5181110I-1J-15240D01*
G75*
G01*
X1909635Y4818870D02*
G03*
X1924875Y4803630I15241J0D01*
G75*
G01*
X2075117Y4803630D02*
G03*
X2090356Y4818870I-1J15240D01*
G75*
G01*
X8090344Y8418863D02*
G02*
X8075104Y8403623I-15240J0D01*
G75*
G01*
X7924863Y8403623D02*
G02*
X7909624Y8418863I0J15240D01*
G75*
G01*
X8090344Y8781103D02*
G03*
X8075104Y8796343I-15240J0D01*
G75*
G01*
X7924863Y8796343D02*
G03*
X7909624Y8781103I0J-15240D01*
G75*
G01*
X6090349Y8418863D02*
G02*
X6075108Y8403623I-15241J0D01*
G75*
G01*
X5924867Y8403623D02*
G02*
X5909628Y8418863I0J15240D01*
G75*
G01*
X6090349Y8781103D02*
G03*
X6075108Y8796343I-15241J0D01*
G75*
G01*
X5924867Y8796343D02*
G03*
X5909628Y8781103I0J-15240D01*
G75*
G01*
X4090353Y8418863D02*
G02*
X4075113Y8403623I-15240J0D01*
G75*
G01*
X3924872Y8403623D02*
G02*
X3909631Y8418863I0J15240D01*
G75*
G01*
X4090353Y8781103D02*
G03*
X4075113Y8796343I-15240J0D01*
G75*
G01*
X3924872Y8796343D02*
G03*
X3909631Y8781103I0J-15240D01*
G75*
G01*
X2090356Y8418863D02*
G02*
X2075117Y8403623I-15240J0D01*
G75*
G01*
X1924875Y8403623D02*
G02*
X1909635Y8418863I1J15240D01*
G75*
G01*
X2090356Y8781103D02*
G03*
X2075117Y8796343I-15240J0D01*
G75*
G01*
X1924875Y8796343D02*
G03*
X1909635Y8781103I1J-15240D01*
G75*
G01*
X9690341Y3518873D02*
G02*
X9675101Y3503633I-15240J0D01*
G75*
G01*
X9524860Y3503633D02*
G02*
X9509620Y3518873I0J15240D01*
G75*
G01*
X9690341Y3881112D02*
G03*
X9675101Y3896352I-15240J0D01*
G75*
G01*
X9524860Y3896352D02*
G03*
X9509620Y3881112I0J-15240D01*
G75*
G01*
X9081102Y6840347D02*
G02*
X9096342Y6825107I0J-15240D01*
G75*
G01*
X9096342Y6674866D02*
G02*
X9081102Y6659626I-15240J0D01*
G75*
G01*
X8718862Y6840347D02*
G03*
X8703622Y6825107I0J-15240D01*
G75*
G01*
X8703622Y6674866D02*
G03*
X8718862Y6659626I15240J0D01*
D13*
G75*
G01
X8687994Y6996786D02*
G03X8687994Y6996786I-15011J0D01*
G75*
G01
X8528431Y6910095D02*
G03X8528431Y6910095I-15011J0D01*
G75*
G01
X9418193Y3172968D02*
G03X9418193Y3172968I-15011J0D01*
G75*
G01
X9504883Y3013405D02*
G03X9504883Y3013405I-15011J0D01*
M02*
