G04 Layer: BottomLayer*
G04 EasyEDA v6.5.23, 2023-08-24 15:40:58*
G04 a67cddfb3fce44daa9051d46cbbcc19f,10*
G04 Gerber Generator version 0.2*
G04 Scale: 100 percent, Rotated: No, Reflected: No *
G04 Dimensions in millimeters *
G04 leading zeros omitted , absolute positions ,4 integer and 5 decimal *
%FSLAX45Y45*%
%MOMM*%

%AMMACRO1*21,1,$1,$2,0,0,$3*%
%ADD10C,0.4000*%
%ADD11C,1.0000*%
%ADD12R,0.8640X0.8065*%
%ADD13MACRO1,0.864X0.8065X0.0000*%
%ADD14O,1.7314926000000002X0.3430016*%
%ADD15O,0.3430016X1.7314926000000002*%
%ADD16R,1.3500X1.4100*%
%ADD17MACRO1,1.35X1.41X0.0000*%
%ADD18MACRO1,1.35X1.41X-90.0000*%
%ADD19MACRO1,1.7X1.5748X90.0000*%
%ADD20C,1.7000*%
%ADD21MACRO1,1.5748X1.5748X90.0000*%
%ADD22C,1.5748*%
%ADD23C,1.8001*%
%ADD24C,4.4600*%
%ADD25C,0.6096*%
%ADD26C,0.6100*%
%ADD27C,0.0113*%

%LPD*%
G36*
X736041Y25908D02*
G01*
X732180Y26670D01*
X728929Y28803D01*
X726694Y32004D01*
X725881Y35864D01*
X726541Y39674D01*
X728624Y43027D01*
X731774Y45313D01*
X735380Y46939D01*
X762812Y61722D01*
X789279Y78130D01*
X814679Y96164D01*
X838962Y115722D01*
X861923Y136702D01*
X883615Y159105D01*
X903833Y182778D01*
X922578Y207670D01*
X939749Y233629D01*
X955243Y260654D01*
X969111Y288544D01*
X981202Y317246D01*
X991514Y346659D01*
X999947Y376631D01*
X1006551Y407060D01*
X1011275Y437845D01*
X1014120Y468884D01*
X1014984Y499973D01*
X1014120Y531114D01*
X1011275Y562152D01*
X1006551Y592937D01*
X999947Y623366D01*
X991514Y653338D01*
X981202Y682752D01*
X969111Y711454D01*
X955243Y739343D01*
X939749Y766368D01*
X922578Y792327D01*
X903833Y817219D01*
X883615Y840892D01*
X861923Y863295D01*
X838962Y884275D01*
X814679Y903833D01*
X789279Y921867D01*
X762812Y938276D01*
X735380Y953058D01*
X707085Y966063D01*
X678078Y977341D01*
X648360Y986790D01*
X618185Y994410D01*
X587552Y1000150D01*
X556666Y1003960D01*
X525576Y1005890D01*
X494436Y1005890D01*
X463346Y1003960D01*
X432409Y1000150D01*
X401828Y994410D01*
X371602Y986790D01*
X341934Y977341D01*
X312877Y966063D01*
X284581Y953058D01*
X257149Y938276D01*
X230682Y921867D01*
X205282Y903833D01*
X181051Y884275D01*
X158038Y863295D01*
X136398Y840892D01*
X116179Y817219D01*
X97434Y792327D01*
X80264Y766368D01*
X64719Y739343D01*
X50901Y711454D01*
X45415Y698500D01*
X43230Y695248D01*
X39928Y693064D01*
X36017Y692302D01*
X32156Y693064D01*
X28854Y695299D01*
X26670Y698601D01*
X25908Y702462D01*
X25908Y9297517D01*
X26670Y9301378D01*
X28854Y9304680D01*
X32156Y9306864D01*
X36017Y9307677D01*
X39928Y9306915D01*
X43230Y9304731D01*
X45415Y9301480D01*
X50901Y9288526D01*
X64719Y9260636D01*
X80264Y9233611D01*
X97434Y9207652D01*
X116179Y9182760D01*
X136398Y9159087D01*
X158038Y9136684D01*
X181051Y9115704D01*
X205282Y9096146D01*
X230682Y9078112D01*
X257149Y9061704D01*
X284581Y9046921D01*
X312877Y9033916D01*
X341934Y9022638D01*
X371602Y9013190D01*
X401828Y9005570D01*
X432409Y8999829D01*
X463346Y8996019D01*
X494436Y8994089D01*
X525576Y8994089D01*
X556666Y8996019D01*
X587552Y8999829D01*
X618185Y9005570D01*
X648360Y9013190D01*
X678078Y9022638D01*
X707085Y9033916D01*
X735380Y9046921D01*
X762812Y9061704D01*
X789279Y9078112D01*
X814679Y9096146D01*
X838962Y9115704D01*
X861923Y9136684D01*
X883615Y9159087D01*
X903833Y9182760D01*
X922578Y9207652D01*
X939749Y9233611D01*
X955243Y9260636D01*
X969111Y9288526D01*
X981202Y9317228D01*
X991514Y9346641D01*
X999947Y9376613D01*
X1006551Y9407042D01*
X1011275Y9437827D01*
X1014120Y9468866D01*
X1014984Y9499955D01*
X1014120Y9531096D01*
X1011275Y9562134D01*
X1006551Y9592919D01*
X999947Y9623348D01*
X991514Y9653320D01*
X981202Y9682734D01*
X969111Y9711436D01*
X955243Y9739325D01*
X939749Y9766350D01*
X922578Y9792309D01*
X903833Y9817201D01*
X883615Y9840874D01*
X861923Y9863277D01*
X838962Y9884257D01*
X814679Y9903815D01*
X789279Y9921849D01*
X762812Y9938258D01*
X735380Y9953040D01*
X731774Y9954666D01*
X728573Y9956952D01*
X726541Y9960305D01*
X725881Y9964115D01*
X726694Y9967976D01*
X728929Y9971176D01*
X732180Y9973310D01*
X736041Y9974072D01*
X9283954Y9974072D01*
X9287764Y9973310D01*
X9291066Y9971176D01*
X9293250Y9967976D01*
X9294114Y9964115D01*
X9293453Y9960305D01*
X9291370Y9956952D01*
X9288221Y9954666D01*
X9284563Y9953040D01*
X9257131Y9938258D01*
X9230664Y9921849D01*
X9205264Y9903815D01*
X9181033Y9884257D01*
X9158020Y9863277D01*
X9136380Y9840874D01*
X9116161Y9817201D01*
X9097416Y9792309D01*
X9080246Y9766350D01*
X9064701Y9739325D01*
X9050883Y9711436D01*
X9038793Y9682734D01*
X9028480Y9653320D01*
X9019997Y9623348D01*
X9013393Y9592919D01*
X9008668Y9562134D01*
X9005874Y9531096D01*
X9004960Y9500006D01*
X9005874Y9468866D01*
X9008668Y9437827D01*
X9013393Y9407042D01*
X9019997Y9376613D01*
X9028480Y9346641D01*
X9038793Y9317228D01*
X9050883Y9288526D01*
X9064701Y9260636D01*
X9080246Y9233611D01*
X9097416Y9207652D01*
X9116161Y9182760D01*
X9136380Y9159087D01*
X9158020Y9136684D01*
X9181033Y9115704D01*
X9205264Y9096146D01*
X9230664Y9078112D01*
X9257131Y9061704D01*
X9284563Y9046921D01*
X9312859Y9033916D01*
X9341916Y9022638D01*
X9371584Y9013190D01*
X9401810Y9005570D01*
X9432391Y8999829D01*
X9463328Y8996019D01*
X9494418Y8994089D01*
X9525558Y8994089D01*
X9556648Y8996019D01*
X9587534Y8999829D01*
X9618167Y9005570D01*
X9648342Y9013190D01*
X9678060Y9022638D01*
X9707067Y9033916D01*
X9735362Y9046921D01*
X9762794Y9061704D01*
X9789261Y9078112D01*
X9814661Y9096146D01*
X9838944Y9115704D01*
X9861905Y9136684D01*
X9883597Y9159087D01*
X9903815Y9182760D01*
X9922560Y9207652D01*
X9939731Y9233611D01*
X9955123Y9260382D01*
X9958070Y9263634D01*
X9962134Y9265310D01*
X9966553Y9265107D01*
X9970414Y9263075D01*
X9973106Y9259620D01*
X9974072Y9255302D01*
X9974072Y734669D01*
X9973056Y730300D01*
X9970262Y726744D01*
X9966248Y724763D01*
X9961727Y724763D01*
X9957663Y726694D01*
X9954818Y730148D01*
X9950246Y739343D01*
X9934702Y766368D01*
X9917531Y792327D01*
X9898786Y817219D01*
X9878568Y840892D01*
X9856927Y863295D01*
X9833914Y884275D01*
X9809683Y903833D01*
X9784283Y921867D01*
X9757816Y938276D01*
X9730384Y953058D01*
X9702088Y966063D01*
X9673031Y977341D01*
X9643364Y986790D01*
X9613138Y994410D01*
X9582556Y1000150D01*
X9551619Y1003960D01*
X9520529Y1005890D01*
X9489389Y1005890D01*
X9458299Y1003960D01*
X9427413Y1000150D01*
X9396780Y994410D01*
X9366605Y986790D01*
X9336887Y977341D01*
X9307880Y966063D01*
X9279585Y953058D01*
X9252153Y938276D01*
X9225686Y921867D01*
X9200286Y903833D01*
X9176004Y884275D01*
X9153042Y863295D01*
X9131350Y840892D01*
X9111132Y817219D01*
X9092387Y792327D01*
X9075216Y766368D01*
X9059722Y739343D01*
X9045854Y711454D01*
X9033764Y682752D01*
X9023451Y653338D01*
X9015018Y623366D01*
X9008414Y592937D01*
X9003690Y562152D01*
X9000845Y531114D01*
X8999982Y500024D01*
X9000845Y468884D01*
X9003690Y437845D01*
X9008414Y407060D01*
X9015018Y376631D01*
X9023451Y346659D01*
X9033764Y317246D01*
X9045854Y288544D01*
X9059722Y260654D01*
X9075216Y233629D01*
X9092387Y207670D01*
X9111132Y182778D01*
X9131350Y159105D01*
X9153042Y136702D01*
X9176004Y115722D01*
X9200286Y96164D01*
X9225686Y78130D01*
X9252153Y61722D01*
X9279585Y46939D01*
X9283192Y45313D01*
X9286392Y43027D01*
X9288424Y39674D01*
X9289084Y35864D01*
X9288272Y32004D01*
X9286036Y28803D01*
X9282785Y26670D01*
X9278924Y25908D01*
G37*

%LPC*%
G36*
X2220823Y8757818D02*
G01*
X2322169Y8757818D01*
X2322169Y8858961D01*
X2309266Y8851798D01*
X2291029Y8839403D01*
X2274011Y8825433D01*
X2258263Y8810040D01*
X2243937Y8793327D01*
X2231136Y8775395D01*
G37*
G36*
X8301329Y2836214D02*
G01*
X8312048Y2842158D01*
X8323834Y2850692D01*
X8334451Y2860649D01*
X8343747Y2871876D01*
X8351520Y2884170D01*
X8353653Y2888640D01*
X8301329Y2888640D01*
G37*
G36*
X6301333Y2836214D02*
G01*
X6312052Y2842158D01*
X6323838Y2850692D01*
X6334455Y2860649D01*
X6343751Y2871876D01*
X6351524Y2884170D01*
X6353657Y2888640D01*
X6301333Y2888640D01*
G37*
G36*
X4301337Y2836214D02*
G01*
X4312056Y2842158D01*
X4323842Y2850692D01*
X4334459Y2860649D01*
X4343755Y2871876D01*
X4351528Y2884170D01*
X4353661Y2888640D01*
X4301337Y2888640D01*
G37*
G36*
X2301341Y2836214D02*
G01*
X2312060Y2842158D01*
X2323846Y2850692D01*
X2334463Y2860649D01*
X2343759Y2871876D01*
X2351532Y2884170D01*
X2353665Y2888640D01*
X2301341Y2888640D01*
G37*
G36*
X8957564Y2903880D02*
G01*
X8957564Y2963773D01*
X8929420Y2963773D01*
X8929420Y2944469D01*
X8930182Y2936087D01*
X8932367Y2928467D01*
X8935923Y2921355D01*
X8940698Y2915005D01*
X8946540Y2909671D01*
X8953296Y2905506D01*
G37*
G36*
X8987536Y2903880D02*
G01*
X8991600Y2905506D01*
X8999524Y2910535D01*
X9003080Y2911906D01*
X9006890Y2911906D01*
X9010396Y2910535D01*
X9018371Y2905506D01*
X9022537Y2903880D01*
X9022537Y2963773D01*
X8987434Y2963773D01*
G37*
G36*
X9052407Y2903880D02*
G01*
X9056624Y2905506D01*
X9064548Y2910535D01*
X9068104Y2911906D01*
X9071864Y2911906D01*
X9075420Y2910535D01*
X9083344Y2905506D01*
X9087561Y2903880D01*
X9087561Y2963773D01*
X9052407Y2963773D01*
G37*
G36*
X9117431Y2903880D02*
G01*
X9121597Y2905506D01*
X9129522Y2910535D01*
X9133078Y2911906D01*
X9136888Y2911906D01*
X9140444Y2910535D01*
X9148368Y2905506D01*
X9152534Y2903880D01*
X9152534Y2963773D01*
X9117431Y2963773D01*
G37*
G36*
X2301341Y2991358D02*
G01*
X2353665Y2991358D01*
X2351532Y2995828D01*
X2343759Y3008122D01*
X2334463Y3019348D01*
X2323846Y3029305D01*
X2312060Y3037840D01*
X2301341Y3043783D01*
G37*
G36*
X4301337Y2991358D02*
G01*
X4353661Y2991358D01*
X4351528Y2995828D01*
X4343755Y3008122D01*
X4334459Y3019348D01*
X4323842Y3029305D01*
X4312056Y3037840D01*
X4301337Y3043783D01*
G37*
G36*
X8301329Y2991358D02*
G01*
X8353653Y2991358D01*
X8351520Y2995828D01*
X8343747Y3008122D01*
X8334451Y3019348D01*
X8323834Y3029305D01*
X8312048Y3037840D01*
X8301329Y3043783D01*
G37*
G36*
X6146292Y2991358D02*
G01*
X6198616Y2991358D01*
X6198616Y3043783D01*
X6187897Y3037840D01*
X6176111Y3029305D01*
X6165494Y3019348D01*
X6156198Y3008122D01*
X6148425Y2995828D01*
G37*
G36*
X4146296Y2991358D02*
G01*
X4198620Y2991358D01*
X4198620Y3043783D01*
X4187901Y3037840D01*
X4176115Y3029305D01*
X4165498Y3019348D01*
X4156201Y3008122D01*
X4148429Y2995828D01*
G37*
G36*
X2146300Y2991358D02*
G01*
X2198624Y2991358D01*
X2198624Y3043783D01*
X2187905Y3037840D01*
X2176119Y3029305D01*
X2165502Y3019348D01*
X2156206Y3008122D01*
X2148433Y2995828D01*
G37*
G36*
X8146288Y2991358D02*
G01*
X8198612Y2991358D01*
X8198612Y3043783D01*
X8187893Y3037840D01*
X8176107Y3029305D01*
X8165490Y3019348D01*
X8156194Y3008122D01*
X8148421Y2995828D01*
G37*
G36*
X6301333Y2991358D02*
G01*
X6353657Y2991358D01*
X6351524Y2995828D01*
X6343751Y3008122D01*
X6334455Y3019348D01*
X6323838Y3029305D01*
X6312052Y3037840D01*
X6301333Y3043783D01*
G37*
G36*
X8929420Y3063087D02*
G01*
X8957564Y3063087D01*
X8957564Y3122980D01*
X8953296Y3121355D01*
X8946540Y3117189D01*
X8940698Y3111855D01*
X8935923Y3105505D01*
X8932367Y3098393D01*
X8930182Y3090773D01*
X8929420Y3082391D01*
G37*
G36*
X9052407Y3063087D02*
G01*
X9087561Y3063087D01*
X9087561Y3122980D01*
X9083344Y3121355D01*
X9075420Y3116326D01*
X9071864Y3114954D01*
X9068104Y3114954D01*
X9064548Y3116326D01*
X9056624Y3121355D01*
X9052407Y3122980D01*
G37*
G36*
X9117431Y3063087D02*
G01*
X9152534Y3063087D01*
X9152534Y3122980D01*
X9148368Y3121355D01*
X9140444Y3116326D01*
X9136888Y3114954D01*
X9133078Y3114954D01*
X9129522Y3116326D01*
X9121597Y3121355D01*
X9117431Y3122980D01*
G37*
G36*
X8987383Y3063087D02*
G01*
X9022537Y3063087D01*
X9022537Y3122980D01*
X9018371Y3121355D01*
X9010396Y3116326D01*
X9006890Y3114954D01*
X9003080Y3114954D01*
X8999524Y3116326D01*
X8991600Y3121355D01*
X8987383Y3122980D01*
G37*
G36*
X1197305Y3224123D02*
G01*
X1208633Y3224580D01*
X1219809Y3226663D01*
X1230477Y3230422D01*
X1240536Y3235706D01*
X1249629Y3242462D01*
X1257655Y3250488D01*
X1264412Y3259582D01*
X1269695Y3269640D01*
X1273454Y3280308D01*
X1275537Y3291484D01*
X1275994Y3302812D01*
X1274724Y3314090D01*
X1271778Y3325012D01*
X1267256Y3335426D01*
X1261211Y3345027D01*
X1253540Y3353917D01*
X1078890Y3528568D01*
X1076655Y3531870D01*
X1075893Y3535781D01*
X1075893Y5464352D01*
X1076655Y5468213D01*
X1078890Y5471515D01*
X1253388Y5646064D01*
X1261059Y5654954D01*
X1267104Y5664555D01*
X1271625Y5674918D01*
X1274572Y5685891D01*
X1275842Y5697169D01*
X1275384Y5708497D01*
X1273302Y5719622D01*
X1269542Y5730341D01*
X1264259Y5740349D01*
X1257503Y5749493D01*
X1249476Y5757519D01*
X1240383Y5764225D01*
X1230325Y5769559D01*
X1219657Y5773267D01*
X1208481Y5775401D01*
X1197152Y5775807D01*
X1185875Y5774537D01*
X1174953Y5771591D01*
X1164539Y5767070D01*
X1154938Y5761024D01*
X1146048Y5753404D01*
X1093266Y5700572D01*
X1089964Y5698388D01*
X1086053Y5697626D01*
X1082192Y5698388D01*
X1078890Y5700572D01*
X1076655Y5703874D01*
X1075893Y5707786D01*
X1075893Y7964322D01*
X1076655Y7968234D01*
X1078890Y7971536D01*
X1253388Y8146034D01*
X1261059Y8154924D01*
X1267104Y8164525D01*
X1271625Y8174939D01*
X1274572Y8185861D01*
X1275842Y8197138D01*
X1275384Y8208467D01*
X1273302Y8219643D01*
X1269542Y8230311D01*
X1264259Y8240369D01*
X1257503Y8249462D01*
X1249476Y8257489D01*
X1240383Y8264245D01*
X1230325Y8269528D01*
X1219657Y8273288D01*
X1208481Y8275370D01*
X1197152Y8275828D01*
X1185875Y8274558D01*
X1174953Y8271611D01*
X1164539Y8267090D01*
X1154938Y8261045D01*
X1146048Y8253374D01*
X944473Y8051749D01*
X937412Y8042909D01*
X932789Y8035290D01*
X931671Y8033105D01*
X928268Y8024875D01*
X927506Y8022539D01*
X925372Y8013903D01*
X924966Y8011464D01*
X924153Y8002625D01*
X924153Y3497478D01*
X924966Y3488639D01*
X925372Y3486200D01*
X927506Y3477564D01*
X928268Y3475228D01*
X931671Y3466998D01*
X932789Y3464814D01*
X937412Y3457194D01*
X944473Y3448354D01*
X1146200Y3246577D01*
X1155090Y3238906D01*
X1164691Y3232861D01*
X1175105Y3228340D01*
X1186027Y3225393D01*
G37*
G36*
X9602774Y3224123D02*
G01*
X9614052Y3225393D01*
X9624974Y3228340D01*
X9635388Y3232861D01*
X9644989Y3238906D01*
X9653879Y3246577D01*
X9855606Y3448354D01*
X9862667Y3457194D01*
X9867290Y3464814D01*
X9868408Y3466998D01*
X9871811Y3475228D01*
X9872573Y3477564D01*
X9874707Y3486200D01*
X9875113Y3488639D01*
X9875926Y3497478D01*
X9875926Y4748530D01*
X9875113Y4757369D01*
X9874707Y4759807D01*
X9872573Y4768443D01*
X9871811Y4770780D01*
X9868408Y4779010D01*
X9867290Y4781194D01*
X9862667Y4788814D01*
X9855606Y4797653D01*
X9741509Y4911801D01*
X9739325Y4915103D01*
X9738563Y4918964D01*
X9739325Y4922875D01*
X9741509Y4926177D01*
X9855504Y5040223D01*
X9861194Y5047081D01*
X9862616Y5049062D01*
X9867188Y5056682D01*
X9868306Y5058867D01*
X9871710Y5067096D01*
X9872472Y5069433D01*
X9874605Y5078069D01*
X9875012Y5080508D01*
X9875824Y5089347D01*
X9875824Y6802628D01*
X9875012Y6811467D01*
X9874605Y6813905D01*
X9872472Y6822541D01*
X9871710Y6824878D01*
X9868306Y6833108D01*
X9867188Y6835292D01*
X9862616Y6842912D01*
X9861194Y6844893D01*
X9855504Y6851751D01*
X9753904Y6953402D01*
X9749434Y6957263D01*
X9746792Y6960717D01*
X9745878Y6964984D01*
X9745878Y7050887D01*
X9746742Y7054951D01*
X9749129Y7058304D01*
X9752685Y7060438D01*
X9754412Y7061047D01*
X9759289Y7064146D01*
X9763404Y7068210D01*
X9766452Y7073138D01*
X9768382Y7078573D01*
X9769094Y7084923D01*
X9769094Y7164425D01*
X9768382Y7170724D01*
X9766452Y7176211D01*
X9763404Y7181088D01*
X9759289Y7185202D01*
X9754412Y7188250D01*
X9748316Y7190384D01*
X9744760Y7192518D01*
X9742373Y7195921D01*
X9741509Y7199985D01*
X9742373Y7204049D01*
X9744760Y7207453D01*
X9748316Y7209586D01*
X9754412Y7211720D01*
X9759289Y7214768D01*
X9763404Y7218883D01*
X9766452Y7223759D01*
X9768382Y7229246D01*
X9769094Y7235545D01*
X9769094Y7315047D01*
X9768382Y7321397D01*
X9766452Y7326833D01*
X9763404Y7331760D01*
X9759289Y7335824D01*
X9754412Y7338923D01*
X9752736Y7339482D01*
X9749180Y7341666D01*
X9746742Y7345019D01*
X9745929Y7349083D01*
X9745878Y8126730D01*
X9744659Y8135467D01*
X9741966Y8143494D01*
X9737852Y8150859D01*
X9732111Y8157768D01*
X9479229Y8410600D01*
X9472168Y8415934D01*
X9464598Y8419693D01*
X9456470Y8421979D01*
X9447580Y8422843D01*
X9207296Y8422843D01*
X9203893Y8423402D01*
X9200896Y8425129D01*
X9198610Y8427720D01*
X9190939Y8440420D01*
X9182049Y8451545D01*
X9171838Y8461400D01*
X9160459Y8469934D01*
X9148114Y8476894D01*
X9134906Y8482228D01*
X9121190Y8485835D01*
X9107068Y8487664D01*
X9092895Y8487664D01*
X9078772Y8485835D01*
X9065056Y8482228D01*
X9051848Y8476894D01*
X9039504Y8469934D01*
X9028125Y8461400D01*
X9017914Y8451545D01*
X9009024Y8440420D01*
X9001353Y8427720D01*
X8999067Y8425129D01*
X8996070Y8423402D01*
X8992666Y8422843D01*
X8925356Y8422792D01*
X8916619Y8421573D01*
X8908592Y8418880D01*
X8901226Y8414766D01*
X8894318Y8409076D01*
X8791295Y8306257D01*
X8785961Y8299196D01*
X8782202Y8291626D01*
X8779916Y8283498D01*
X8779052Y8274608D01*
X8779103Y7273290D01*
X8780322Y7264552D01*
X8783015Y7256525D01*
X8787130Y7249159D01*
X8792870Y7242251D01*
X8852814Y7182307D01*
X8855049Y7179005D01*
X8855811Y7175093D01*
X8855049Y7171232D01*
X8852814Y7167930D01*
X8642451Y6957314D01*
X8638844Y6955028D01*
X8634628Y6954367D01*
X8630513Y6955536D01*
X8627262Y6958279D01*
X8625382Y6962140D01*
X8625281Y6966407D01*
X8625687Y6968540D01*
X8625687Y6976465D01*
X8624214Y6984238D01*
X8621369Y6991603D01*
X8616340Y6999528D01*
X8614918Y7003084D01*
X8614918Y7006894D01*
X8616340Y7010400D01*
X8621369Y7018375D01*
X8624214Y7025690D01*
X8625687Y7033514D01*
X8625687Y7041438D01*
X8624214Y7049262D01*
X8621369Y7056628D01*
X8616340Y7064552D01*
X8614918Y7068108D01*
X8614918Y7071868D01*
X8616340Y7075424D01*
X8621369Y7083348D01*
X8624214Y7090714D01*
X8625687Y7098538D01*
X8625687Y7106462D01*
X8624214Y7114235D01*
X8621369Y7121601D01*
X8616340Y7129525D01*
X8614918Y7133081D01*
X8614918Y7136892D01*
X8616340Y7140448D01*
X8621369Y7148372D01*
X8624214Y7155738D01*
X8625687Y7163511D01*
X8625687Y7171436D01*
X8624214Y7179259D01*
X8621369Y7186625D01*
X8616340Y7194550D01*
X8614918Y7198106D01*
X8614918Y7201865D01*
X8616340Y7205421D01*
X8621369Y7213346D01*
X8624214Y7220712D01*
X8625687Y7228535D01*
X8625687Y7236459D01*
X8624214Y7244232D01*
X8621369Y7251598D01*
X8616340Y7259523D01*
X8614918Y7263079D01*
X8614918Y7266889D01*
X8616340Y7270445D01*
X8621369Y7278370D01*
X8624214Y7285736D01*
X8625687Y7293508D01*
X8625687Y7301433D01*
X8624214Y7309256D01*
X8621369Y7316622D01*
X8616340Y7324547D01*
X8614918Y7328103D01*
X8614918Y7331862D01*
X8616340Y7335418D01*
X8621369Y7343343D01*
X8624214Y7350709D01*
X8625687Y7358532D01*
X8625687Y7366457D01*
X8624214Y7374280D01*
X8621369Y7381595D01*
X8616340Y7389571D01*
X8614918Y7393076D01*
X8614918Y7396886D01*
X8616340Y7400442D01*
X8621369Y7408367D01*
X8624214Y7415733D01*
X8625687Y7423505D01*
X8625687Y7431430D01*
X8624214Y7439253D01*
X8621369Y7446670D01*
X8617153Y7453426D01*
X8611819Y7459268D01*
X8605469Y7464044D01*
X8598408Y7467600D01*
X8590737Y7469784D01*
X8582355Y7470546D01*
X8530386Y7470546D01*
X8527643Y7470952D01*
X8521852Y7472578D01*
X8512962Y7473391D01*
X8295741Y7473391D01*
X8291830Y7474153D01*
X8288528Y7476388D01*
X8048853Y7716062D01*
X8046669Y7719364D01*
X8045907Y7723225D01*
X8045907Y7827213D01*
X8046516Y7830769D01*
X8048345Y7833868D01*
X8051139Y7836153D01*
X8062061Y7842148D01*
X8073847Y7850682D01*
X8084464Y7860639D01*
X8093760Y7871866D01*
X8101533Y7884159D01*
X8107730Y7897317D01*
X8112252Y7911185D01*
X8114944Y7925460D01*
X8115858Y7939989D01*
X8114893Y7954924D01*
X8112252Y7968792D01*
X8107730Y7982661D01*
X8101533Y7995818D01*
X8093760Y8008112D01*
X8084464Y8019338D01*
X8079079Y8024368D01*
X8076742Y8027720D01*
X8075879Y8031784D01*
X8075879Y8398814D01*
X8076438Y8402167D01*
X8078114Y8405164D01*
X8080654Y8407400D01*
X8083600Y8409279D01*
X8087664Y8413343D01*
X8090763Y8418271D01*
X8092694Y8423706D01*
X8093405Y8430056D01*
X8093405Y8569909D01*
X8092694Y8576208D01*
X8090763Y8581694D01*
X8087664Y8586571D01*
X8083600Y8590686D01*
X8079536Y8594191D01*
X8077962Y8597950D01*
X8077962Y8602014D01*
X8079536Y8605774D01*
X8083600Y8609279D01*
X8087664Y8613394D01*
X8090763Y8618270D01*
X8092694Y8623757D01*
X8093405Y8630056D01*
X8093405Y8658402D01*
X8040065Y8658402D01*
X8040065Y8606536D01*
X8039303Y8602675D01*
X8037118Y8599373D01*
X8033816Y8597138D01*
X8029905Y8596376D01*
X7970062Y8596376D01*
X7966151Y8597138D01*
X7962849Y8599373D01*
X7960664Y8602675D01*
X7959902Y8606536D01*
X7959902Y8658402D01*
X7906562Y8658402D01*
X7906562Y8630056D01*
X7907274Y8623757D01*
X7909204Y8618270D01*
X7912303Y8613394D01*
X7916367Y8609279D01*
X7920431Y8605774D01*
X7922006Y8602014D01*
X7922006Y8597950D01*
X7920431Y8594191D01*
X7916367Y8590686D01*
X7912303Y8586571D01*
X7909204Y8581694D01*
X7907274Y8576208D01*
X7906562Y8569909D01*
X7906562Y8430056D01*
X7907274Y8423706D01*
X7909204Y8418271D01*
X7912303Y8413343D01*
X7916367Y8409279D01*
X7919313Y8407400D01*
X7921853Y8405164D01*
X7923530Y8402167D01*
X7924088Y8398814D01*
X7924088Y8031784D01*
X7923225Y8027720D01*
X7920888Y8024368D01*
X7915503Y8019338D01*
X7906207Y8008112D01*
X7898434Y7995818D01*
X7892237Y7982661D01*
X7887716Y7968792D01*
X7884972Y7954314D01*
X7883448Y7950657D01*
X7880654Y7947812D01*
X7876997Y7946288D01*
X7872984Y7946288D01*
X7869326Y7947812D01*
X7866532Y7950657D01*
X7865008Y7954314D01*
X7862265Y7968792D01*
X7857744Y7982661D01*
X7851546Y7995818D01*
X7843774Y8008112D01*
X7834477Y8019338D01*
X7823860Y8029295D01*
X7812074Y8037830D01*
X7799324Y8044840D01*
X7785811Y8050225D01*
X7771688Y8053831D01*
X7757261Y8055660D01*
X7742732Y8055660D01*
X7728305Y8053831D01*
X7714183Y8050225D01*
X7700670Y8044840D01*
X7687919Y8037830D01*
X7676134Y8029295D01*
X7665516Y8019338D01*
X7656220Y8008112D01*
X7648448Y7995818D01*
X7642250Y7982661D01*
X7637729Y7968792D01*
X7635036Y7954518D01*
X7634122Y7939989D01*
X7635036Y7925460D01*
X7637729Y7911185D01*
X7642250Y7897317D01*
X7648448Y7884159D01*
X7656220Y7871866D01*
X7665516Y7860639D01*
X7676134Y7850682D01*
X7687919Y7842148D01*
X7700670Y7835138D01*
X7714183Y7829753D01*
X7728305Y7826146D01*
X7742732Y7824317D01*
X7757261Y7824317D01*
X7771688Y7826146D01*
X7785811Y7829753D01*
X7799324Y7835138D01*
X7812074Y7842148D01*
X7823860Y7850682D01*
X7834477Y7860639D01*
X7843774Y7871866D01*
X7851546Y7884159D01*
X7857744Y7897317D01*
X7862265Y7911185D01*
X7865008Y7925663D01*
X7866532Y7929321D01*
X7869326Y7932166D01*
X7872984Y7933690D01*
X7876997Y7933690D01*
X7880654Y7932166D01*
X7883448Y7929321D01*
X7884972Y7925663D01*
X7887716Y7911185D01*
X7892237Y7897317D01*
X7898434Y7884159D01*
X7906207Y7871866D01*
X7915503Y7860639D01*
X7926120Y7850682D01*
X7937906Y7842148D01*
X7948828Y7836153D01*
X7951622Y7833868D01*
X7953451Y7830769D01*
X7954060Y7827213D01*
X7954111Y7698231D01*
X7955330Y7689494D01*
X7958023Y7681468D01*
X7962138Y7674102D01*
X7967878Y7667193D01*
X7971891Y7663180D01*
X7974075Y7659878D01*
X7974838Y7656017D01*
X7974075Y7652105D01*
X7971891Y7648803D01*
X7968589Y7646619D01*
X7964678Y7645857D01*
X6363309Y7645857D01*
X6359448Y7646619D01*
X6356146Y7648803D01*
X6182715Y7822234D01*
X6180429Y7825689D01*
X6179718Y7829753D01*
X6180683Y7833766D01*
X6183172Y7837068D01*
X6186728Y7839100D01*
X6190843Y7839557D01*
X6194755Y7838338D01*
X6198616Y7836204D01*
X6198616Y7888630D01*
X6146292Y7888630D01*
X6148171Y7884668D01*
X6149136Y7880756D01*
X6148476Y7876794D01*
X6146342Y7873339D01*
X6143040Y7871053D01*
X6139129Y7870190D01*
X6135166Y7870952D01*
X6131814Y7873136D01*
X6112103Y7892846D01*
X6110020Y7895894D01*
X6109157Y7899501D01*
X6109614Y7903159D01*
X6112256Y7911185D01*
X6114948Y7925460D01*
X6115862Y7939989D01*
X6114897Y7954924D01*
X6112256Y7968792D01*
X6107734Y7982661D01*
X6101537Y7995818D01*
X6093764Y8008112D01*
X6084468Y8019338D01*
X6079083Y8024368D01*
X6076746Y8027720D01*
X6075883Y8031784D01*
X6075883Y8398814D01*
X6076442Y8402167D01*
X6078118Y8405164D01*
X6080658Y8407400D01*
X6083604Y8409279D01*
X6087668Y8413343D01*
X6090767Y8418271D01*
X6092698Y8423706D01*
X6093409Y8430056D01*
X6093409Y8569909D01*
X6092698Y8576208D01*
X6090767Y8581694D01*
X6087668Y8586571D01*
X6083604Y8590686D01*
X6079540Y8594191D01*
X6077966Y8597950D01*
X6077966Y8602014D01*
X6079540Y8605774D01*
X6083604Y8609279D01*
X6087668Y8613394D01*
X6090767Y8618270D01*
X6092698Y8623757D01*
X6093409Y8630056D01*
X6093409Y8658402D01*
X6040069Y8658402D01*
X6040069Y8606536D01*
X6039307Y8602675D01*
X6037122Y8599373D01*
X6033820Y8597138D01*
X6029909Y8596376D01*
X5970066Y8596376D01*
X5966155Y8597138D01*
X5962853Y8599373D01*
X5960668Y8602675D01*
X5959906Y8606536D01*
X5959906Y8658402D01*
X5906566Y8658402D01*
X5906566Y8630056D01*
X5907278Y8623757D01*
X5909208Y8618270D01*
X5912307Y8613394D01*
X5916371Y8609279D01*
X5920435Y8605774D01*
X5922010Y8602014D01*
X5922010Y8597950D01*
X5920435Y8594191D01*
X5916371Y8590686D01*
X5912307Y8586571D01*
X5909208Y8581694D01*
X5907278Y8576208D01*
X5906566Y8569909D01*
X5906566Y8430056D01*
X5907278Y8423706D01*
X5909208Y8418271D01*
X5912307Y8413343D01*
X5916371Y8409279D01*
X5919317Y8407400D01*
X5921857Y8405164D01*
X5923534Y8402167D01*
X5924092Y8398814D01*
X5924092Y8031784D01*
X5923229Y8027720D01*
X5920892Y8024368D01*
X5915507Y8019338D01*
X5906211Y8008112D01*
X5898438Y7995818D01*
X5892241Y7982661D01*
X5887720Y7968792D01*
X5884976Y7954314D01*
X5883452Y7950657D01*
X5880658Y7947812D01*
X5877001Y7946288D01*
X5872988Y7946288D01*
X5869330Y7947812D01*
X5866536Y7950657D01*
X5865012Y7954314D01*
X5862269Y7968792D01*
X5857748Y7982661D01*
X5851550Y7995818D01*
X5843778Y8008112D01*
X5834481Y8019338D01*
X5823864Y8029295D01*
X5812078Y8037830D01*
X5799328Y8044840D01*
X5785815Y8050225D01*
X5771692Y8053831D01*
X5757265Y8055660D01*
X5742736Y8055660D01*
X5728309Y8053831D01*
X5714187Y8050225D01*
X5700674Y8044840D01*
X5687923Y8037830D01*
X5676138Y8029295D01*
X5665520Y8019338D01*
X5656224Y8008112D01*
X5648452Y7995818D01*
X5642254Y7982661D01*
X5637733Y7968792D01*
X5635040Y7954518D01*
X5634126Y7939989D01*
X5635040Y7925460D01*
X5637733Y7911185D01*
X5642254Y7897317D01*
X5648452Y7884159D01*
X5656224Y7871866D01*
X5665520Y7860639D01*
X5676138Y7850682D01*
X5687923Y7842148D01*
X5700674Y7835138D01*
X5714187Y7829753D01*
X5728309Y7826146D01*
X5742736Y7824317D01*
X5757265Y7824317D01*
X5771692Y7826146D01*
X5785815Y7829753D01*
X5799328Y7835138D01*
X5812078Y7842148D01*
X5823864Y7850682D01*
X5834481Y7860639D01*
X5843778Y7871866D01*
X5851550Y7884159D01*
X5857748Y7897317D01*
X5862269Y7911185D01*
X5865012Y7925663D01*
X5866536Y7929321D01*
X5869330Y7932166D01*
X5872988Y7933690D01*
X5877001Y7933690D01*
X5880658Y7932166D01*
X5883452Y7929321D01*
X5884976Y7925663D01*
X5887720Y7911185D01*
X5892241Y7897317D01*
X5898438Y7884159D01*
X5906211Y7871866D01*
X5915507Y7860639D01*
X5926124Y7850682D01*
X5937910Y7842148D01*
X5950661Y7835138D01*
X5964174Y7829753D01*
X5978296Y7826146D01*
X5992723Y7824317D01*
X6007252Y7824317D01*
X6021679Y7826146D01*
X6036411Y7830007D01*
X6040272Y7830718D01*
X6044082Y7829956D01*
X6047333Y7827772D01*
X6307277Y7567828D01*
X6312204Y7563764D01*
X6314795Y7560564D01*
X6315862Y7556550D01*
X6315303Y7552486D01*
X6313119Y7548981D01*
X6309766Y7546594D01*
X6305702Y7545781D01*
X4463389Y7545781D01*
X4459528Y7546543D01*
X4456226Y7548727D01*
X4182719Y7822234D01*
X4180433Y7825689D01*
X4179722Y7829753D01*
X4180687Y7833766D01*
X4183176Y7837068D01*
X4186732Y7839100D01*
X4190847Y7839557D01*
X4194759Y7838338D01*
X4198620Y7836204D01*
X4198620Y7888630D01*
X4146296Y7888630D01*
X4148175Y7884668D01*
X4149140Y7880756D01*
X4148480Y7876743D01*
X4146346Y7873339D01*
X4143044Y7871002D01*
X4139133Y7870190D01*
X4135170Y7870901D01*
X4131818Y7873136D01*
X4112107Y7892846D01*
X4110024Y7895894D01*
X4109161Y7899501D01*
X4109618Y7903159D01*
X4112260Y7911185D01*
X4114952Y7925460D01*
X4115866Y7939989D01*
X4114901Y7954924D01*
X4112260Y7968792D01*
X4107738Y7982661D01*
X4101541Y7995818D01*
X4093768Y8008112D01*
X4084472Y8019338D01*
X4079087Y8024368D01*
X4076750Y8027720D01*
X4075887Y8031784D01*
X4075887Y8398814D01*
X4076446Y8402167D01*
X4078122Y8405164D01*
X4080662Y8407400D01*
X4083608Y8409279D01*
X4087672Y8413343D01*
X4090771Y8418271D01*
X4092701Y8423706D01*
X4093413Y8430056D01*
X4093413Y8569909D01*
X4092701Y8576208D01*
X4090771Y8581694D01*
X4087672Y8586571D01*
X4083608Y8590686D01*
X4079544Y8594191D01*
X4077970Y8597950D01*
X4077970Y8602014D01*
X4079544Y8605774D01*
X4083608Y8609279D01*
X4087672Y8613394D01*
X4090771Y8618270D01*
X4092701Y8623757D01*
X4093413Y8630056D01*
X4093413Y8658402D01*
X4040073Y8658402D01*
X4040073Y8606536D01*
X4039311Y8602675D01*
X4037126Y8599373D01*
X4033824Y8597138D01*
X4029913Y8596376D01*
X3970070Y8596376D01*
X3966159Y8597138D01*
X3962857Y8599373D01*
X3960672Y8602675D01*
X3959910Y8606536D01*
X3959910Y8658402D01*
X3906570Y8658402D01*
X3906570Y8630056D01*
X3907282Y8623757D01*
X3909212Y8618270D01*
X3912311Y8613394D01*
X3916375Y8609279D01*
X3920439Y8605774D01*
X3922014Y8602014D01*
X3922014Y8597950D01*
X3920439Y8594191D01*
X3916375Y8590686D01*
X3912311Y8586571D01*
X3909212Y8581694D01*
X3907282Y8576208D01*
X3906570Y8569909D01*
X3906570Y8430056D01*
X3907282Y8423706D01*
X3909212Y8418271D01*
X3912311Y8413343D01*
X3916375Y8409279D01*
X3919321Y8407400D01*
X3921861Y8405164D01*
X3923537Y8402167D01*
X3924096Y8398814D01*
X3924096Y8031784D01*
X3923233Y8027720D01*
X3920896Y8024368D01*
X3915511Y8019338D01*
X3906215Y8008112D01*
X3898442Y7995818D01*
X3892245Y7982661D01*
X3887724Y7968792D01*
X3884980Y7954314D01*
X3883456Y7950657D01*
X3880662Y7947812D01*
X3877005Y7946288D01*
X3872992Y7946288D01*
X3869334Y7947812D01*
X3866540Y7950657D01*
X3865016Y7954314D01*
X3862273Y7968792D01*
X3857751Y7982661D01*
X3851554Y7995818D01*
X3843782Y8008112D01*
X3834485Y8019338D01*
X3823868Y8029295D01*
X3812082Y8037830D01*
X3799332Y8044840D01*
X3785819Y8050225D01*
X3771696Y8053831D01*
X3757269Y8055660D01*
X3742740Y8055660D01*
X3728313Y8053831D01*
X3714191Y8050225D01*
X3700678Y8044840D01*
X3687927Y8037830D01*
X3676142Y8029295D01*
X3665524Y8019338D01*
X3656228Y8008112D01*
X3648456Y7995818D01*
X3642258Y7982661D01*
X3637737Y7968792D01*
X3635044Y7954518D01*
X3634130Y7939989D01*
X3635044Y7925460D01*
X3637737Y7911185D01*
X3642258Y7897317D01*
X3648456Y7884159D01*
X3656228Y7871866D01*
X3665524Y7860639D01*
X3676142Y7850682D01*
X3687927Y7842148D01*
X3700678Y7835138D01*
X3714191Y7829753D01*
X3728313Y7826146D01*
X3742740Y7824317D01*
X3757269Y7824317D01*
X3771696Y7826146D01*
X3785819Y7829753D01*
X3799332Y7835138D01*
X3812082Y7842148D01*
X3823868Y7850682D01*
X3834485Y7860639D01*
X3843782Y7871866D01*
X3851554Y7884159D01*
X3857751Y7897317D01*
X3862273Y7911185D01*
X3865016Y7925663D01*
X3866540Y7929321D01*
X3869334Y7932166D01*
X3872992Y7933690D01*
X3877005Y7933690D01*
X3880662Y7932166D01*
X3883456Y7929321D01*
X3884980Y7925663D01*
X3887724Y7911185D01*
X3892245Y7897317D01*
X3898442Y7884159D01*
X3906215Y7871866D01*
X3915511Y7860639D01*
X3926128Y7850682D01*
X3937914Y7842148D01*
X3950665Y7835138D01*
X3964178Y7829753D01*
X3978300Y7826146D01*
X3992727Y7824317D01*
X4007256Y7824317D01*
X4021683Y7826146D01*
X4036415Y7830007D01*
X4040276Y7830718D01*
X4044086Y7829956D01*
X4047337Y7827772D01*
X4407357Y7467752D01*
X4411980Y7463942D01*
X4414520Y7460691D01*
X4415586Y7456728D01*
X4415028Y7452664D01*
X4412894Y7449159D01*
X4409490Y7446772D01*
X4405477Y7445959D01*
X2563215Y7445959D01*
X2559354Y7446721D01*
X2556052Y7448905D01*
X2182723Y7822234D01*
X2180437Y7825689D01*
X2179726Y7829753D01*
X2180691Y7833766D01*
X2183180Y7837068D01*
X2186736Y7839100D01*
X2190851Y7839557D01*
X2194814Y7838338D01*
X2198624Y7836204D01*
X2198624Y7888630D01*
X2146300Y7888630D01*
X2148179Y7884668D01*
X2149144Y7880756D01*
X2148484Y7876794D01*
X2146350Y7873339D01*
X2143048Y7871053D01*
X2139137Y7870190D01*
X2135174Y7870952D01*
X2131822Y7873136D01*
X2112111Y7892846D01*
X2110028Y7895894D01*
X2109165Y7899501D01*
X2109622Y7903159D01*
X2112264Y7911185D01*
X2114956Y7925460D01*
X2115870Y7939989D01*
X2114905Y7954924D01*
X2112264Y7968792D01*
X2107742Y7982661D01*
X2101545Y7995818D01*
X2093772Y8008112D01*
X2084476Y8019338D01*
X2079091Y8024368D01*
X2076754Y8027720D01*
X2075891Y8031784D01*
X2075891Y8398814D01*
X2076450Y8402167D01*
X2078126Y8405164D01*
X2080666Y8407400D01*
X2083612Y8409279D01*
X2087676Y8413343D01*
X2090775Y8418271D01*
X2092706Y8423706D01*
X2093417Y8430056D01*
X2093417Y8569909D01*
X2092706Y8576208D01*
X2090775Y8581694D01*
X2087676Y8586571D01*
X2083612Y8590686D01*
X2079548Y8594191D01*
X2077974Y8597950D01*
X2077974Y8602014D01*
X2079548Y8605774D01*
X2083612Y8609279D01*
X2087676Y8613394D01*
X2090775Y8618270D01*
X2092706Y8623757D01*
X2093417Y8630056D01*
X2093417Y8658402D01*
X2040077Y8658402D01*
X2040077Y8606536D01*
X2039315Y8602675D01*
X2037130Y8599373D01*
X2033828Y8597138D01*
X2029917Y8596376D01*
X1970074Y8596376D01*
X1966163Y8597138D01*
X1962861Y8599373D01*
X1960676Y8602675D01*
X1959914Y8606536D01*
X1959914Y8658402D01*
X1906574Y8658402D01*
X1906574Y8630056D01*
X1907286Y8623757D01*
X1909216Y8618270D01*
X1912315Y8613394D01*
X1916379Y8609279D01*
X1920443Y8605774D01*
X1922018Y8602014D01*
X1922018Y8597950D01*
X1920443Y8594191D01*
X1916379Y8590686D01*
X1912315Y8586571D01*
X1909216Y8581694D01*
X1907286Y8576208D01*
X1906574Y8569909D01*
X1906574Y8430056D01*
X1907286Y8423706D01*
X1909216Y8418271D01*
X1912315Y8413343D01*
X1916379Y8409279D01*
X1919325Y8407400D01*
X1921865Y8405164D01*
X1923542Y8402167D01*
X1924100Y8398814D01*
X1924100Y8031784D01*
X1923237Y8027720D01*
X1920900Y8024368D01*
X1915515Y8019338D01*
X1906219Y8008112D01*
X1898446Y7995818D01*
X1892249Y7982661D01*
X1887728Y7968792D01*
X1884984Y7954314D01*
X1883460Y7950657D01*
X1880666Y7947812D01*
X1877009Y7946288D01*
X1872996Y7946288D01*
X1869338Y7947812D01*
X1866544Y7950657D01*
X1865020Y7954314D01*
X1862277Y7968792D01*
X1857756Y7982661D01*
X1851558Y7995818D01*
X1843786Y8008112D01*
X1834489Y8019338D01*
X1823872Y8029295D01*
X1812086Y8037830D01*
X1799336Y8044840D01*
X1785823Y8050225D01*
X1771700Y8053831D01*
X1757273Y8055660D01*
X1742744Y8055660D01*
X1728317Y8053831D01*
X1714195Y8050225D01*
X1700682Y8044840D01*
X1687931Y8037830D01*
X1676146Y8029295D01*
X1665528Y8019338D01*
X1656232Y8008112D01*
X1648460Y7995818D01*
X1642262Y7982661D01*
X1637741Y7968792D01*
X1635048Y7954518D01*
X1634134Y7939989D01*
X1635048Y7925460D01*
X1637741Y7911185D01*
X1642262Y7897317D01*
X1648460Y7884159D01*
X1656232Y7871866D01*
X1665528Y7860639D01*
X1676146Y7850682D01*
X1687931Y7842148D01*
X1700682Y7835138D01*
X1714195Y7829753D01*
X1728317Y7826146D01*
X1742744Y7824317D01*
X1757273Y7824317D01*
X1771700Y7826146D01*
X1785823Y7829753D01*
X1799336Y7835138D01*
X1812086Y7842148D01*
X1823872Y7850682D01*
X1834489Y7860639D01*
X1843786Y7871866D01*
X1851558Y7884159D01*
X1857756Y7897317D01*
X1862277Y7911185D01*
X1865020Y7925663D01*
X1866544Y7929321D01*
X1869338Y7932166D01*
X1872996Y7933690D01*
X1877009Y7933690D01*
X1880666Y7932166D01*
X1883460Y7929321D01*
X1884984Y7925663D01*
X1887728Y7911185D01*
X1892249Y7897317D01*
X1898446Y7884159D01*
X1906219Y7871866D01*
X1915515Y7860639D01*
X1926132Y7850682D01*
X1937918Y7842148D01*
X1950669Y7835138D01*
X1964182Y7829753D01*
X1978304Y7826146D01*
X1992731Y7824317D01*
X2007260Y7824317D01*
X2021687Y7826146D01*
X2036419Y7830007D01*
X2040280Y7830718D01*
X2044141Y7829956D01*
X2047341Y7827772D01*
X2508808Y7366355D01*
X2515870Y7361021D01*
X2523439Y7357262D01*
X2531567Y7354976D01*
X2540457Y7354112D01*
X7976768Y7354112D01*
X7980629Y7353350D01*
X7983931Y7351166D01*
X8104327Y7230770D01*
X8106562Y7227468D01*
X8107324Y7223556D01*
X8106562Y7219696D01*
X8104327Y7216394D01*
X8101025Y7214158D01*
X8097164Y7213396D01*
X2665730Y7213346D01*
X2656992Y7212126D01*
X2648966Y7209434D01*
X2641600Y7205319D01*
X2634742Y7199630D01*
X1966315Y6531152D01*
X1960981Y6524142D01*
X1957222Y6516573D01*
X1954936Y6508394D01*
X1954072Y6499504D01*
X1954072Y5552744D01*
X1953463Y5549239D01*
X1951634Y5546140D01*
X1948840Y5543854D01*
X1937918Y5537860D01*
X1926132Y5529275D01*
X1915515Y5519318D01*
X1906219Y5508091D01*
X1898446Y5495848D01*
X1892249Y5482640D01*
X1887728Y5468823D01*
X1884984Y5454345D01*
X1883460Y5450636D01*
X1880666Y5447792D01*
X1877009Y5446268D01*
X1872996Y5446268D01*
X1869338Y5447792D01*
X1866544Y5450636D01*
X1865020Y5454345D01*
X1862277Y5468823D01*
X1857756Y5482640D01*
X1851558Y5495848D01*
X1843786Y5508091D01*
X1834489Y5519318D01*
X1823872Y5529275D01*
X1812086Y5537860D01*
X1799336Y5544870D01*
X1785823Y5550204D01*
X1771700Y5553811D01*
X1757273Y5555640D01*
X1742744Y5555640D01*
X1728317Y5553811D01*
X1714195Y5550204D01*
X1700682Y5544870D01*
X1687931Y5537860D01*
X1676146Y5529275D01*
X1665528Y5519318D01*
X1656232Y5508091D01*
X1648460Y5495848D01*
X1642262Y5482640D01*
X1637741Y5468823D01*
X1635048Y5454497D01*
X1634134Y5439968D01*
X1635048Y5425490D01*
X1637741Y5411165D01*
X1642262Y5397347D01*
X1648460Y5384139D01*
X1656232Y5371896D01*
X1665528Y5360670D01*
X1676146Y5350713D01*
X1687931Y5342128D01*
X1700682Y5335117D01*
X1714195Y5329783D01*
X1728317Y5326176D01*
X1742744Y5324348D01*
X1757273Y5324348D01*
X1771700Y5326176D01*
X1785823Y5329783D01*
X1799336Y5335117D01*
X1812086Y5342128D01*
X1823872Y5350713D01*
X1834489Y5360670D01*
X1843786Y5371896D01*
X1851558Y5384139D01*
X1857756Y5397347D01*
X1862277Y5411165D01*
X1865020Y5425643D01*
X1866544Y5429351D01*
X1869338Y5432196D01*
X1872996Y5433720D01*
X1877009Y5433720D01*
X1880666Y5432196D01*
X1883460Y5429351D01*
X1884984Y5425643D01*
X1887728Y5411165D01*
X1892249Y5397347D01*
X1898446Y5384139D01*
X1906219Y5371896D01*
X1915515Y5360670D01*
X1920900Y5355640D01*
X1923237Y5352237D01*
X1924100Y5348224D01*
X1924100Y5201158D01*
X1923542Y5197805D01*
X1921865Y5194808D01*
X1919325Y5192572D01*
X1916379Y5190693D01*
X1912315Y5186629D01*
X1909216Y5181701D01*
X1907286Y5176266D01*
X1906574Y5169916D01*
X1906574Y5030063D01*
X1907286Y5023764D01*
X1909216Y5018278D01*
X1912315Y5013401D01*
X1916379Y5009286D01*
X1920443Y5005781D01*
X1922018Y5002022D01*
X1922018Y4997958D01*
X1920443Y4994198D01*
X1916379Y4990693D01*
X1912315Y4986578D01*
X1909216Y4981702D01*
X1907286Y4976215D01*
X1906574Y4969916D01*
X1906574Y4941570D01*
X1959914Y4941570D01*
X1959914Y4993436D01*
X1960676Y4997297D01*
X1962861Y5000599D01*
X1966163Y5002834D01*
X1970074Y5003596D01*
X2029917Y5003596D01*
X2033828Y5002834D01*
X2037130Y5000599D01*
X2039315Y4997297D01*
X2040077Y4993436D01*
X2040077Y4941570D01*
X2093417Y4941570D01*
X2093417Y4969916D01*
X2092706Y4976215D01*
X2090775Y4981702D01*
X2087676Y4986578D01*
X2083612Y4990693D01*
X2079548Y4994198D01*
X2077974Y4997958D01*
X2077974Y5002022D01*
X2079548Y5005781D01*
X2083612Y5009286D01*
X2087676Y5013401D01*
X2090775Y5018278D01*
X2092706Y5023764D01*
X2093417Y5030063D01*
X2093417Y5169916D01*
X2092706Y5176266D01*
X2090775Y5181701D01*
X2087676Y5186629D01*
X2083612Y5190693D01*
X2080666Y5192572D01*
X2078126Y5194808D01*
X2076450Y5197805D01*
X2075891Y5201158D01*
X2075891Y5348224D01*
X2076754Y5352237D01*
X2079091Y5355640D01*
X2084476Y5360670D01*
X2093772Y5371896D01*
X2101545Y5384139D01*
X2107742Y5397347D01*
X2112264Y5411165D01*
X2114956Y5425490D01*
X2115870Y5439968D01*
X2114905Y5454954D01*
X2112264Y5468823D01*
X2107742Y5482640D01*
X2101545Y5495848D01*
X2093772Y5508091D01*
X2084476Y5519318D01*
X2073859Y5529275D01*
X2062073Y5537860D01*
X2051151Y5543854D01*
X2048357Y5546090D01*
X2046528Y5549188D01*
X2045919Y5552744D01*
X2045919Y6476746D01*
X2046681Y6480657D01*
X2048865Y6483959D01*
X2683560Y7118603D01*
X2686862Y7120839D01*
X2690723Y7121601D01*
X4532274Y7121601D01*
X4536186Y7120839D01*
X4539437Y7118603D01*
X4541672Y7115302D01*
X4542434Y7111441D01*
X4541672Y7107529D01*
X4539437Y7104227D01*
X3966311Y6531051D01*
X3960977Y6523990D01*
X3957218Y6516420D01*
X3954932Y6508292D01*
X3954068Y6499402D01*
X3954068Y5552744D01*
X3953459Y5549188D01*
X3951630Y5546140D01*
X3948836Y5543854D01*
X3937914Y5537860D01*
X3926128Y5529275D01*
X3915511Y5519318D01*
X3906215Y5508091D01*
X3898442Y5495848D01*
X3892245Y5482640D01*
X3887724Y5468823D01*
X3884980Y5454345D01*
X3883456Y5450636D01*
X3880662Y5447792D01*
X3877005Y5446268D01*
X3872992Y5446268D01*
X3869334Y5447792D01*
X3866540Y5450636D01*
X3865016Y5454345D01*
X3862273Y5468823D01*
X3857751Y5482640D01*
X3851554Y5495848D01*
X3843782Y5508091D01*
X3834485Y5519318D01*
X3823868Y5529275D01*
X3812082Y5537860D01*
X3799332Y5544870D01*
X3785819Y5550204D01*
X3771696Y5553811D01*
X3757269Y5555640D01*
X3742740Y5555640D01*
X3728313Y5553811D01*
X3714191Y5550204D01*
X3700678Y5544870D01*
X3687927Y5537860D01*
X3676142Y5529275D01*
X3665524Y5519318D01*
X3656228Y5508091D01*
X3648456Y5495848D01*
X3642258Y5482640D01*
X3637737Y5468823D01*
X3635044Y5454497D01*
X3634130Y5439968D01*
X3635044Y5425490D01*
X3637737Y5411165D01*
X3642258Y5397347D01*
X3648456Y5384139D01*
X3656228Y5371896D01*
X3665524Y5360670D01*
X3676142Y5350713D01*
X3687927Y5342128D01*
X3700678Y5335117D01*
X3714191Y5329783D01*
X3728313Y5326176D01*
X3742740Y5324348D01*
X3757269Y5324348D01*
X3771696Y5326176D01*
X3785819Y5329783D01*
X3799332Y5335117D01*
X3812082Y5342128D01*
X3823868Y5350713D01*
X3834485Y5360670D01*
X3843782Y5371896D01*
X3851554Y5384139D01*
X3857751Y5397347D01*
X3862273Y5411165D01*
X3865016Y5425643D01*
X3866540Y5429351D01*
X3869334Y5432196D01*
X3872992Y5433720D01*
X3877005Y5433720D01*
X3880662Y5432196D01*
X3883456Y5429351D01*
X3884980Y5425643D01*
X3887724Y5411165D01*
X3892245Y5397347D01*
X3898442Y5384139D01*
X3906215Y5371896D01*
X3915511Y5360670D01*
X3920896Y5355640D01*
X3923233Y5352237D01*
X3924096Y5348224D01*
X3924096Y5201158D01*
X3923537Y5197805D01*
X3921861Y5194808D01*
X3919321Y5192572D01*
X3916375Y5190693D01*
X3912311Y5186629D01*
X3909212Y5181701D01*
X3907282Y5176266D01*
X3906570Y5169916D01*
X3906570Y5030063D01*
X3907282Y5023764D01*
X3909212Y5018278D01*
X3912311Y5013401D01*
X3916375Y5009286D01*
X3920439Y5005781D01*
X3922014Y5002022D01*
X3922014Y4997958D01*
X3920439Y4994198D01*
X3916375Y4990693D01*
X3912311Y4986578D01*
X3909212Y4981702D01*
X3907282Y4976215D01*
X3906570Y4969916D01*
X3906570Y4941570D01*
X3959910Y4941570D01*
X3959910Y4993436D01*
X3960672Y4997297D01*
X3962857Y5000599D01*
X3966159Y5002834D01*
X3970070Y5003596D01*
X4029913Y5003596D01*
X4033824Y5002834D01*
X4037126Y5000599D01*
X4039311Y4997297D01*
X4040073Y4993436D01*
X4040073Y4941570D01*
X4093413Y4941570D01*
X4093413Y4969916D01*
X4092701Y4976215D01*
X4090771Y4981702D01*
X4087672Y4986578D01*
X4083608Y4990693D01*
X4079544Y4994198D01*
X4077970Y4997958D01*
X4077970Y5002022D01*
X4079544Y5005781D01*
X4083608Y5009286D01*
X4087672Y5013401D01*
X4090771Y5018278D01*
X4092701Y5023764D01*
X4093413Y5030063D01*
X4093413Y5169916D01*
X4092701Y5176266D01*
X4090771Y5181701D01*
X4087672Y5186629D01*
X4083608Y5190693D01*
X4080662Y5192572D01*
X4078122Y5194808D01*
X4076446Y5197805D01*
X4075887Y5201158D01*
X4075887Y5348224D01*
X4076750Y5352237D01*
X4079087Y5355640D01*
X4084472Y5360670D01*
X4093768Y5371896D01*
X4101541Y5384139D01*
X4107738Y5397347D01*
X4112260Y5411165D01*
X4114952Y5425490D01*
X4115866Y5439968D01*
X4114901Y5454954D01*
X4112260Y5468823D01*
X4107738Y5482640D01*
X4101541Y5495848D01*
X4093768Y5508091D01*
X4084472Y5519318D01*
X4073855Y5529275D01*
X4062069Y5537860D01*
X4051147Y5543854D01*
X4048353Y5546140D01*
X4046524Y5549188D01*
X4045915Y5552744D01*
X4045915Y6476644D01*
X4046677Y6480505D01*
X4048861Y6483807D01*
X4618634Y7053580D01*
X4621936Y7055815D01*
X4625848Y7056577D01*
X6167120Y7056577D01*
X6171031Y7055815D01*
X6174282Y7053580D01*
X6176518Y7050278D01*
X6177280Y7046417D01*
X6176518Y7042505D01*
X6174282Y7039203D01*
X5966307Y6831177D01*
X5960973Y6824116D01*
X5957214Y6816547D01*
X5954928Y6808419D01*
X5954064Y6799529D01*
X5954064Y5552744D01*
X5953455Y5549239D01*
X5951626Y5546140D01*
X5948832Y5543854D01*
X5937910Y5537860D01*
X5926124Y5529275D01*
X5915507Y5519318D01*
X5906211Y5508091D01*
X5898438Y5495848D01*
X5892241Y5482640D01*
X5887720Y5468823D01*
X5884976Y5454345D01*
X5883452Y5450636D01*
X5880658Y5447792D01*
X5877001Y5446268D01*
X5872988Y5446268D01*
X5869330Y5447792D01*
X5866536Y5450636D01*
X5865012Y5454345D01*
X5862269Y5468823D01*
X5857748Y5482640D01*
X5851550Y5495848D01*
X5843778Y5508091D01*
X5834481Y5519318D01*
X5823864Y5529275D01*
X5812078Y5537860D01*
X5799328Y5544870D01*
X5785815Y5550204D01*
X5771692Y5553811D01*
X5757265Y5555640D01*
X5742736Y5555640D01*
X5728309Y5553811D01*
X5714187Y5550204D01*
X5700674Y5544870D01*
X5687923Y5537860D01*
X5676138Y5529275D01*
X5665520Y5519318D01*
X5656224Y5508091D01*
X5648452Y5495848D01*
X5642254Y5482640D01*
X5637733Y5468823D01*
X5635040Y5454497D01*
X5634126Y5439968D01*
X5635040Y5425490D01*
X5637733Y5411165D01*
X5642254Y5397347D01*
X5648452Y5384139D01*
X5656224Y5371896D01*
X5665520Y5360670D01*
X5676138Y5350713D01*
X5687923Y5342128D01*
X5700674Y5335117D01*
X5714187Y5329783D01*
X5728309Y5326176D01*
X5742736Y5324348D01*
X5757265Y5324348D01*
X5771692Y5326176D01*
X5785815Y5329783D01*
X5799328Y5335117D01*
X5812078Y5342128D01*
X5823864Y5350713D01*
X5834481Y5360670D01*
X5843778Y5371896D01*
X5851550Y5384139D01*
X5857748Y5397347D01*
X5862269Y5411165D01*
X5865012Y5425643D01*
X5866536Y5429351D01*
X5869330Y5432196D01*
X5872988Y5433720D01*
X5877001Y5433720D01*
X5880658Y5432196D01*
X5883452Y5429351D01*
X5884976Y5425643D01*
X5887720Y5411165D01*
X5892241Y5397347D01*
X5898438Y5384139D01*
X5906211Y5371896D01*
X5915507Y5360670D01*
X5920892Y5355640D01*
X5923229Y5352237D01*
X5924092Y5348224D01*
X5924092Y5201158D01*
X5923534Y5197805D01*
X5921857Y5194808D01*
X5919317Y5192572D01*
X5916371Y5190693D01*
X5912307Y5186629D01*
X5909208Y5181701D01*
X5907278Y5176266D01*
X5906566Y5169916D01*
X5906566Y5030063D01*
X5907278Y5023764D01*
X5909208Y5018278D01*
X5912307Y5013401D01*
X5916371Y5009286D01*
X5920435Y5005781D01*
X5922010Y5002022D01*
X5922010Y4997958D01*
X5920435Y4994198D01*
X5916371Y4990693D01*
X5912307Y4986578D01*
X5909208Y4981702D01*
X5907278Y4976215D01*
X5906566Y4969916D01*
X5906566Y4941570D01*
X5959906Y4941570D01*
X5959906Y4993436D01*
X5960668Y4997297D01*
X5962853Y5000599D01*
X5966155Y5002834D01*
X5970066Y5003596D01*
X6029909Y5003596D01*
X6033820Y5002834D01*
X6037122Y5000599D01*
X6039307Y4997297D01*
X6040069Y4993436D01*
X6040069Y4941570D01*
X6093409Y4941570D01*
X6093409Y4969916D01*
X6092698Y4976215D01*
X6090767Y4981702D01*
X6087668Y4986578D01*
X6083604Y4990693D01*
X6079540Y4994198D01*
X6077966Y4997958D01*
X6077966Y5002022D01*
X6079540Y5005781D01*
X6083604Y5009286D01*
X6087668Y5013401D01*
X6090767Y5018278D01*
X6092698Y5023764D01*
X6093409Y5030063D01*
X6093409Y5169916D01*
X6092698Y5176266D01*
X6090767Y5181701D01*
X6087668Y5186629D01*
X6083604Y5190693D01*
X6080658Y5192572D01*
X6078118Y5194808D01*
X6076442Y5197805D01*
X6075883Y5201158D01*
X6075883Y5348224D01*
X6076746Y5352237D01*
X6079083Y5355640D01*
X6084468Y5360670D01*
X6093764Y5371896D01*
X6101537Y5384139D01*
X6107734Y5397347D01*
X6112256Y5411165D01*
X6114948Y5425490D01*
X6115862Y5439968D01*
X6114897Y5454954D01*
X6112256Y5468823D01*
X6107734Y5482640D01*
X6101537Y5495848D01*
X6093764Y5508091D01*
X6084468Y5519318D01*
X6073851Y5529275D01*
X6062065Y5537860D01*
X6051143Y5543854D01*
X6048349Y5546090D01*
X6046520Y5549188D01*
X6045911Y5552744D01*
X6045911Y6776770D01*
X6046673Y6780631D01*
X6048857Y6783933D01*
X6253530Y6988606D01*
X6256832Y6990791D01*
X6260693Y6991553D01*
X8302091Y6991553D01*
X8306003Y6990791D01*
X8309305Y6988606D01*
X8311489Y6985304D01*
X8312251Y6981393D01*
X8311489Y6977532D01*
X8309305Y6974230D01*
X7966303Y6631178D01*
X7960969Y6624116D01*
X7957210Y6616547D01*
X7954924Y6608419D01*
X7954060Y6599529D01*
X7954060Y5552744D01*
X7953451Y5549188D01*
X7951622Y5546140D01*
X7948828Y5543854D01*
X7937906Y5537860D01*
X7926120Y5529275D01*
X7915503Y5519318D01*
X7906207Y5508091D01*
X7898434Y5495848D01*
X7892237Y5482640D01*
X7887716Y5468823D01*
X7884972Y5454345D01*
X7883448Y5450636D01*
X7880654Y5447792D01*
X7876997Y5446268D01*
X7872984Y5446268D01*
X7869326Y5447792D01*
X7866532Y5450636D01*
X7865008Y5454345D01*
X7862265Y5468823D01*
X7857744Y5482640D01*
X7851546Y5495848D01*
X7843774Y5508091D01*
X7834477Y5519318D01*
X7823860Y5529275D01*
X7812074Y5537860D01*
X7799324Y5544870D01*
X7785811Y5550204D01*
X7771688Y5553811D01*
X7757261Y5555640D01*
X7742732Y5555640D01*
X7728305Y5553811D01*
X7714183Y5550204D01*
X7700670Y5544870D01*
X7687919Y5537860D01*
X7676134Y5529275D01*
X7665516Y5519318D01*
X7656220Y5508091D01*
X7648448Y5495848D01*
X7642250Y5482640D01*
X7637729Y5468823D01*
X7635036Y5454497D01*
X7634122Y5439968D01*
X7635036Y5425490D01*
X7637729Y5411165D01*
X7642250Y5397347D01*
X7648448Y5384139D01*
X7656220Y5371896D01*
X7665516Y5360670D01*
X7676134Y5350713D01*
X7687919Y5342128D01*
X7700670Y5335117D01*
X7714183Y5329783D01*
X7728305Y5326176D01*
X7742732Y5324348D01*
X7757261Y5324348D01*
X7771688Y5326176D01*
X7785811Y5329783D01*
X7799324Y5335117D01*
X7812074Y5342128D01*
X7823860Y5350713D01*
X7834477Y5360670D01*
X7843774Y5371896D01*
X7851546Y5384139D01*
X7857744Y5397347D01*
X7862265Y5411165D01*
X7865008Y5425643D01*
X7866532Y5429351D01*
X7869326Y5432196D01*
X7872984Y5433720D01*
X7876997Y5433720D01*
X7880654Y5432196D01*
X7883448Y5429351D01*
X7884972Y5425643D01*
X7887716Y5411165D01*
X7892237Y5397347D01*
X7898434Y5384139D01*
X7906207Y5371896D01*
X7915503Y5360670D01*
X7920888Y5355640D01*
X7923225Y5352237D01*
X7924088Y5348224D01*
X7924088Y5201158D01*
X7923530Y5197805D01*
X7921853Y5194808D01*
X7919313Y5192572D01*
X7916367Y5190693D01*
X7912303Y5186629D01*
X7909204Y5181701D01*
X7907274Y5176266D01*
X7906562Y5169916D01*
X7906562Y5030063D01*
X7907274Y5023764D01*
X7909204Y5018278D01*
X7912303Y5013401D01*
X7916367Y5009286D01*
X7920431Y5005781D01*
X7922006Y5002022D01*
X7922006Y4997958D01*
X7920431Y4994198D01*
X7916367Y4990693D01*
X7912303Y4986578D01*
X7909204Y4981702D01*
X7907274Y4976215D01*
X7906562Y4969916D01*
X7906562Y4941570D01*
X7959902Y4941570D01*
X7959902Y4993436D01*
X7960664Y4997297D01*
X7962849Y5000599D01*
X7966151Y5002834D01*
X7970062Y5003596D01*
X8029905Y5003596D01*
X8033816Y5002834D01*
X8037118Y5000599D01*
X8039303Y4997297D01*
X8040065Y4993436D01*
X8040065Y4941570D01*
X8093405Y4941570D01*
X8093405Y4969916D01*
X8092694Y4976215D01*
X8090763Y4981702D01*
X8087664Y4986578D01*
X8083600Y4990693D01*
X8079536Y4994198D01*
X8077962Y4997958D01*
X8077962Y5002022D01*
X8079536Y5005781D01*
X8083600Y5009286D01*
X8087664Y5013401D01*
X8090763Y5018278D01*
X8092694Y5023764D01*
X8093405Y5030063D01*
X8093405Y5169916D01*
X8092694Y5176266D01*
X8090763Y5181701D01*
X8087664Y5186629D01*
X8083600Y5190693D01*
X8080654Y5192572D01*
X8078114Y5194808D01*
X8076438Y5197805D01*
X8075879Y5201158D01*
X8075879Y5348224D01*
X8076742Y5352237D01*
X8079079Y5355640D01*
X8084464Y5360670D01*
X8093760Y5371896D01*
X8101533Y5384139D01*
X8107730Y5397347D01*
X8112252Y5411165D01*
X8114944Y5425490D01*
X8115858Y5439968D01*
X8114893Y5454954D01*
X8112252Y5468823D01*
X8107730Y5482640D01*
X8101533Y5495848D01*
X8093760Y5508091D01*
X8084464Y5519318D01*
X8073847Y5529275D01*
X8062061Y5537860D01*
X8051139Y5543854D01*
X8048345Y5546140D01*
X8046516Y5549188D01*
X8045907Y5552744D01*
X8045907Y6576771D01*
X8046669Y6580631D01*
X8048853Y6583934D01*
X8388502Y6923582D01*
X8391804Y6925818D01*
X8395716Y6926580D01*
X8512962Y6926580D01*
X8521852Y6927392D01*
X8527643Y6929018D01*
X8530386Y6929424D01*
X8582355Y6929424D01*
X8590737Y6930186D01*
X8595766Y6931609D01*
X8599627Y6931964D01*
X8603335Y6930796D01*
X8606332Y6928358D01*
X8608212Y6924954D01*
X8608669Y6921093D01*
X8604910Y6908342D01*
X8604046Y6899452D01*
X8604097Y6548120D01*
X8605316Y6539382D01*
X8608009Y6531356D01*
X8612124Y6523990D01*
X8617864Y6517081D01*
X8851036Y6283909D01*
X8853220Y6280607D01*
X8853982Y6276746D01*
X8854033Y5398262D01*
X8855252Y5389524D01*
X8857945Y5381498D01*
X8862060Y5374132D01*
X8867800Y5367223D01*
X8951112Y5283911D01*
X8953296Y5280609D01*
X8954058Y5276748D01*
X8954109Y4498390D01*
X8955328Y4489653D01*
X8958021Y4481626D01*
X8962136Y4474210D01*
X8967825Y4467352D01*
X9183522Y4251452D01*
X9185706Y4248150D01*
X9186468Y4244238D01*
X9186468Y3708247D01*
X9185503Y3703929D01*
X9182811Y3700424D01*
X9178899Y3698443D01*
X9174480Y3698290D01*
X9171432Y3698849D01*
X9163507Y3698849D01*
X9155734Y3697376D01*
X9148368Y3694531D01*
X9140444Y3689502D01*
X9136888Y3688079D01*
X9133078Y3688079D01*
X9129522Y3689502D01*
X9121597Y3694531D01*
X9117431Y3696157D01*
X9117431Y3635705D01*
X9121089Y3633622D01*
X9123527Y3630168D01*
X9124442Y3626053D01*
X9124442Y3603548D01*
X9124035Y3600805D01*
X9122410Y3594963D01*
X9121546Y3586073D01*
X9121546Y3547110D01*
X9121089Y3543960D01*
X9119616Y3541166D01*
X9117431Y3538931D01*
X9117431Y3473094D01*
X9119616Y3470859D01*
X9121089Y3468065D01*
X9121546Y3464915D01*
X9121546Y3335477D01*
X9121089Y3332429D01*
X9118650Y3328162D01*
X9114536Y3319272D01*
X9111996Y3309772D01*
X9111132Y3299968D01*
X9111996Y3290214D01*
X9114536Y3280714D01*
X9118650Y3271824D01*
X9124289Y3263747D01*
X9131249Y3256838D01*
X9139275Y3251200D01*
X9148216Y3247034D01*
X9157665Y3244494D01*
X9167469Y3243630D01*
X9177274Y3244494D01*
X9186722Y3247034D01*
X9195663Y3251200D01*
X9203690Y3256838D01*
X9210649Y3263747D01*
X9216288Y3271824D01*
X9220403Y3280714D01*
X9222943Y3290214D01*
X9223806Y3299968D01*
X9222943Y3309772D01*
X9220403Y3319272D01*
X9216288Y3328162D01*
X9213850Y3332429D01*
X9213392Y3335477D01*
X9213392Y3464915D01*
X9214358Y3469233D01*
X9217050Y3472738D01*
X9220962Y3474770D01*
X9225381Y3474923D01*
X9228531Y3474313D01*
X9236456Y3474313D01*
X9244228Y3475786D01*
X9251594Y3478631D01*
X9259519Y3483660D01*
X9263075Y3485083D01*
X9266885Y3485083D01*
X9270441Y3483660D01*
X9278366Y3478631D01*
X9285732Y3475786D01*
X9293504Y3474313D01*
X9301429Y3474313D01*
X9309252Y3475786D01*
X9316618Y3478631D01*
X9324543Y3483660D01*
X9328099Y3485083D01*
X9331858Y3485083D01*
X9335414Y3483660D01*
X9343339Y3478631D01*
X9350705Y3475786D01*
X9358528Y3474313D01*
X9363913Y3474313D01*
X9367824Y3473551D01*
X9371076Y3471367D01*
X9373311Y3468065D01*
X9374073Y3464153D01*
X9374073Y3450285D01*
X9374733Y3444240D01*
X9376664Y3438753D01*
X9379762Y3433826D01*
X9381845Y3431489D01*
X9522917Y3290417D01*
X9524746Y3287979D01*
X9525762Y3285083D01*
X9526625Y3280308D01*
X9530384Y3269640D01*
X9535668Y3259582D01*
X9542424Y3250488D01*
X9550450Y3242462D01*
X9559544Y3235706D01*
X9569602Y3230422D01*
X9580321Y3226663D01*
X9591446Y3224580D01*
G37*
G36*
X5340807Y8757818D02*
G01*
X5442153Y8757818D01*
X5442153Y8858961D01*
X5429250Y8851798D01*
X5411012Y8839403D01*
X5393994Y8825433D01*
X5378246Y8810040D01*
X5363921Y8793327D01*
X5351119Y8775395D01*
G37*
G36*
X1677822Y3420922D02*
G01*
X1681225Y3422650D01*
X1699971Y3434181D01*
X1717649Y3447389D01*
X1734007Y3462070D01*
X1749094Y3478123D01*
X1762658Y3495497D01*
X1774596Y3513937D01*
X1778965Y3522167D01*
X1677822Y3522167D01*
G37*
G36*
X4557826Y3420922D02*
G01*
X4561230Y3422650D01*
X4579975Y3434181D01*
X4597654Y3447389D01*
X4614011Y3462070D01*
X4629099Y3478123D01*
X4642662Y3495497D01*
X4654600Y3513937D01*
X4658969Y3522167D01*
X4557826Y3522167D01*
G37*
G36*
X3677818Y3420922D02*
G01*
X3681222Y3422650D01*
X3699967Y3434181D01*
X3717645Y3447389D01*
X3734003Y3462070D01*
X3749090Y3478123D01*
X3762654Y3495497D01*
X3774592Y3513937D01*
X3778961Y3522167D01*
X3677818Y3522167D01*
G37*
G36*
X8557818Y3420922D02*
G01*
X8561222Y3422650D01*
X8579967Y3434181D01*
X8597646Y3447389D01*
X8614003Y3462070D01*
X8629091Y3478123D01*
X8642654Y3495497D01*
X8654592Y3513937D01*
X8658961Y3522167D01*
X8557818Y3522167D01*
G37*
G36*
X6557822Y3420922D02*
G01*
X6561226Y3422650D01*
X6579971Y3434181D01*
X6597650Y3447389D01*
X6614007Y3462070D01*
X6629095Y3478123D01*
X6642658Y3495497D01*
X6654596Y3513937D01*
X6658965Y3522167D01*
X6557822Y3522167D01*
G37*
G36*
X5677814Y3420922D02*
G01*
X5681218Y3422650D01*
X5699963Y3434181D01*
X5717641Y3447389D01*
X5733999Y3462070D01*
X5749086Y3478123D01*
X5762650Y3495497D01*
X5774588Y3513937D01*
X5778957Y3522167D01*
X5677814Y3522167D01*
G37*
G36*
X2557830Y3420922D02*
G01*
X2561234Y3422650D01*
X2579979Y3434181D01*
X2597658Y3447389D01*
X2614015Y3462070D01*
X2629103Y3478123D01*
X2642666Y3495497D01*
X2654604Y3513937D01*
X2658973Y3522167D01*
X2557830Y3522167D01*
G37*
G36*
X7677810Y3420922D02*
G01*
X7681214Y3422650D01*
X7699959Y3434181D01*
X7717637Y3447389D01*
X7733995Y3462070D01*
X7749082Y3478123D01*
X7762646Y3495497D01*
X7774584Y3513937D01*
X7778953Y3522167D01*
X7677810Y3522167D01*
G37*
G36*
X1442161Y3421024D02*
G01*
X1442161Y3522167D01*
X1340815Y3522167D01*
X1351127Y3504590D01*
X1363929Y3486658D01*
X1378254Y3469944D01*
X1394002Y3454552D01*
X1411020Y3440582D01*
X1429258Y3428187D01*
G37*
G36*
X4322165Y3421024D02*
G01*
X4322165Y3522167D01*
X4220819Y3522167D01*
X4231132Y3504590D01*
X4243933Y3486658D01*
X4258259Y3469944D01*
X4274007Y3454552D01*
X4291025Y3440582D01*
X4309262Y3428187D01*
G37*
G36*
X7442149Y3421024D02*
G01*
X7442149Y3522167D01*
X7340803Y3522167D01*
X7351115Y3504590D01*
X7363917Y3486658D01*
X7378242Y3469944D01*
X7393990Y3454552D01*
X7411008Y3440582D01*
X7429246Y3428187D01*
G37*
G36*
X6322161Y3421024D02*
G01*
X6322161Y3522167D01*
X6220815Y3522167D01*
X6231128Y3504590D01*
X6243929Y3486658D01*
X6258255Y3469944D01*
X6274003Y3454552D01*
X6291021Y3440582D01*
X6309258Y3428187D01*
G37*
G36*
X3442157Y3421024D02*
G01*
X3442157Y3522167D01*
X3340811Y3522167D01*
X3351123Y3504590D01*
X3363925Y3486658D01*
X3378250Y3469944D01*
X3393998Y3454552D01*
X3411016Y3440582D01*
X3429254Y3428187D01*
G37*
G36*
X8322157Y3421024D02*
G01*
X8322157Y3522167D01*
X8220811Y3522167D01*
X8231124Y3504590D01*
X8243925Y3486658D01*
X8258251Y3469944D01*
X8273999Y3454552D01*
X8291017Y3440582D01*
X8309254Y3428187D01*
G37*
G36*
X5442153Y3421024D02*
G01*
X5442153Y3522167D01*
X5340807Y3522167D01*
X5351119Y3504590D01*
X5363921Y3486658D01*
X5378246Y3469944D01*
X5393994Y3454552D01*
X5411012Y3440582D01*
X5429250Y3428187D01*
G37*
G36*
X2322169Y3421024D02*
G01*
X2322169Y3522167D01*
X2220823Y3522167D01*
X2231136Y3504590D01*
X2243937Y3486658D01*
X2258263Y3469944D01*
X2274011Y3454552D01*
X2291029Y3440582D01*
X2309266Y3428187D01*
G37*
G36*
X9033510Y3474313D02*
G01*
X9041434Y3474313D01*
X9049258Y3475786D01*
X9056624Y3478631D01*
X9064548Y3483660D01*
X9068104Y3485083D01*
X9071864Y3485083D01*
X9075420Y3483660D01*
X9083344Y3478631D01*
X9087561Y3477006D01*
X9087561Y3537458D01*
X9083903Y3539540D01*
X9081414Y3542995D01*
X9080550Y3547110D01*
X9080550Y3626053D01*
X9081414Y3630168D01*
X9083903Y3633622D01*
X9087561Y3635705D01*
X9087561Y3696157D01*
X9083344Y3694531D01*
X9075420Y3689502D01*
X9071864Y3688079D01*
X9068104Y3688079D01*
X9064548Y3689502D01*
X9056624Y3694531D01*
X9049258Y3697376D01*
X9041434Y3698849D01*
X9033510Y3698849D01*
X9025686Y3697376D01*
X9018371Y3694531D01*
X9010396Y3689502D01*
X9006890Y3688079D01*
X9003080Y3688079D01*
X8999524Y3689502D01*
X8991600Y3694531D01*
X8987383Y3696157D01*
X8987383Y3635705D01*
X8991041Y3633622D01*
X8993530Y3630168D01*
X8994444Y3626053D01*
X8994444Y3547110D01*
X8993530Y3542995D01*
X8991092Y3539540D01*
X8987434Y3537458D01*
X8987536Y3477056D01*
X8991600Y3478631D01*
X8999524Y3483660D01*
X9003080Y3485083D01*
X9006890Y3485083D01*
X9010396Y3483660D01*
X9018371Y3478631D01*
X9025686Y3475786D01*
G37*
G36*
X8957564Y3477006D02*
G01*
X8957564Y3536950D01*
X8929420Y3536950D01*
X8929420Y3517646D01*
X8930182Y3509264D01*
X8932367Y3501593D01*
X8935923Y3494532D01*
X8940698Y3488182D01*
X8946540Y3482848D01*
X8953296Y3478631D01*
G37*
G36*
X4220819Y8757818D02*
G01*
X4322165Y8757818D01*
X4322165Y8858961D01*
X4309262Y8851798D01*
X4291025Y8839403D01*
X4274007Y8825433D01*
X4258259Y8810040D01*
X4243933Y8793327D01*
X4231132Y8775395D01*
G37*
G36*
X8220811Y8757818D02*
G01*
X8322157Y8757818D01*
X8322157Y8858961D01*
X8309254Y8851798D01*
X8291017Y8839403D01*
X8273999Y8825433D01*
X8258251Y8810040D01*
X8243925Y8793327D01*
X8231124Y8775395D01*
G37*
G36*
X6220815Y8757818D02*
G01*
X6322161Y8757818D01*
X6322161Y8858961D01*
X6309258Y8851798D01*
X6291021Y8839403D01*
X6274003Y8825433D01*
X6258255Y8810040D01*
X6243929Y8793327D01*
X6231128Y8775395D01*
G37*
G36*
X8929420Y3636213D02*
G01*
X8957564Y3636213D01*
X8957564Y3696157D01*
X8953296Y3694531D01*
X8946540Y3690315D01*
X8940698Y3684981D01*
X8935923Y3678631D01*
X8932367Y3671570D01*
X8930182Y3663899D01*
X8929420Y3655517D01*
G37*
G36*
X7340803Y8757818D02*
G01*
X7442149Y8757818D01*
X7442149Y8858961D01*
X7429246Y8851798D01*
X7411008Y8839403D01*
X7393990Y8825433D01*
X7378242Y8810040D01*
X7363917Y8793327D01*
X7351115Y8775395D01*
G37*
G36*
X1677822Y3757828D02*
G01*
X1778965Y3757828D01*
X1774596Y3766007D01*
X1762658Y3784498D01*
X1749094Y3801872D01*
X1734007Y3817924D01*
X1717649Y3832606D01*
X1699971Y3845814D01*
X1681225Y3857345D01*
X1677822Y3859072D01*
G37*
G36*
X7677810Y3757828D02*
G01*
X7778953Y3757828D01*
X7774584Y3766007D01*
X7762646Y3784498D01*
X7749082Y3801872D01*
X7733995Y3817924D01*
X7717637Y3832606D01*
X7699959Y3845814D01*
X7681214Y3857345D01*
X7677810Y3859072D01*
G37*
G36*
X6557822Y3757828D02*
G01*
X6658965Y3757828D01*
X6654596Y3766007D01*
X6642658Y3784498D01*
X6629095Y3801872D01*
X6614007Y3817924D01*
X6597650Y3832606D01*
X6579971Y3845814D01*
X6561226Y3857345D01*
X6557822Y3859072D01*
G37*
G36*
X3677818Y3757828D02*
G01*
X3778961Y3757828D01*
X3774592Y3766007D01*
X3762654Y3784498D01*
X3749090Y3801872D01*
X3734003Y3817924D01*
X3717645Y3832606D01*
X3699967Y3845814D01*
X3681222Y3857345D01*
X3677818Y3859072D01*
G37*
G36*
X2557830Y3757828D02*
G01*
X2658973Y3757828D01*
X2654604Y3766007D01*
X2642666Y3784498D01*
X2629103Y3801872D01*
X2614015Y3817924D01*
X2597658Y3832606D01*
X2579979Y3845814D01*
X2561234Y3857345D01*
X2557830Y3859072D01*
G37*
G36*
X5677814Y3757828D02*
G01*
X5778957Y3757828D01*
X5774588Y3766007D01*
X5762650Y3784498D01*
X5749086Y3801872D01*
X5733999Y3817924D01*
X5717641Y3832606D01*
X5699963Y3845814D01*
X5681218Y3857345D01*
X5677814Y3859072D01*
G37*
G36*
X4557826Y3757828D02*
G01*
X4658969Y3757828D01*
X4654600Y3766007D01*
X4642662Y3784498D01*
X4629099Y3801872D01*
X4614011Y3817924D01*
X4597654Y3832606D01*
X4579975Y3845814D01*
X4561230Y3857345D01*
X4557826Y3859072D01*
G37*
G36*
X8557818Y3757828D02*
G01*
X8658961Y3757828D01*
X8654592Y3766007D01*
X8642654Y3784498D01*
X8629091Y3801872D01*
X8614003Y3817924D01*
X8597646Y3832606D01*
X8579967Y3845814D01*
X8561222Y3857345D01*
X8557818Y3859072D01*
G37*
G36*
X1340815Y3757828D02*
G01*
X1442161Y3757828D01*
X1442161Y3858971D01*
X1429258Y3851808D01*
X1411020Y3839413D01*
X1394002Y3825443D01*
X1378254Y3810050D01*
X1363929Y3793337D01*
X1351127Y3775405D01*
G37*
G36*
X5340807Y3757828D02*
G01*
X5442153Y3757828D01*
X5442153Y3858971D01*
X5429250Y3851808D01*
X5411012Y3839413D01*
X5393994Y3825443D01*
X5378246Y3810050D01*
X5363921Y3793337D01*
X5351119Y3775405D01*
G37*
G36*
X3340811Y3757828D02*
G01*
X3442157Y3757828D01*
X3442157Y3858971D01*
X3429254Y3851808D01*
X3411016Y3839413D01*
X3393998Y3825443D01*
X3378250Y3810050D01*
X3363925Y3793337D01*
X3351123Y3775405D01*
G37*
G36*
X7340803Y3757828D02*
G01*
X7442149Y3757828D01*
X7442149Y3858971D01*
X7429246Y3851808D01*
X7411008Y3839413D01*
X7393990Y3825443D01*
X7378242Y3810050D01*
X7363917Y3793337D01*
X7351115Y3775405D01*
G37*
G36*
X2220823Y3757828D02*
G01*
X2322169Y3757828D01*
X2322169Y3858971D01*
X2309266Y3851808D01*
X2291029Y3839413D01*
X2274011Y3825443D01*
X2258263Y3810050D01*
X2243937Y3793337D01*
X2231136Y3775405D01*
G37*
G36*
X4220819Y3757828D02*
G01*
X4322165Y3757828D01*
X4322165Y3858971D01*
X4309262Y3851808D01*
X4291025Y3839413D01*
X4274007Y3825443D01*
X4258259Y3810050D01*
X4243933Y3793337D01*
X4231132Y3775405D01*
G37*
G36*
X8220811Y3757828D02*
G01*
X8322157Y3757828D01*
X8322157Y3858971D01*
X8309254Y3851808D01*
X8291017Y3839413D01*
X8273999Y3825443D01*
X8258251Y3810050D01*
X8243925Y3793337D01*
X8231124Y3775405D01*
G37*
G36*
X6220815Y3757828D02*
G01*
X6322161Y3757828D01*
X6322161Y3858971D01*
X6309258Y3851808D01*
X6291021Y3839413D01*
X6274003Y3825443D01*
X6258255Y3810050D01*
X6243929Y3793337D01*
X6231128Y3775405D01*
G37*
G36*
X2040077Y3841597D02*
G01*
X2093417Y3841597D01*
X2093417Y3869944D01*
X2092706Y3876243D01*
X2090775Y3881729D01*
X2087676Y3886606D01*
X2083612Y3890721D01*
X2078685Y3893769D01*
X2073249Y3895699D01*
X2066950Y3896410D01*
X2040077Y3896410D01*
G37*
G36*
X3906570Y3841597D02*
G01*
X3959910Y3841597D01*
X3959910Y3896410D01*
X3933037Y3896410D01*
X3926738Y3895699D01*
X3921302Y3893769D01*
X3916375Y3890721D01*
X3912311Y3886606D01*
X3909212Y3881729D01*
X3907282Y3876243D01*
X3906570Y3869944D01*
G37*
G36*
X4040073Y3841597D02*
G01*
X4093413Y3841597D01*
X4093413Y3869944D01*
X4092701Y3876243D01*
X4090771Y3881729D01*
X4087672Y3886606D01*
X4083608Y3890721D01*
X4078681Y3893769D01*
X4073245Y3895699D01*
X4066946Y3896410D01*
X4040073Y3896410D01*
G37*
G36*
X1906574Y3841597D02*
G01*
X1959914Y3841597D01*
X1959914Y3896410D01*
X1933041Y3896410D01*
X1926742Y3895699D01*
X1921306Y3893769D01*
X1916379Y3890721D01*
X1912315Y3886606D01*
X1909216Y3881729D01*
X1907286Y3876243D01*
X1906574Y3869944D01*
G37*
G36*
X7906562Y3841597D02*
G01*
X7959902Y3841597D01*
X7959902Y3896410D01*
X7933029Y3896410D01*
X7926730Y3895699D01*
X7921294Y3893769D01*
X7916367Y3890721D01*
X7912303Y3886606D01*
X7909204Y3881729D01*
X7907274Y3876243D01*
X7906562Y3869944D01*
G37*
G36*
X6040069Y3841597D02*
G01*
X6093409Y3841597D01*
X6093409Y3869944D01*
X6092698Y3876243D01*
X6090767Y3881729D01*
X6087668Y3886606D01*
X6083604Y3890721D01*
X6078677Y3893769D01*
X6073241Y3895699D01*
X6066942Y3896410D01*
X6040069Y3896410D01*
G37*
G36*
X5906566Y3841597D02*
G01*
X5959906Y3841597D01*
X5959906Y3896410D01*
X5933033Y3896410D01*
X5926734Y3895699D01*
X5921298Y3893769D01*
X5916371Y3890721D01*
X5912307Y3886606D01*
X5909208Y3881729D01*
X5907278Y3876243D01*
X5906566Y3869944D01*
G37*
G36*
X8040065Y3841597D02*
G01*
X8093405Y3841597D01*
X8093405Y3869944D01*
X8092694Y3876243D01*
X8090763Y3881729D01*
X8087664Y3886606D01*
X8083600Y3890721D01*
X8078673Y3893769D01*
X8073237Y3895699D01*
X8066938Y3896410D01*
X8040065Y3896410D01*
G37*
G36*
X3340811Y8757818D02*
G01*
X3442157Y8757818D01*
X3442157Y8858961D01*
X3429254Y8851798D01*
X3411016Y8839403D01*
X3393998Y8825433D01*
X3378250Y8810040D01*
X3363925Y8793327D01*
X3351123Y8775395D01*
G37*
G36*
X1340815Y8757818D02*
G01*
X1442161Y8757818D01*
X1442161Y8858961D01*
X1429258Y8851798D01*
X1411020Y8839403D01*
X1394002Y8825433D01*
X1378254Y8810040D01*
X1363929Y8793327D01*
X1351127Y8775395D01*
G37*
G36*
X1933041Y4803597D02*
G01*
X1959914Y4803597D01*
X1959914Y4858410D01*
X1906574Y4858410D01*
X1906574Y4830064D01*
X1907286Y4823714D01*
X1909216Y4818278D01*
X1912315Y4813350D01*
X1916379Y4809286D01*
X1921306Y4806188D01*
X1926742Y4804308D01*
G37*
G36*
X7933029Y4803597D02*
G01*
X7959902Y4803597D01*
X7959902Y4858410D01*
X7906562Y4858410D01*
X7906562Y4830064D01*
X7907274Y4823714D01*
X7909204Y4818278D01*
X7912303Y4813350D01*
X7916367Y4809286D01*
X7921294Y4806188D01*
X7926730Y4804308D01*
G37*
G36*
X5933033Y4803597D02*
G01*
X5959906Y4803597D01*
X5959906Y4858410D01*
X5906566Y4858410D01*
X5906566Y4830064D01*
X5907278Y4823714D01*
X5909208Y4818278D01*
X5912307Y4813350D01*
X5916371Y4809286D01*
X5921298Y4806188D01*
X5926734Y4804308D01*
G37*
G36*
X3933037Y4803597D02*
G01*
X3959910Y4803597D01*
X3959910Y4858410D01*
X3906570Y4858410D01*
X3906570Y4830064D01*
X3907282Y4823714D01*
X3909212Y4818278D01*
X3912311Y4813350D01*
X3916375Y4809286D01*
X3921302Y4806188D01*
X3926738Y4804308D01*
G37*
G36*
X6040069Y4803597D02*
G01*
X6066942Y4803597D01*
X6073241Y4804308D01*
X6078677Y4806188D01*
X6083604Y4809286D01*
X6087668Y4813350D01*
X6090767Y4818278D01*
X6092698Y4823714D01*
X6093409Y4830064D01*
X6093409Y4858410D01*
X6040069Y4858410D01*
G37*
G36*
X4040073Y4803597D02*
G01*
X4066946Y4803597D01*
X4073245Y4804308D01*
X4078681Y4806188D01*
X4083608Y4809286D01*
X4087672Y4813350D01*
X4090771Y4818278D01*
X4092701Y4823714D01*
X4093413Y4830064D01*
X4093413Y4858410D01*
X4040073Y4858410D01*
G37*
G36*
X8040065Y4803597D02*
G01*
X8066938Y4803597D01*
X8073237Y4804308D01*
X8078673Y4806188D01*
X8083600Y4809286D01*
X8087664Y4813350D01*
X8090763Y4818278D01*
X8092694Y4823714D01*
X8093405Y4830064D01*
X8093405Y4858410D01*
X8040065Y4858410D01*
G37*
G36*
X2040077Y4803597D02*
G01*
X2066950Y4803597D01*
X2073249Y4804308D01*
X2078685Y4806188D01*
X2083612Y4809286D01*
X2087676Y4813350D01*
X2090775Y4818278D01*
X2092706Y4823714D01*
X2093417Y4830064D01*
X2093417Y4858410D01*
X2040077Y4858410D01*
G37*
G36*
X8557818Y8757818D02*
G01*
X8658961Y8757818D01*
X8654592Y8765997D01*
X8642654Y8784488D01*
X8629091Y8801862D01*
X8614003Y8817914D01*
X8597646Y8832596D01*
X8579967Y8845804D01*
X8561222Y8857335D01*
X8557818Y8859062D01*
G37*
G36*
X8198612Y5336235D02*
G01*
X8198612Y5388660D01*
X8146288Y5388660D01*
X8148421Y5384139D01*
X8156194Y5371896D01*
X8165490Y5360670D01*
X8176107Y5350713D01*
X8187893Y5342128D01*
G37*
G36*
X8301329Y5336235D02*
G01*
X8312048Y5342128D01*
X8323834Y5350713D01*
X8334451Y5360670D01*
X8343747Y5371896D01*
X8351520Y5384139D01*
X8353653Y5388660D01*
X8301329Y5388660D01*
G37*
G36*
X4301337Y5336235D02*
G01*
X4312056Y5342128D01*
X4323842Y5350713D01*
X4334459Y5360670D01*
X4343755Y5371896D01*
X4351528Y5384139D01*
X4353661Y5388660D01*
X4301337Y5388660D01*
G37*
G36*
X2301341Y5336235D02*
G01*
X2312060Y5342128D01*
X2323846Y5350713D01*
X2334463Y5360670D01*
X2343759Y5371896D01*
X2351532Y5384139D01*
X2353665Y5388660D01*
X2301341Y5388660D01*
G37*
G36*
X6301333Y5336235D02*
G01*
X6312052Y5342128D01*
X6323838Y5350713D01*
X6334455Y5360670D01*
X6343751Y5371896D01*
X6351524Y5384139D01*
X6353657Y5388660D01*
X6301333Y5388660D01*
G37*
G36*
X4198620Y5336235D02*
G01*
X4198620Y5388660D01*
X4146296Y5388660D01*
X4148429Y5384139D01*
X4156201Y5371896D01*
X4165498Y5360670D01*
X4176115Y5350713D01*
X4187901Y5342128D01*
G37*
G36*
X6198616Y5336235D02*
G01*
X6198616Y5388660D01*
X6146292Y5388660D01*
X6148425Y5384139D01*
X6156198Y5371896D01*
X6165494Y5360670D01*
X6176111Y5350713D01*
X6187897Y5342128D01*
G37*
G36*
X2198624Y5336235D02*
G01*
X2198624Y5388660D01*
X2146300Y5388660D01*
X2148433Y5384139D01*
X2156206Y5371896D01*
X2165502Y5360670D01*
X2176119Y5350713D01*
X2187905Y5342128D01*
G37*
G36*
X6301333Y5491327D02*
G01*
X6353657Y5491327D01*
X6351524Y5495848D01*
X6343751Y5508091D01*
X6334455Y5519318D01*
X6323838Y5529275D01*
X6312052Y5537860D01*
X6301333Y5543753D01*
G37*
G36*
X8146288Y5491327D02*
G01*
X8198612Y5491327D01*
X8198612Y5543753D01*
X8187893Y5537860D01*
X8176107Y5529275D01*
X8165490Y5519318D01*
X8156194Y5508091D01*
X8148421Y5495848D01*
G37*
G36*
X2146300Y5491327D02*
G01*
X2198624Y5491327D01*
X2198624Y5543753D01*
X2187905Y5537860D01*
X2176119Y5529275D01*
X2165502Y5519318D01*
X2156206Y5508091D01*
X2148433Y5495848D01*
G37*
G36*
X8301329Y5491327D02*
G01*
X8353653Y5491327D01*
X8351520Y5495848D01*
X8343747Y5508091D01*
X8334451Y5519318D01*
X8323834Y5529275D01*
X8312048Y5537860D01*
X8301329Y5543753D01*
G37*
G36*
X2301341Y5491327D02*
G01*
X2353665Y5491327D01*
X2351532Y5495848D01*
X2343759Y5508091D01*
X2334463Y5519318D01*
X2323846Y5529275D01*
X2312060Y5537860D01*
X2301341Y5543753D01*
G37*
G36*
X4301337Y5491327D02*
G01*
X4353661Y5491327D01*
X4351528Y5495848D01*
X4343755Y5508091D01*
X4334459Y5519318D01*
X4323842Y5529275D01*
X4312056Y5537860D01*
X4301337Y5543753D01*
G37*
G36*
X4146296Y5491327D02*
G01*
X4198620Y5491327D01*
X4198620Y5543753D01*
X4187901Y5537860D01*
X4176115Y5529275D01*
X4165498Y5519318D01*
X4156201Y5508091D01*
X4148429Y5495848D01*
G37*
G36*
X6146292Y5491327D02*
G01*
X6198616Y5491327D01*
X6198616Y5543753D01*
X6187897Y5537860D01*
X6176111Y5529275D01*
X6165494Y5519318D01*
X6156198Y5508091D01*
X6148425Y5495848D01*
G37*
G36*
X5677814Y8757818D02*
G01*
X5778957Y8757818D01*
X5774588Y8765997D01*
X5762650Y8784488D01*
X5749086Y8801862D01*
X5733999Y8817914D01*
X5717641Y8832596D01*
X5699963Y8845804D01*
X5681218Y8857335D01*
X5677814Y8859062D01*
G37*
G36*
X7677810Y8757818D02*
G01*
X7778953Y8757818D01*
X7774584Y8765997D01*
X7762646Y8784488D01*
X7749082Y8801862D01*
X7733995Y8817914D01*
X7717637Y8832596D01*
X7699959Y8845804D01*
X7681214Y8857335D01*
X7677810Y8859062D01*
G37*
G36*
X4557826Y8757818D02*
G01*
X4658969Y8757818D01*
X4654600Y8765997D01*
X4642662Y8784488D01*
X4629099Y8801862D01*
X4614011Y8817914D01*
X4597654Y8832596D01*
X4579975Y8845804D01*
X4561230Y8857335D01*
X4557826Y8859062D01*
G37*
G36*
X2840431Y2054148D02*
G01*
X9101836Y2054199D01*
X9110573Y2055418D01*
X9118600Y2058111D01*
X9125966Y2062225D01*
X9132874Y2067966D01*
X9461144Y2396286D01*
X9466478Y2403348D01*
X9470237Y2410917D01*
X9472523Y2419045D01*
X9473387Y2427935D01*
X9473387Y3012998D01*
X9472523Y3021888D01*
X9470948Y3027578D01*
X9470542Y3030372D01*
X9470542Y3082391D01*
X9469780Y3090773D01*
X9467596Y3098393D01*
X9464040Y3105505D01*
X9459264Y3111855D01*
X9453422Y3117189D01*
X9446666Y3121355D01*
X9439249Y3124250D01*
X9431426Y3125673D01*
X9423501Y3125673D01*
X9415729Y3124250D01*
X9408363Y3121355D01*
X9400438Y3116326D01*
X9396882Y3114954D01*
X9393072Y3114954D01*
X9389567Y3116326D01*
X9381591Y3121355D01*
X9374276Y3124250D01*
X9366453Y3125673D01*
X9358528Y3125673D01*
X9350705Y3124250D01*
X9343339Y3121355D01*
X9335414Y3116326D01*
X9331858Y3114954D01*
X9328099Y3114954D01*
X9324543Y3116326D01*
X9316618Y3121355D01*
X9309252Y3124250D01*
X9301429Y3125673D01*
X9293504Y3125673D01*
X9285732Y3124250D01*
X9278366Y3121355D01*
X9270441Y3116326D01*
X9266885Y3114954D01*
X9263075Y3114954D01*
X9259519Y3116326D01*
X9251594Y3121355D01*
X9244228Y3124250D01*
X9236456Y3125673D01*
X9228531Y3125673D01*
X9220708Y3124250D01*
X9213342Y3121355D01*
X9205417Y3116326D01*
X9201861Y3114954D01*
X9198102Y3114954D01*
X9194546Y3116326D01*
X9186621Y3121355D01*
X9182404Y3122980D01*
X9182404Y3062579D01*
X9186062Y3060446D01*
X9188551Y3057042D01*
X9189415Y3052927D01*
X9189415Y3030423D01*
X9189059Y3027629D01*
X9187383Y3021838D01*
X9186570Y3012948D01*
X9186570Y2973933D01*
X9186062Y2970834D01*
X9184640Y2967990D01*
X9182404Y2965754D01*
X9182404Y2899968D01*
X9184640Y2897733D01*
X9186062Y2894888D01*
X9186570Y2891739D01*
X9186570Y2855722D01*
X9185808Y2851810D01*
X9183573Y2848508D01*
X9083954Y2748889D01*
X9080652Y2746654D01*
X9076740Y2745892D01*
X8263229Y2745892D01*
X8259318Y2746654D01*
X8256016Y2748889D01*
X8182559Y2822346D01*
X8180324Y2825750D01*
X8179612Y2829814D01*
X8180578Y2833827D01*
X8183067Y2837129D01*
X8186623Y2839161D01*
X8190738Y2839618D01*
X8194649Y2838399D01*
X8198612Y2836214D01*
X8198612Y2888640D01*
X8146288Y2888640D01*
X8148218Y2884576D01*
X8149183Y2880664D01*
X8148523Y2876651D01*
X8146389Y2873248D01*
X8143087Y2870962D01*
X8139175Y2870098D01*
X8135213Y2870809D01*
X8131860Y2873044D01*
X8112099Y2892806D01*
X8110016Y2895854D01*
X8109153Y2899460D01*
X8109610Y2903118D01*
X8112252Y2911195D01*
X8114944Y2925470D01*
X8115858Y2939999D01*
X8114893Y2954934D01*
X8112252Y2968802D01*
X8107730Y2982671D01*
X8101533Y2995828D01*
X8093760Y3008122D01*
X8084464Y3019348D01*
X8079079Y3024378D01*
X8076742Y3027730D01*
X8075879Y3031794D01*
X8075879Y3498850D01*
X8076438Y3502202D01*
X8078114Y3505149D01*
X8080654Y3507435D01*
X8083600Y3509264D01*
X8087664Y3513378D01*
X8090763Y3518255D01*
X8092694Y3523742D01*
X8093405Y3530041D01*
X8093405Y3669944D01*
X8092694Y3676243D01*
X8090763Y3681679D01*
X8087664Y3686606D01*
X8083600Y3690670D01*
X8079536Y3694226D01*
X8077962Y3697935D01*
X8077962Y3702050D01*
X8079536Y3705758D01*
X8083600Y3709314D01*
X8087664Y3713378D01*
X8090763Y3718306D01*
X8092694Y3723741D01*
X8093405Y3730040D01*
X8093405Y3758387D01*
X8040065Y3758387D01*
X8040065Y3706571D01*
X8039303Y3702659D01*
X8037118Y3699357D01*
X8033816Y3697173D01*
X8029905Y3696411D01*
X7970062Y3696411D01*
X7966151Y3697173D01*
X7962849Y3699357D01*
X7960664Y3702659D01*
X7959902Y3706571D01*
X7959902Y3758387D01*
X7906562Y3758387D01*
X7906562Y3730040D01*
X7907274Y3723741D01*
X7909204Y3718306D01*
X7912303Y3713378D01*
X7916367Y3709314D01*
X7920431Y3705758D01*
X7922006Y3702050D01*
X7922006Y3697935D01*
X7920431Y3694226D01*
X7916367Y3690670D01*
X7912303Y3686606D01*
X7909204Y3681679D01*
X7907274Y3676243D01*
X7906562Y3669944D01*
X7906562Y3530041D01*
X7907274Y3523742D01*
X7909204Y3518255D01*
X7912303Y3513378D01*
X7916367Y3509264D01*
X7919313Y3507435D01*
X7921853Y3505149D01*
X7923530Y3502202D01*
X7924088Y3498850D01*
X7924088Y3031794D01*
X7923225Y3027730D01*
X7920888Y3024378D01*
X7915503Y3019348D01*
X7906207Y3008122D01*
X7898434Y2995828D01*
X7892237Y2982671D01*
X7887716Y2968802D01*
X7884972Y2954324D01*
X7883448Y2950667D01*
X7880654Y2947822D01*
X7876997Y2946298D01*
X7872984Y2946298D01*
X7869326Y2947822D01*
X7866532Y2950667D01*
X7865008Y2954324D01*
X7862265Y2968802D01*
X7857744Y2982671D01*
X7851546Y2995828D01*
X7843774Y3008122D01*
X7834477Y3019348D01*
X7823860Y3029305D01*
X7812074Y3037840D01*
X7799324Y3044850D01*
X7785811Y3050235D01*
X7771688Y3053842D01*
X7757261Y3055670D01*
X7742732Y3055670D01*
X7728305Y3053842D01*
X7714183Y3050235D01*
X7700670Y3044850D01*
X7687919Y3037840D01*
X7676134Y3029305D01*
X7665516Y3019348D01*
X7656220Y3008122D01*
X7648448Y2995828D01*
X7642250Y2982671D01*
X7637729Y2968802D01*
X7635036Y2954528D01*
X7634122Y2939999D01*
X7635036Y2925470D01*
X7637729Y2911195D01*
X7642250Y2897327D01*
X7648448Y2884170D01*
X7656220Y2871876D01*
X7665516Y2860649D01*
X7676134Y2850692D01*
X7687919Y2842158D01*
X7700670Y2835148D01*
X7714183Y2829763D01*
X7728305Y2826156D01*
X7742732Y2824327D01*
X7757261Y2824327D01*
X7771688Y2826156D01*
X7785811Y2829763D01*
X7799324Y2835148D01*
X7812074Y2842158D01*
X7823860Y2850692D01*
X7834477Y2860649D01*
X7843774Y2871876D01*
X7851546Y2884170D01*
X7857744Y2897327D01*
X7862265Y2911195D01*
X7865008Y2925673D01*
X7866532Y2929331D01*
X7869326Y2932176D01*
X7872984Y2933700D01*
X7876997Y2933700D01*
X7880654Y2932176D01*
X7883448Y2929331D01*
X7884972Y2925673D01*
X7887716Y2911195D01*
X7892237Y2897327D01*
X7898434Y2884170D01*
X7906207Y2871876D01*
X7915503Y2860649D01*
X7926120Y2850692D01*
X7937906Y2842158D01*
X7950657Y2835148D01*
X7964170Y2829763D01*
X7978292Y2826156D01*
X7992719Y2824327D01*
X8007248Y2824327D01*
X8021675Y2826156D01*
X8036407Y2830017D01*
X8040217Y2830728D01*
X8044078Y2829915D01*
X8047329Y2827731D01*
X8208822Y2666288D01*
X8215833Y2661005D01*
X8223402Y2657246D01*
X8231581Y2654909D01*
X8240471Y2654096D01*
X9101734Y2654147D01*
X9110472Y2655366D01*
X9118498Y2658059D01*
X9125915Y2662174D01*
X9132773Y2667863D01*
X9234170Y2769260D01*
X9237472Y2771444D01*
X9241332Y2772206D01*
X9245244Y2771444D01*
X9248546Y2769260D01*
X9250730Y2765958D01*
X9251492Y2762046D01*
X9251492Y2720695D01*
X9250730Y2716834D01*
X9248546Y2713532D01*
X9084005Y2548991D01*
X9080703Y2546807D01*
X9076842Y2546045D01*
X6463131Y2546045D01*
X6459270Y2546807D01*
X6455968Y2548991D01*
X6182715Y2822244D01*
X6180429Y2825699D01*
X6179718Y2829763D01*
X6180683Y2833776D01*
X6183172Y2837078D01*
X6186728Y2839110D01*
X6190843Y2839567D01*
X6194755Y2838348D01*
X6198616Y2836214D01*
X6198616Y2888640D01*
X6146292Y2888640D01*
X6148171Y2884678D01*
X6149136Y2880766D01*
X6148476Y2876753D01*
X6146342Y2873349D01*
X6143040Y2871012D01*
X6139129Y2870200D01*
X6135166Y2870911D01*
X6131814Y2873146D01*
X6112103Y2892856D01*
X6110020Y2895904D01*
X6109157Y2899511D01*
X6109614Y2903169D01*
X6112256Y2911195D01*
X6114948Y2925470D01*
X6115862Y2939999D01*
X6114897Y2954934D01*
X6112256Y2968802D01*
X6107734Y2982671D01*
X6101537Y2995828D01*
X6093764Y3008122D01*
X6084468Y3019348D01*
X6079083Y3024378D01*
X6076746Y3027730D01*
X6075883Y3031794D01*
X6075883Y3498850D01*
X6076442Y3502202D01*
X6078118Y3505149D01*
X6080658Y3507435D01*
X6083604Y3509264D01*
X6087668Y3513378D01*
X6090767Y3518255D01*
X6092698Y3523742D01*
X6093409Y3530041D01*
X6093409Y3669944D01*
X6092698Y3676243D01*
X6090767Y3681679D01*
X6087668Y3686606D01*
X6083604Y3690670D01*
X6079540Y3694226D01*
X6077966Y3697935D01*
X6077966Y3702050D01*
X6079540Y3705758D01*
X6083604Y3709314D01*
X6087668Y3713378D01*
X6090767Y3718306D01*
X6092698Y3723741D01*
X6093409Y3730040D01*
X6093409Y3758387D01*
X6040069Y3758387D01*
X6040069Y3706571D01*
X6039307Y3702659D01*
X6037122Y3699357D01*
X6033820Y3697173D01*
X6029909Y3696411D01*
X5970066Y3696411D01*
X5966155Y3697173D01*
X5962853Y3699357D01*
X5960668Y3702659D01*
X5959906Y3706571D01*
X5959906Y3758387D01*
X5906566Y3758387D01*
X5906566Y3730040D01*
X5907278Y3723741D01*
X5909208Y3718306D01*
X5912307Y3713378D01*
X5916371Y3709314D01*
X5920435Y3705758D01*
X5922010Y3702050D01*
X5922010Y3697935D01*
X5920435Y3694226D01*
X5916371Y3690670D01*
X5912307Y3686606D01*
X5909208Y3681679D01*
X5907278Y3676243D01*
X5906566Y3669944D01*
X5906566Y3530041D01*
X5907278Y3523742D01*
X5909208Y3518255D01*
X5912307Y3513378D01*
X5916371Y3509264D01*
X5919317Y3507435D01*
X5921857Y3505149D01*
X5923534Y3502202D01*
X5924092Y3498850D01*
X5924092Y3031794D01*
X5923229Y3027730D01*
X5920892Y3024378D01*
X5915507Y3019348D01*
X5906211Y3008122D01*
X5898438Y2995828D01*
X5892241Y2982671D01*
X5887720Y2968802D01*
X5884976Y2954324D01*
X5883452Y2950667D01*
X5880658Y2947822D01*
X5877001Y2946298D01*
X5872988Y2946298D01*
X5869330Y2947822D01*
X5866536Y2950667D01*
X5865012Y2954324D01*
X5862269Y2968802D01*
X5857748Y2982671D01*
X5851550Y2995828D01*
X5843778Y3008122D01*
X5834481Y3019348D01*
X5823864Y3029305D01*
X5812078Y3037840D01*
X5799328Y3044850D01*
X5785815Y3050235D01*
X5771692Y3053842D01*
X5757265Y3055670D01*
X5742736Y3055670D01*
X5728309Y3053842D01*
X5714187Y3050235D01*
X5700674Y3044850D01*
X5687923Y3037840D01*
X5676138Y3029305D01*
X5665520Y3019348D01*
X5656224Y3008122D01*
X5648452Y2995828D01*
X5642254Y2982671D01*
X5637733Y2968802D01*
X5635040Y2954528D01*
X5634126Y2939999D01*
X5635040Y2925470D01*
X5637733Y2911195D01*
X5642254Y2897327D01*
X5648452Y2884170D01*
X5656224Y2871876D01*
X5665520Y2860649D01*
X5676138Y2850692D01*
X5687923Y2842158D01*
X5700674Y2835148D01*
X5714187Y2829763D01*
X5728309Y2826156D01*
X5742736Y2824327D01*
X5757265Y2824327D01*
X5771692Y2826156D01*
X5785815Y2829763D01*
X5799328Y2835148D01*
X5812078Y2842158D01*
X5823864Y2850692D01*
X5834481Y2860649D01*
X5843778Y2871876D01*
X5851550Y2884170D01*
X5857748Y2897327D01*
X5862269Y2911195D01*
X5865012Y2925673D01*
X5866536Y2929331D01*
X5869330Y2932176D01*
X5872988Y2933700D01*
X5877001Y2933700D01*
X5880658Y2932176D01*
X5883452Y2929331D01*
X5884976Y2925673D01*
X5887720Y2911195D01*
X5892241Y2897327D01*
X5898438Y2884170D01*
X5906211Y2871876D01*
X5915507Y2860649D01*
X5926124Y2850692D01*
X5937910Y2842158D01*
X5950661Y2835148D01*
X5964174Y2829763D01*
X5978296Y2826156D01*
X5992723Y2824327D01*
X6007252Y2824327D01*
X6021679Y2826156D01*
X6036411Y2830017D01*
X6040272Y2830728D01*
X6044082Y2829966D01*
X6047333Y2827782D01*
X6408724Y2466441D01*
X6415786Y2461107D01*
X6423355Y2457348D01*
X6431483Y2455062D01*
X6440373Y2454198D01*
X9101836Y2454249D01*
X9110573Y2455468D01*
X9118600Y2458161D01*
X9125966Y2462276D01*
X9132874Y2468016D01*
X9299194Y2634335D01*
X9302496Y2636520D01*
X9306356Y2637282D01*
X9310268Y2636520D01*
X9313570Y2634335D01*
X9315754Y2631033D01*
X9316516Y2627122D01*
X9316516Y2585821D01*
X9315754Y2581910D01*
X9313570Y2578608D01*
X9084005Y2348839D01*
X9080703Y2346655D01*
X9076842Y2345893D01*
X4663287Y2345893D01*
X4659426Y2346655D01*
X4656124Y2348839D01*
X4182719Y2822244D01*
X4180433Y2825699D01*
X4179722Y2829763D01*
X4180687Y2833776D01*
X4183176Y2837078D01*
X4186732Y2839110D01*
X4190847Y2839567D01*
X4194759Y2838348D01*
X4198620Y2836214D01*
X4198620Y2888640D01*
X4146296Y2888640D01*
X4148175Y2884678D01*
X4149140Y2880766D01*
X4148480Y2876753D01*
X4146346Y2873349D01*
X4143044Y2871012D01*
X4139133Y2870200D01*
X4135170Y2870911D01*
X4131818Y2873146D01*
X4112107Y2892856D01*
X4110024Y2895904D01*
X4109161Y2899511D01*
X4109618Y2903169D01*
X4112260Y2911195D01*
X4114952Y2925470D01*
X4115866Y2939999D01*
X4114901Y2954934D01*
X4112260Y2968802D01*
X4107738Y2982671D01*
X4101541Y2995828D01*
X4093768Y3008122D01*
X4084472Y3019348D01*
X4079087Y3024378D01*
X4076750Y3027730D01*
X4075887Y3031794D01*
X4075887Y3498850D01*
X4076446Y3502202D01*
X4078122Y3505149D01*
X4080662Y3507435D01*
X4083608Y3509264D01*
X4087672Y3513378D01*
X4090771Y3518255D01*
X4092701Y3523742D01*
X4093413Y3530041D01*
X4093413Y3669944D01*
X4092701Y3676243D01*
X4090771Y3681679D01*
X4087672Y3686606D01*
X4083608Y3690670D01*
X4079544Y3694226D01*
X4077970Y3697935D01*
X4077970Y3702050D01*
X4079544Y3705758D01*
X4083608Y3709314D01*
X4087672Y3713378D01*
X4090771Y3718306D01*
X4092701Y3723741D01*
X4093413Y3730040D01*
X4093413Y3758387D01*
X4040073Y3758387D01*
X4040073Y3706571D01*
X4039311Y3702659D01*
X4037126Y3699357D01*
X4033824Y3697173D01*
X4029913Y3696411D01*
X3970070Y3696411D01*
X3966159Y3697173D01*
X3962857Y3699357D01*
X3960672Y3702659D01*
X3959910Y3706571D01*
X3959910Y3758387D01*
X3906570Y3758387D01*
X3906570Y3730040D01*
X3907282Y3723741D01*
X3909212Y3718306D01*
X3912311Y3713378D01*
X3916375Y3709314D01*
X3920439Y3705758D01*
X3922014Y3702050D01*
X3922014Y3697935D01*
X3920439Y3694226D01*
X3916375Y3690670D01*
X3912311Y3686606D01*
X3909212Y3681679D01*
X3907282Y3676243D01*
X3906570Y3669944D01*
X3906570Y3530041D01*
X3907282Y3523742D01*
X3909212Y3518255D01*
X3912311Y3513378D01*
X3916375Y3509264D01*
X3919321Y3507435D01*
X3921861Y3505149D01*
X3923537Y3502202D01*
X3924096Y3498850D01*
X3924096Y3031794D01*
X3923233Y3027730D01*
X3920896Y3024378D01*
X3915511Y3019348D01*
X3906215Y3008122D01*
X3898442Y2995828D01*
X3892245Y2982671D01*
X3887724Y2968802D01*
X3884980Y2954324D01*
X3883456Y2950667D01*
X3880662Y2947822D01*
X3877005Y2946298D01*
X3872992Y2946298D01*
X3869334Y2947822D01*
X3866540Y2950667D01*
X3865016Y2954324D01*
X3862273Y2968802D01*
X3857751Y2982671D01*
X3851554Y2995828D01*
X3843782Y3008122D01*
X3834485Y3019348D01*
X3823868Y3029305D01*
X3812082Y3037840D01*
X3799332Y3044850D01*
X3785819Y3050235D01*
X3771696Y3053842D01*
X3757269Y3055670D01*
X3742740Y3055670D01*
X3728313Y3053842D01*
X3714191Y3050235D01*
X3700678Y3044850D01*
X3687927Y3037840D01*
X3676142Y3029305D01*
X3665524Y3019348D01*
X3656228Y3008122D01*
X3648456Y2995828D01*
X3642258Y2982671D01*
X3637737Y2968802D01*
X3635044Y2954528D01*
X3634130Y2939999D01*
X3635044Y2925470D01*
X3637737Y2911195D01*
X3642258Y2897327D01*
X3648456Y2884170D01*
X3656228Y2871876D01*
X3665524Y2860649D01*
X3676142Y2850692D01*
X3687927Y2842158D01*
X3700678Y2835148D01*
X3714191Y2829763D01*
X3728313Y2826156D01*
X3742740Y2824327D01*
X3757269Y2824327D01*
X3771696Y2826156D01*
X3785819Y2829763D01*
X3799332Y2835148D01*
X3812082Y2842158D01*
X3823868Y2850692D01*
X3834485Y2860649D01*
X3843782Y2871876D01*
X3851554Y2884170D01*
X3857751Y2897327D01*
X3862273Y2911195D01*
X3865016Y2925673D01*
X3866540Y2929331D01*
X3869334Y2932176D01*
X3872992Y2933700D01*
X3877005Y2933700D01*
X3880662Y2932176D01*
X3883456Y2929331D01*
X3884980Y2925673D01*
X3887724Y2911195D01*
X3892245Y2897327D01*
X3898442Y2884170D01*
X3906215Y2871876D01*
X3915511Y2860649D01*
X3926128Y2850692D01*
X3937914Y2842158D01*
X3950665Y2835148D01*
X3964178Y2829763D01*
X3978300Y2826156D01*
X3992727Y2824327D01*
X4007256Y2824327D01*
X4021683Y2826156D01*
X4036415Y2830017D01*
X4040276Y2830728D01*
X4044086Y2829966D01*
X4047337Y2827782D01*
X4608880Y2266289D01*
X4615942Y2260955D01*
X4623511Y2257196D01*
X4631639Y2254910D01*
X4640529Y2254046D01*
X9101836Y2254097D01*
X9110573Y2255316D01*
X9118600Y2258009D01*
X9126016Y2262124D01*
X9132874Y2267864D01*
X9364218Y2499410D01*
X9367520Y2501646D01*
X9371380Y2502408D01*
X9375292Y2501646D01*
X9378594Y2499410D01*
X9380778Y2496108D01*
X9381540Y2492248D01*
X9381540Y2450693D01*
X9380778Y2446832D01*
X9378594Y2443530D01*
X9084005Y2148941D01*
X9080703Y2146757D01*
X9076842Y2145995D01*
X2863189Y2145995D01*
X2859328Y2146757D01*
X2856026Y2148941D01*
X2182723Y2822244D01*
X2180437Y2825699D01*
X2179726Y2829763D01*
X2180691Y2833776D01*
X2183180Y2837078D01*
X2186736Y2839110D01*
X2190851Y2839567D01*
X2194763Y2838348D01*
X2198624Y2836214D01*
X2198624Y2888640D01*
X2146300Y2888640D01*
X2148179Y2884678D01*
X2149144Y2880766D01*
X2148484Y2876753D01*
X2146350Y2873349D01*
X2143048Y2871012D01*
X2139137Y2870200D01*
X2135174Y2870911D01*
X2131822Y2873146D01*
X2112111Y2892856D01*
X2110028Y2895904D01*
X2109165Y2899511D01*
X2109622Y2903169D01*
X2112264Y2911195D01*
X2114956Y2925470D01*
X2115870Y2939999D01*
X2114905Y2954934D01*
X2112264Y2968802D01*
X2107742Y2982671D01*
X2101545Y2995828D01*
X2093772Y3008122D01*
X2084476Y3019348D01*
X2079091Y3024378D01*
X2076754Y3027730D01*
X2075891Y3031794D01*
X2075891Y3498850D01*
X2076450Y3502202D01*
X2078126Y3505149D01*
X2080666Y3507435D01*
X2083612Y3509264D01*
X2087676Y3513378D01*
X2090775Y3518255D01*
X2092706Y3523742D01*
X2093417Y3530041D01*
X2093417Y3669944D01*
X2092706Y3676243D01*
X2090775Y3681679D01*
X2087676Y3686606D01*
X2083612Y3690670D01*
X2079548Y3694226D01*
X2077974Y3697935D01*
X2077974Y3702050D01*
X2079548Y3705758D01*
X2083612Y3709314D01*
X2087676Y3713378D01*
X2090775Y3718306D01*
X2092706Y3723741D01*
X2093417Y3730040D01*
X2093417Y3758387D01*
X2040077Y3758387D01*
X2040077Y3706571D01*
X2039315Y3702659D01*
X2037130Y3699357D01*
X2033828Y3697173D01*
X2029917Y3696411D01*
X1970074Y3696411D01*
X1966163Y3697173D01*
X1962861Y3699357D01*
X1960676Y3702659D01*
X1959914Y3706571D01*
X1959914Y3758387D01*
X1906574Y3758387D01*
X1906574Y3730040D01*
X1907286Y3723741D01*
X1909216Y3718306D01*
X1912315Y3713378D01*
X1916379Y3709314D01*
X1920443Y3705758D01*
X1922018Y3702050D01*
X1922018Y3697935D01*
X1920443Y3694226D01*
X1916379Y3690670D01*
X1912315Y3686606D01*
X1909216Y3681679D01*
X1907286Y3676243D01*
X1906574Y3669944D01*
X1906574Y3530041D01*
X1907286Y3523742D01*
X1909216Y3518255D01*
X1912315Y3513378D01*
X1916379Y3509264D01*
X1919325Y3507435D01*
X1921865Y3505149D01*
X1923542Y3502202D01*
X1924100Y3498850D01*
X1924100Y3031794D01*
X1923237Y3027730D01*
X1920900Y3024378D01*
X1915515Y3019348D01*
X1906219Y3008122D01*
X1898446Y2995828D01*
X1892249Y2982671D01*
X1887728Y2968802D01*
X1884984Y2954324D01*
X1883460Y2950667D01*
X1880666Y2947822D01*
X1877009Y2946298D01*
X1872996Y2946298D01*
X1869338Y2947822D01*
X1866544Y2950667D01*
X1865020Y2954324D01*
X1862277Y2968802D01*
X1857756Y2982671D01*
X1851558Y2995828D01*
X1843786Y3008122D01*
X1834489Y3019348D01*
X1823872Y3029305D01*
X1812086Y3037840D01*
X1799336Y3044850D01*
X1785823Y3050235D01*
X1771700Y3053842D01*
X1757273Y3055670D01*
X1742744Y3055670D01*
X1728317Y3053842D01*
X1714195Y3050235D01*
X1700682Y3044850D01*
X1687931Y3037840D01*
X1676146Y3029305D01*
X1665528Y3019348D01*
X1656232Y3008122D01*
X1648460Y2995828D01*
X1642262Y2982671D01*
X1637741Y2968802D01*
X1635048Y2954528D01*
X1634134Y2939999D01*
X1635048Y2925470D01*
X1637741Y2911195D01*
X1642262Y2897327D01*
X1648460Y2884170D01*
X1656232Y2871876D01*
X1665528Y2860649D01*
X1676146Y2850692D01*
X1687931Y2842158D01*
X1700682Y2835148D01*
X1714195Y2829763D01*
X1728317Y2826156D01*
X1742744Y2824327D01*
X1757273Y2824327D01*
X1771700Y2826156D01*
X1785823Y2829763D01*
X1799336Y2835148D01*
X1812086Y2842158D01*
X1823872Y2850692D01*
X1834489Y2860649D01*
X1843786Y2871876D01*
X1851558Y2884170D01*
X1857756Y2897327D01*
X1862277Y2911195D01*
X1865020Y2925673D01*
X1866544Y2929331D01*
X1869338Y2932176D01*
X1872996Y2933700D01*
X1877009Y2933700D01*
X1880666Y2932176D01*
X1883460Y2929331D01*
X1884984Y2925673D01*
X1887728Y2911195D01*
X1892249Y2897327D01*
X1898446Y2884170D01*
X1906219Y2871876D01*
X1915515Y2860649D01*
X1926132Y2850692D01*
X1937918Y2842158D01*
X1950669Y2835148D01*
X1964182Y2829763D01*
X1978304Y2826156D01*
X1992731Y2824327D01*
X2007260Y2824327D01*
X2021687Y2826156D01*
X2036419Y2830017D01*
X2040280Y2830728D01*
X2044090Y2829966D01*
X2047341Y2827782D01*
X2808782Y2066391D01*
X2815844Y2061057D01*
X2823413Y2057298D01*
X2831541Y2055012D01*
G37*
G36*
X2557830Y8757818D02*
G01*
X2658973Y8757818D01*
X2654604Y8765997D01*
X2642666Y8784488D01*
X2629103Y8801862D01*
X2614015Y8817914D01*
X2597658Y8832596D01*
X2579979Y8845804D01*
X2561234Y8857335D01*
X2557830Y8859062D01*
G37*
G36*
X3677818Y8757818D02*
G01*
X3778961Y8757818D01*
X3774592Y8765997D01*
X3762654Y8784488D01*
X3749090Y8801862D01*
X3734003Y8817914D01*
X3717645Y8832596D01*
X3699967Y8845804D01*
X3681222Y8857335D01*
X3677818Y8859062D01*
G37*
G36*
X1677822Y5920943D02*
G01*
X1681225Y5922619D01*
X1699971Y5934202D01*
X1717649Y5947359D01*
X1734007Y5962040D01*
X1749094Y5978144D01*
X1762658Y5995466D01*
X1774596Y6013958D01*
X1778965Y6022136D01*
X1677822Y6022136D01*
G37*
G36*
X4557826Y5920943D02*
G01*
X4561230Y5922619D01*
X4579975Y5934202D01*
X4597654Y5947359D01*
X4614011Y5962040D01*
X4629099Y5978144D01*
X4642662Y5995466D01*
X4654600Y6013958D01*
X4658969Y6022136D01*
X4557826Y6022136D01*
G37*
G36*
X3677818Y5920943D02*
G01*
X3681222Y5922619D01*
X3699967Y5934202D01*
X3717645Y5947359D01*
X3734003Y5962040D01*
X3749090Y5978144D01*
X3762654Y5995466D01*
X3774592Y6013958D01*
X3778961Y6022136D01*
X3677818Y6022136D01*
G37*
G36*
X7677810Y5920943D02*
G01*
X7681214Y5922619D01*
X7699959Y5934202D01*
X7717637Y5947359D01*
X7733995Y5962040D01*
X7749082Y5978144D01*
X7762646Y5995466D01*
X7774584Y6013958D01*
X7778953Y6022136D01*
X7677810Y6022136D01*
G37*
G36*
X6557822Y5920943D02*
G01*
X6561226Y5922619D01*
X6579971Y5934202D01*
X6597650Y5947359D01*
X6614007Y5962040D01*
X6629095Y5978144D01*
X6642658Y5995466D01*
X6654596Y6013958D01*
X6658965Y6022136D01*
X6557822Y6022136D01*
G37*
G36*
X5677814Y5920943D02*
G01*
X5681218Y5922619D01*
X5699963Y5934202D01*
X5717641Y5947359D01*
X5733999Y5962040D01*
X5749086Y5978144D01*
X5762650Y5995466D01*
X5774588Y6013958D01*
X5778957Y6022136D01*
X5677814Y6022136D01*
G37*
G36*
X8557818Y5920943D02*
G01*
X8561222Y5922619D01*
X8579967Y5934202D01*
X8597646Y5947359D01*
X8614003Y5962040D01*
X8629091Y5978144D01*
X8642654Y5995466D01*
X8654592Y6013958D01*
X8658961Y6022136D01*
X8557818Y6022136D01*
G37*
G36*
X2557830Y5920943D02*
G01*
X2561234Y5922619D01*
X2579979Y5934202D01*
X2597658Y5947359D01*
X2614015Y5962040D01*
X2629103Y5978144D01*
X2642666Y5995466D01*
X2654604Y6013958D01*
X2658973Y6022136D01*
X2557830Y6022136D01*
G37*
G36*
X1442161Y5920994D02*
G01*
X1442161Y6022136D01*
X1340815Y6022136D01*
X1351127Y6004610D01*
X1363929Y5986678D01*
X1378254Y5969914D01*
X1394002Y5954522D01*
X1411020Y5940602D01*
X1429258Y5928207D01*
G37*
G36*
X7442149Y5920994D02*
G01*
X7442149Y6022136D01*
X7340803Y6022136D01*
X7351115Y6004610D01*
X7363917Y5986678D01*
X7378242Y5969914D01*
X7393990Y5954522D01*
X7411008Y5940602D01*
X7429246Y5928207D01*
G37*
G36*
X5442153Y5920994D02*
G01*
X5442153Y6022136D01*
X5340807Y6022136D01*
X5351119Y6004610D01*
X5363921Y5986678D01*
X5378246Y5969914D01*
X5393994Y5954522D01*
X5411012Y5940602D01*
X5429250Y5928207D01*
G37*
G36*
X3442157Y5920994D02*
G01*
X3442157Y6022136D01*
X3340811Y6022136D01*
X3351123Y6004610D01*
X3363925Y5986678D01*
X3378250Y5969914D01*
X3393998Y5954522D01*
X3411016Y5940602D01*
X3429254Y5928207D01*
G37*
G36*
X6322161Y5920994D02*
G01*
X6322161Y6022136D01*
X6220815Y6022136D01*
X6231128Y6004610D01*
X6243929Y5986678D01*
X6258255Y5969914D01*
X6274003Y5954522D01*
X6291021Y5940602D01*
X6309258Y5928207D01*
G37*
G36*
X2322169Y5920994D02*
G01*
X2322169Y6022136D01*
X2220823Y6022136D01*
X2231136Y6004610D01*
X2243937Y5986678D01*
X2258263Y5969914D01*
X2274011Y5954522D01*
X2291029Y5940602D01*
X2309266Y5928207D01*
G37*
G36*
X4322165Y5920994D02*
G01*
X4322165Y6022136D01*
X4220819Y6022136D01*
X4231132Y6004610D01*
X4243933Y5986678D01*
X4258259Y5969914D01*
X4274007Y5954522D01*
X4291025Y5940602D01*
X4309262Y5928207D01*
G37*
G36*
X8322157Y5920994D02*
G01*
X8322157Y6022136D01*
X8220811Y6022136D01*
X8231124Y6004610D01*
X8243925Y5986678D01*
X8258251Y5969914D01*
X8273999Y5954522D01*
X8291017Y5940602D01*
X8309254Y5928207D01*
G37*
G36*
X1677822Y6257848D02*
G01*
X1778965Y6257848D01*
X1774596Y6266027D01*
X1762658Y6284518D01*
X1749094Y6301841D01*
X1734007Y6317945D01*
X1717649Y6332626D01*
X1699971Y6345783D01*
X1681225Y6357366D01*
X1677822Y6359042D01*
G37*
G36*
X6557822Y6257848D02*
G01*
X6658965Y6257848D01*
X6654596Y6266027D01*
X6642658Y6284518D01*
X6629095Y6301841D01*
X6614007Y6317945D01*
X6597650Y6332626D01*
X6579971Y6345783D01*
X6561226Y6357366D01*
X6557822Y6359042D01*
G37*
G36*
X3677818Y6257848D02*
G01*
X3778961Y6257848D01*
X3774592Y6266027D01*
X3762654Y6284518D01*
X3749090Y6301841D01*
X3734003Y6317945D01*
X3717645Y6332626D01*
X3699967Y6345783D01*
X3681222Y6357366D01*
X3677818Y6359042D01*
G37*
G36*
X4557826Y6257848D02*
G01*
X4658969Y6257848D01*
X4654600Y6266027D01*
X4642662Y6284518D01*
X4629099Y6301841D01*
X4614011Y6317945D01*
X4597654Y6332626D01*
X4579975Y6345783D01*
X4561230Y6357366D01*
X4557826Y6359042D01*
G37*
G36*
X5677814Y6257848D02*
G01*
X5778957Y6257848D01*
X5774588Y6266027D01*
X5762650Y6284518D01*
X5749086Y6301841D01*
X5733999Y6317945D01*
X5717641Y6332626D01*
X5699963Y6345783D01*
X5681218Y6357366D01*
X5677814Y6359042D01*
G37*
G36*
X2557830Y6257848D02*
G01*
X2658973Y6257848D01*
X2654604Y6266027D01*
X2642666Y6284518D01*
X2629103Y6301841D01*
X2614015Y6317945D01*
X2597658Y6332626D01*
X2579979Y6345783D01*
X2561234Y6357366D01*
X2557830Y6359042D01*
G37*
G36*
X8557818Y6257848D02*
G01*
X8658961Y6257848D01*
X8654592Y6266027D01*
X8642654Y6284518D01*
X8629091Y6301841D01*
X8614003Y6317945D01*
X8597646Y6332626D01*
X8579967Y6345783D01*
X8561222Y6357366D01*
X8557818Y6359042D01*
G37*
G36*
X7677810Y6257848D02*
G01*
X7778953Y6257848D01*
X7774584Y6266027D01*
X7762646Y6284518D01*
X7749082Y6301841D01*
X7733995Y6317945D01*
X7717637Y6332626D01*
X7699959Y6345783D01*
X7681214Y6357366D01*
X7677810Y6359042D01*
G37*
G36*
X1340815Y6257848D02*
G01*
X1442161Y6257848D01*
X1442161Y6358991D01*
X1429258Y6351778D01*
X1411020Y6339382D01*
X1394002Y6325463D01*
X1378254Y6310071D01*
X1363929Y6293307D01*
X1351127Y6275374D01*
G37*
G36*
X5340807Y6257848D02*
G01*
X5442153Y6257848D01*
X5442153Y6358991D01*
X5429250Y6351778D01*
X5411012Y6339382D01*
X5393994Y6325463D01*
X5378246Y6310071D01*
X5363921Y6293307D01*
X5351119Y6275374D01*
G37*
G36*
X7340803Y6257848D02*
G01*
X7442149Y6257848D01*
X7442149Y6358991D01*
X7429246Y6351778D01*
X7411008Y6339382D01*
X7393990Y6325463D01*
X7378242Y6310071D01*
X7363917Y6293307D01*
X7351115Y6275374D01*
G37*
G36*
X3340811Y6257848D02*
G01*
X3442157Y6257848D01*
X3442157Y6358991D01*
X3429254Y6351778D01*
X3411016Y6339382D01*
X3393998Y6325463D01*
X3378250Y6310071D01*
X3363925Y6293307D01*
X3351123Y6275374D01*
G37*
G36*
X4220819Y6257848D02*
G01*
X4322165Y6257848D01*
X4322165Y6358991D01*
X4309262Y6351778D01*
X4291025Y6339382D01*
X4274007Y6325463D01*
X4258259Y6310071D01*
X4243933Y6293307D01*
X4231132Y6275374D01*
G37*
G36*
X6220815Y6257848D02*
G01*
X6322161Y6257848D01*
X6322161Y6358991D01*
X6309258Y6351778D01*
X6291021Y6339382D01*
X6274003Y6325463D01*
X6258255Y6310071D01*
X6243929Y6293307D01*
X6231128Y6275374D01*
G37*
G36*
X8220811Y6257848D02*
G01*
X8322157Y6257848D01*
X8322157Y6358991D01*
X8309254Y6351778D01*
X8291017Y6339382D01*
X8273999Y6325463D01*
X8258251Y6310071D01*
X8243925Y6293307D01*
X8231124Y6275374D01*
G37*
G36*
X2220823Y6257848D02*
G01*
X2322169Y6257848D01*
X2322169Y6358991D01*
X2309266Y6351778D01*
X2291029Y6339382D01*
X2274011Y6325463D01*
X2258263Y6310071D01*
X2243937Y6293307D01*
X2231136Y6275374D01*
G37*
G36*
X6557822Y8757818D02*
G01*
X6658965Y8757818D01*
X6654596Y8765997D01*
X6642658Y8784488D01*
X6629095Y8801862D01*
X6614007Y8817914D01*
X6597650Y8832596D01*
X6579971Y8845804D01*
X6561226Y8857335D01*
X6557822Y8859062D01*
G37*
G36*
X1677822Y8757818D02*
G01*
X1778965Y8757818D01*
X1774596Y8765997D01*
X1762658Y8784488D01*
X1749094Y8801862D01*
X1734007Y8817914D01*
X1717649Y8832596D01*
X1699971Y8845804D01*
X1681225Y8857335D01*
X1677822Y8859062D01*
G37*
G36*
X8040065Y8741562D02*
G01*
X8093405Y8741562D01*
X8093405Y8769908D01*
X8092694Y8776258D01*
X8090763Y8781694D01*
X8087664Y8786622D01*
X8083600Y8790686D01*
X8078673Y8793784D01*
X8073237Y8795664D01*
X8066938Y8796375D01*
X8040065Y8796375D01*
G37*
G36*
X7906562Y8741562D02*
G01*
X7959902Y8741562D01*
X7959902Y8796375D01*
X7933029Y8796375D01*
X7926730Y8795664D01*
X7921294Y8793784D01*
X7916367Y8790686D01*
X7912303Y8786622D01*
X7909204Y8781694D01*
X7907274Y8776258D01*
X7906562Y8769908D01*
G37*
G36*
X6040069Y8741562D02*
G01*
X6093409Y8741562D01*
X6093409Y8769908D01*
X6092698Y8776258D01*
X6090767Y8781694D01*
X6087668Y8786622D01*
X6083604Y8790686D01*
X6078677Y8793784D01*
X6073241Y8795664D01*
X6066942Y8796375D01*
X6040069Y8796375D01*
G37*
G36*
X5906566Y8741562D02*
G01*
X5959906Y8741562D01*
X5959906Y8796375D01*
X5933033Y8796375D01*
X5926734Y8795664D01*
X5921298Y8793784D01*
X5916371Y8790686D01*
X5912307Y8786622D01*
X5909208Y8781694D01*
X5907278Y8776258D01*
X5906566Y8769908D01*
G37*
G36*
X1906574Y8741562D02*
G01*
X1959914Y8741562D01*
X1959914Y8796375D01*
X1933041Y8796375D01*
X1926742Y8795664D01*
X1921306Y8793784D01*
X1916379Y8790686D01*
X1912315Y8786622D01*
X1909216Y8781694D01*
X1907286Y8776258D01*
X1906574Y8769908D01*
G37*
G36*
X2040077Y8741562D02*
G01*
X2093417Y8741562D01*
X2093417Y8769908D01*
X2092706Y8776258D01*
X2090775Y8781694D01*
X2087676Y8786622D01*
X2083612Y8790686D01*
X2078685Y8793784D01*
X2073249Y8795664D01*
X2066950Y8796375D01*
X2040077Y8796375D01*
G37*
G36*
X4040073Y8741562D02*
G01*
X4093413Y8741562D01*
X4093413Y8769908D01*
X4092701Y8776258D01*
X4090771Y8781694D01*
X4087672Y8786622D01*
X4083608Y8790686D01*
X4078681Y8793784D01*
X4073245Y8795664D01*
X4066946Y8796375D01*
X4040073Y8796375D01*
G37*
G36*
X3906570Y8741562D02*
G01*
X3959910Y8741562D01*
X3959910Y8796375D01*
X3933037Y8796375D01*
X3926738Y8795664D01*
X3921302Y8793784D01*
X3916375Y8790686D01*
X3912311Y8786622D01*
X3909212Y8781694D01*
X3907282Y8776258D01*
X3906570Y8769908D01*
G37*
G36*
X4301337Y7836204D02*
G01*
X4312056Y7842148D01*
X4323842Y7850682D01*
X4334459Y7860639D01*
X4343755Y7871866D01*
X4351528Y7884159D01*
X4353661Y7888630D01*
X4301337Y7888630D01*
G37*
G36*
X8198612Y7836204D02*
G01*
X8198612Y7888630D01*
X8146288Y7888630D01*
X8148421Y7884159D01*
X8156194Y7871866D01*
X8165490Y7860639D01*
X8176107Y7850682D01*
X8187893Y7842148D01*
G37*
G36*
X2301341Y7836204D02*
G01*
X2312060Y7842148D01*
X2323846Y7850682D01*
X2334463Y7860639D01*
X2343759Y7871866D01*
X2351532Y7884159D01*
X2353665Y7888630D01*
X2301341Y7888630D01*
G37*
G36*
X8301329Y7836204D02*
G01*
X8312048Y7842148D01*
X8323834Y7850682D01*
X8334451Y7860639D01*
X8343747Y7871866D01*
X8351520Y7884159D01*
X8353653Y7888630D01*
X8301329Y7888630D01*
G37*
G36*
X6301333Y7836204D02*
G01*
X6312052Y7842148D01*
X6323838Y7850682D01*
X6334455Y7860639D01*
X6343751Y7871866D01*
X6351524Y7884159D01*
X6353657Y7888630D01*
X6301333Y7888630D01*
G37*
G36*
X2301341Y7991348D02*
G01*
X2353665Y7991348D01*
X2351532Y7995818D01*
X2343759Y8008112D01*
X2334463Y8019338D01*
X2323846Y8029295D01*
X2312060Y8037830D01*
X2301341Y8043773D01*
G37*
G36*
X6146292Y7991348D02*
G01*
X6198616Y7991348D01*
X6198616Y8043773D01*
X6187897Y8037830D01*
X6176111Y8029295D01*
X6165494Y8019338D01*
X6156198Y8008112D01*
X6148425Y7995818D01*
G37*
G36*
X8146288Y7991348D02*
G01*
X8198612Y7991348D01*
X8198612Y8043773D01*
X8187893Y8037830D01*
X8176107Y8029295D01*
X8165490Y8019338D01*
X8156194Y8008112D01*
X8148421Y7995818D01*
G37*
G36*
X6301333Y7991348D02*
G01*
X6353657Y7991348D01*
X6351524Y7995818D01*
X6343751Y8008112D01*
X6334455Y8019338D01*
X6323838Y8029295D01*
X6312052Y8037830D01*
X6301333Y8043773D01*
G37*
G36*
X8301329Y7991348D02*
G01*
X8353653Y7991348D01*
X8351520Y7995818D01*
X8343747Y8008112D01*
X8334451Y8019338D01*
X8323834Y8029295D01*
X8312048Y8037830D01*
X8301329Y8043773D01*
G37*
G36*
X4146296Y7991348D02*
G01*
X4198620Y7991348D01*
X4198620Y8043773D01*
X4187901Y8037830D01*
X4176115Y8029295D01*
X4165498Y8019338D01*
X4156201Y8008112D01*
X4148429Y7995818D01*
G37*
G36*
X4301337Y7991348D02*
G01*
X4353661Y7991348D01*
X4351528Y7995818D01*
X4343755Y8008112D01*
X4334459Y8019338D01*
X4323842Y8029295D01*
X4312056Y8037830D01*
X4301337Y8043773D01*
G37*
G36*
X2146300Y7991348D02*
G01*
X2198624Y7991348D01*
X2198624Y8043773D01*
X2187905Y8037830D01*
X2176119Y8029295D01*
X2165502Y8019338D01*
X2156206Y8008112D01*
X2148433Y7995818D01*
G37*
G36*
X8322157Y8421014D02*
G01*
X8322157Y8522157D01*
X8220811Y8522157D01*
X8231124Y8504580D01*
X8243925Y8486648D01*
X8258251Y8469934D01*
X8273999Y8454542D01*
X8291017Y8440572D01*
X8309254Y8428177D01*
G37*
G36*
X6322161Y8421014D02*
G01*
X6322161Y8522157D01*
X6220815Y8522157D01*
X6231128Y8504580D01*
X6243929Y8486648D01*
X6258255Y8469934D01*
X6274003Y8454542D01*
X6291021Y8440572D01*
X6309258Y8428177D01*
G37*
G36*
X4322165Y8421014D02*
G01*
X4322165Y8522157D01*
X4220819Y8522157D01*
X4231132Y8504580D01*
X4243933Y8486648D01*
X4258259Y8469934D01*
X4274007Y8454542D01*
X4291025Y8440572D01*
X4309262Y8428177D01*
G37*
G36*
X2322169Y8421014D02*
G01*
X2322169Y8522157D01*
X2220823Y8522157D01*
X2231136Y8504580D01*
X2243937Y8486648D01*
X2258263Y8469934D01*
X2274011Y8454542D01*
X2291029Y8440572D01*
X2309266Y8428177D01*
G37*
G36*
X1677822Y8420912D02*
G01*
X1681225Y8422640D01*
X1699971Y8434171D01*
X1717649Y8447379D01*
X1734007Y8462060D01*
X1749094Y8478113D01*
X1762658Y8495487D01*
X1774596Y8513927D01*
X1778965Y8522157D01*
X1677822Y8522157D01*
G37*
G36*
X3677818Y8420912D02*
G01*
X3681222Y8422640D01*
X3699967Y8434171D01*
X3717645Y8447379D01*
X3734003Y8462060D01*
X3749090Y8478113D01*
X3762654Y8495487D01*
X3774592Y8513927D01*
X3778961Y8522157D01*
X3677818Y8522157D01*
G37*
G36*
X4557826Y8420912D02*
G01*
X4561230Y8422640D01*
X4579975Y8434171D01*
X4597654Y8447379D01*
X4614011Y8462060D01*
X4629099Y8478113D01*
X4642662Y8495487D01*
X4654600Y8513927D01*
X4658969Y8522157D01*
X4557826Y8522157D01*
G37*
G36*
X2557830Y8420912D02*
G01*
X2561234Y8422640D01*
X2579979Y8434171D01*
X2597658Y8447379D01*
X2614015Y8462060D01*
X2629103Y8478113D01*
X2642666Y8495487D01*
X2654604Y8513927D01*
X2658973Y8522157D01*
X2557830Y8522157D01*
G37*
G36*
X5677814Y8420912D02*
G01*
X5681218Y8422640D01*
X5699963Y8434171D01*
X5717641Y8447379D01*
X5733999Y8462060D01*
X5749086Y8478113D01*
X5762650Y8495487D01*
X5774588Y8513927D01*
X5778957Y8522157D01*
X5677814Y8522157D01*
G37*
G36*
X7677810Y8420912D02*
G01*
X7681214Y8422640D01*
X7699959Y8434171D01*
X7717637Y8447379D01*
X7733995Y8462060D01*
X7749082Y8478113D01*
X7762646Y8495487D01*
X7774584Y8513927D01*
X7778953Y8522157D01*
X7677810Y8522157D01*
G37*
G36*
X6557822Y8420912D02*
G01*
X6561226Y8422640D01*
X6579971Y8434171D01*
X6597650Y8447379D01*
X6614007Y8462060D01*
X6629095Y8478113D01*
X6642658Y8495487D01*
X6654596Y8513927D01*
X6658965Y8522157D01*
X6557822Y8522157D01*
G37*
G36*
X8557818Y8420912D02*
G01*
X8561222Y8422640D01*
X8579967Y8434171D01*
X8597646Y8447379D01*
X8614003Y8462060D01*
X8629091Y8478113D01*
X8642654Y8495487D01*
X8654592Y8513927D01*
X8658961Y8522157D01*
X8557818Y8522157D01*
G37*
G36*
X1442161Y8421014D02*
G01*
X1442161Y8522157D01*
X1340815Y8522157D01*
X1351127Y8504580D01*
X1363929Y8486648D01*
X1378254Y8469934D01*
X1394002Y8454542D01*
X1411020Y8440572D01*
X1429258Y8428177D01*
G37*
G36*
X5442153Y8421014D02*
G01*
X5442153Y8522157D01*
X5340807Y8522157D01*
X5351119Y8504580D01*
X5363921Y8486648D01*
X5378246Y8469934D01*
X5393994Y8454542D01*
X5411012Y8440572D01*
X5429250Y8428177D01*
G37*
G36*
X3442157Y8421014D02*
G01*
X3442157Y8522157D01*
X3340811Y8522157D01*
X3351123Y8504580D01*
X3363925Y8486648D01*
X3378250Y8469934D01*
X3393998Y8454542D01*
X3411016Y8440572D01*
X3429254Y8428177D01*
G37*
G36*
X7442149Y8421014D02*
G01*
X7442149Y8522157D01*
X7340803Y8522157D01*
X7351115Y8504580D01*
X7363917Y8486648D01*
X7378242Y8469934D01*
X7393990Y8454542D01*
X7411008Y8440572D01*
X7429246Y8428177D01*
G37*

%LPD*%
G36*
X8960154Y6749999D02*
G01*
X8956243Y6750761D01*
X8952941Y6752945D01*
X8950756Y6756247D01*
X8949994Y6760159D01*
X8949994Y6779920D01*
X8950604Y6783425D01*
X8952382Y6786473D01*
X8955074Y6788708D01*
X8958376Y6789928D01*
X8958376Y6843572D01*
X8955074Y6844741D01*
X8952382Y6847027D01*
X8950604Y6850075D01*
X8949994Y6853529D01*
X8949994Y6989825D01*
X8950756Y6993737D01*
X8952941Y6996988D01*
X8956243Y6999224D01*
X8960154Y6999986D01*
X8967012Y6999986D01*
X8970873Y6999224D01*
X8974175Y6997090D01*
X8976360Y6993839D01*
X8977172Y6990029D01*
X8976715Y6987387D01*
X9037421Y6987387D01*
X9039555Y6991045D01*
X9042958Y6993534D01*
X9047073Y6994448D01*
X9069578Y6994448D01*
X9072321Y6994042D01*
X9078163Y6992366D01*
X9087053Y6991553D01*
X9126067Y6991553D01*
X9129166Y6991096D01*
X9132011Y6989622D01*
X9134246Y6987387D01*
X9200032Y6987387D01*
X9202267Y6989622D01*
X9205112Y6991096D01*
X9208262Y6991553D01*
X9239250Y6991553D01*
X9243161Y6990791D01*
X9247022Y6988048D01*
X9249206Y6984746D01*
X9249968Y6980834D01*
X9249968Y6760159D01*
X9249206Y6756247D01*
X9247022Y6752945D01*
X9243720Y6750761D01*
X9239808Y6749999D01*
G37*

%LPC*%
G36*
X9041587Y6790080D02*
G01*
X9096400Y6790080D01*
X9096400Y6816902D01*
X9095689Y6823252D01*
X9093758Y6828688D01*
X9090710Y6833616D01*
X9086596Y6837680D01*
X9081719Y6840778D01*
X9076232Y6842658D01*
X9069933Y6843369D01*
X9041587Y6843369D01*
G37*
G36*
X9017609Y6929424D02*
G01*
X9036913Y6929424D01*
X9036913Y6957568D01*
X8977020Y6957568D01*
X8978646Y6953300D01*
X8982811Y6946544D01*
X8988145Y6940702D01*
X8994495Y6935927D01*
X9001607Y6932371D01*
X9009227Y6930186D01*
G37*
G36*
X9136227Y6929424D02*
G01*
X9155531Y6929424D01*
X9163913Y6930186D01*
X9171533Y6932371D01*
X9178645Y6935927D01*
X9184995Y6940702D01*
X9190329Y6946544D01*
X9194495Y6953300D01*
X9196120Y6957568D01*
X9136227Y6957568D01*
G37*

%LPD*%
G36*
X8943289Y6324193D02*
G01*
X8939326Y6325311D01*
X8936075Y6327851D01*
X8932011Y6332778D01*
X8698839Y6565950D01*
X8696655Y6569252D01*
X8695893Y6573113D01*
X8695893Y6655257D01*
X8696655Y6659118D01*
X8698839Y6662420D01*
X8702141Y6664604D01*
X8706053Y6665417D01*
X8709914Y6664604D01*
X8718245Y6659219D01*
X8723731Y6657289D01*
X8730030Y6656578D01*
X8758377Y6656578D01*
X8758377Y6709867D01*
X8706053Y6709867D01*
X8702141Y6710680D01*
X8698839Y6712864D01*
X8696655Y6716166D01*
X8695893Y6720027D01*
X8695893Y6779920D01*
X8696655Y6783831D01*
X8698839Y6787134D01*
X8702141Y6789318D01*
X8706053Y6790080D01*
X8758377Y6790080D01*
X8758377Y6843369D01*
X8730030Y6843369D01*
X8723731Y6842658D01*
X8718245Y6840778D01*
X8709914Y6835343D01*
X8706053Y6834581D01*
X8702141Y6835343D01*
X8698839Y6837527D01*
X8696655Y6840829D01*
X8695893Y6844741D01*
X8695893Y6876694D01*
X8696655Y6880606D01*
X8698839Y6883857D01*
X8933484Y7118756D01*
X8936786Y7120940D01*
X8940647Y7121702D01*
X8964930Y7121702D01*
X8969248Y7120737D01*
X8972753Y7118045D01*
X8974785Y7114133D01*
X8974937Y7109714D01*
X8974328Y7106462D01*
X8974328Y7098538D01*
X8975750Y7090714D01*
X8978646Y7083348D01*
X8983675Y7075424D01*
X8985046Y7071868D01*
X8985046Y7068108D01*
X8983675Y7064552D01*
X8978646Y7056628D01*
X8975750Y7049262D01*
X8974328Y7041438D01*
X8974328Y7036053D01*
X8973566Y7032142D01*
X8971330Y7028891D01*
X8968028Y7026656D01*
X8964168Y7025894D01*
X8950553Y7025894D01*
X8944254Y7025182D01*
X8938768Y7023252D01*
X8933891Y7020204D01*
X8929776Y7016089D01*
X8926677Y7011212D01*
X8924798Y7005726D01*
X8924086Y6999427D01*
X8924086Y6850024D01*
X8923477Y6846671D01*
X8921851Y6843674D01*
X8919311Y6841388D01*
X8913368Y6837680D01*
X8909304Y6833616D01*
X8905748Y6829552D01*
X8902039Y6827926D01*
X8897924Y6827926D01*
X8894216Y6829552D01*
X8890660Y6833616D01*
X8886596Y6837680D01*
X8881668Y6840778D01*
X8876233Y6842658D01*
X8869934Y6843369D01*
X8841587Y6843369D01*
X8841587Y6790080D01*
X8893403Y6790080D01*
X8897315Y6789318D01*
X8900617Y6787134D01*
X8902801Y6783831D01*
X8903563Y6779920D01*
X8903563Y6720027D01*
X8902801Y6716166D01*
X8900617Y6712864D01*
X8897315Y6710680D01*
X8893403Y6709867D01*
X8841587Y6709867D01*
X8841587Y6656578D01*
X8869934Y6656578D01*
X8876233Y6657289D01*
X8881668Y6659219D01*
X8886596Y6662267D01*
X8890660Y6666382D01*
X8894216Y6670446D01*
X8897924Y6672021D01*
X8902039Y6672021D01*
X8905748Y6670446D01*
X8909304Y6666382D01*
X8913368Y6662267D01*
X8918295Y6659219D01*
X8923731Y6657289D01*
X8930030Y6656578D01*
X9069933Y6656578D01*
X9076232Y6657289D01*
X9081719Y6659219D01*
X9086596Y6662267D01*
X9090710Y6666382D01*
X9093758Y6671259D01*
X9095689Y6676745D01*
X9096400Y6683044D01*
X9096400Y6713931D01*
X9097162Y6717792D01*
X9099346Y6721094D01*
X9102648Y6723329D01*
X9106560Y6724091D01*
X9234627Y6724091D01*
X9238488Y6723329D01*
X9241790Y6721094D01*
X9244025Y6717792D01*
X9244787Y6713931D01*
X9244025Y6710019D01*
X9241790Y6706717D01*
X8966301Y6431178D01*
X8960967Y6424117D01*
X8957208Y6416548D01*
X8954922Y6408420D01*
X8954058Y6399530D01*
X8954058Y6334353D01*
X8953246Y6330340D01*
X8950858Y6326936D01*
X8947353Y6324803D01*
G37*

%LPD*%
G36*
X9056674Y5224119D02*
G01*
X9052610Y5224678D01*
X9049105Y5226862D01*
X9046718Y5230215D01*
X9045905Y5234228D01*
X9045854Y5301742D01*
X9044635Y5310479D01*
X9041942Y5318506D01*
X9037828Y5325872D01*
X9032087Y5332780D01*
X8948775Y5416092D01*
X8946591Y5419394D01*
X8945829Y5423255D01*
X8945829Y5450230D01*
X8946591Y5454142D01*
X8948775Y5457444D01*
X8952077Y5459628D01*
X8955989Y5460390D01*
X8959850Y5459628D01*
X8971788Y5451195D01*
X8980728Y5447030D01*
X8990177Y5444490D01*
X8999982Y5443626D01*
X9009786Y5444490D01*
X9019235Y5447030D01*
X9028176Y5451195D01*
X9036202Y5456834D01*
X9043162Y5463743D01*
X9048800Y5471820D01*
X9052915Y5480710D01*
X9055455Y5490210D01*
X9056319Y5499963D01*
X9055455Y5509768D01*
X9052915Y5519267D01*
X9048800Y5528157D01*
X9046362Y5532424D01*
X9045905Y5535472D01*
X9045905Y5650179D01*
X9046667Y5654040D01*
X9048851Y5657342D01*
X9052153Y5659577D01*
X9056065Y5660339D01*
X9059926Y5659577D01*
X9071813Y5651195D01*
X9080703Y5647029D01*
X9090202Y5644489D01*
X9100007Y5643626D01*
X9109760Y5644489D01*
X9119260Y5647029D01*
X9128150Y5651195D01*
X9136227Y5656834D01*
X9143136Y5663742D01*
X9148775Y5671820D01*
X9152940Y5680710D01*
X9155480Y5690209D01*
X9156344Y5699963D01*
X9155480Y5709767D01*
X9152940Y5719267D01*
X9148775Y5728157D01*
X9146336Y5732424D01*
X9145879Y5735472D01*
X9145879Y6376771D01*
X9146641Y6380632D01*
X9148876Y6383934D01*
X9433661Y6668820D01*
X9438995Y6675831D01*
X9442754Y6683400D01*
X9445091Y6691579D01*
X9445904Y6700469D01*
X9445853Y7001764D01*
X9444634Y7010501D01*
X9441942Y7018528D01*
X9437827Y7025894D01*
X9432137Y7032802D01*
X9328658Y7136180D01*
X9321647Y7141464D01*
X9314078Y7145223D01*
X9305899Y7147559D01*
X9297009Y7148372D01*
X9208211Y7148372D01*
X9203893Y7149338D01*
X9200438Y7152030D01*
X9198406Y7155992D01*
X9198254Y7160412D01*
X9198813Y7163511D01*
X9198813Y7171436D01*
X9197390Y7179259D01*
X9194495Y7186625D01*
X9189466Y7194550D01*
X9188094Y7198106D01*
X9188094Y7201865D01*
X9189466Y7205421D01*
X9194495Y7213346D01*
X9196120Y7217562D01*
X9135719Y7217562D01*
X9133586Y7213904D01*
X9130182Y7211415D01*
X9126067Y7210552D01*
X9104071Y7210552D01*
X9101277Y7210907D01*
X9095028Y7212685D01*
X9086138Y7213549D01*
X9047073Y7213549D01*
X9044025Y7214006D01*
X9041231Y7215378D01*
X9038996Y7217562D01*
X8972956Y7217562D01*
X8970721Y7215378D01*
X8967978Y7214006D01*
X8964879Y7213549D01*
X8955633Y7213549D01*
X8951772Y7214311D01*
X8948470Y7216495D01*
X8873845Y7291120D01*
X8871661Y7294422D01*
X8870899Y7298283D01*
X8870899Y8251799D01*
X8871661Y8255711D01*
X8873845Y8259013D01*
X8943086Y8328050D01*
X8946388Y8330234D01*
X8950248Y8330996D01*
X8992971Y8330996D01*
X8996578Y8330336D01*
X8999728Y8328456D01*
X9002014Y8325561D01*
X9005163Y8319516D01*
X9013291Y8307831D01*
X9022842Y8297316D01*
X9033662Y8288121D01*
X9045549Y8280349D01*
X9058351Y8274202D01*
X9071864Y8269731D01*
X9085783Y8266988D01*
X9100007Y8266074D01*
X9114180Y8266988D01*
X9128099Y8269731D01*
X9141612Y8274202D01*
X9154414Y8280349D01*
X9166301Y8288121D01*
X9177121Y8297316D01*
X9186672Y8307831D01*
X9194800Y8319516D01*
X9197949Y8325561D01*
X9200235Y8328456D01*
X9203385Y8330336D01*
X9206992Y8330996D01*
X9424822Y8330996D01*
X9428683Y8330234D01*
X9431985Y8328050D01*
X9651136Y8108899D01*
X9653320Y8105597D01*
X9654082Y8101736D01*
X9654082Y7349134D01*
X9653270Y7345070D01*
X9650831Y7341666D01*
X9647275Y7339533D01*
X9645548Y7338923D01*
X9640671Y7335824D01*
X9636556Y7331760D01*
X9633508Y7326833D01*
X9631578Y7321397D01*
X9630867Y7315047D01*
X9630867Y7235545D01*
X9631578Y7229246D01*
X9633508Y7223759D01*
X9636556Y7218883D01*
X9640671Y7214768D01*
X9645548Y7211720D01*
X9651644Y7209586D01*
X9655200Y7207453D01*
X9657588Y7204049D01*
X9658451Y7199985D01*
X9657588Y7195921D01*
X9655200Y7192518D01*
X9651644Y7190384D01*
X9645548Y7188250D01*
X9640671Y7185202D01*
X9636556Y7181088D01*
X9633508Y7176211D01*
X9631578Y7170724D01*
X9630867Y7164425D01*
X9630867Y7084923D01*
X9631578Y7078573D01*
X9633508Y7073138D01*
X9636556Y7068210D01*
X9640671Y7064146D01*
X9645548Y7061047D01*
X9647275Y7060438D01*
X9650831Y7058304D01*
X9653219Y7054951D01*
X9654082Y7050887D01*
X9654082Y6965289D01*
X9653320Y6961378D01*
X9651085Y6958075D01*
X9642449Y6949490D01*
X9635744Y6940346D01*
X9630460Y6930339D01*
X9626701Y6919620D01*
X9624568Y6908495D01*
X9624161Y6897166D01*
X9625431Y6885889D01*
X9628378Y6874916D01*
X9632899Y6864553D01*
X9638944Y6854952D01*
X9646564Y6846062D01*
X9721088Y6771538D01*
X9723323Y6768236D01*
X9724085Y6764324D01*
X9724085Y5755589D01*
X9723272Y5751626D01*
X9720935Y5748274D01*
X9717481Y5746089D01*
X9713468Y5745480D01*
X9709505Y5746445D01*
X9706254Y5748934D01*
X9700971Y5754979D01*
X9690658Y5763971D01*
X9679279Y5771591D01*
X9672726Y5774842D01*
X9672726Y5726684D01*
X9713925Y5726684D01*
X9717786Y5725922D01*
X9721088Y5723737D01*
X9723323Y5720435D01*
X9724085Y5716524D01*
X9724085Y5645404D01*
X9723323Y5641543D01*
X9721088Y5638241D01*
X9717786Y5636056D01*
X9713925Y5635244D01*
X9672726Y5635244D01*
X9672726Y5587136D01*
X9679279Y5590387D01*
X9690658Y5598007D01*
X9700971Y5606999D01*
X9706254Y5613044D01*
X9709505Y5615533D01*
X9713468Y5616498D01*
X9717481Y5615889D01*
X9720935Y5613704D01*
X9723272Y5610352D01*
X9724085Y5606389D01*
X9724085Y5501589D01*
X9723272Y5497626D01*
X9720935Y5494274D01*
X9717481Y5492089D01*
X9713468Y5491480D01*
X9709505Y5492445D01*
X9706254Y5494934D01*
X9700971Y5500979D01*
X9690658Y5509971D01*
X9679279Y5517591D01*
X9667036Y5523636D01*
X9654082Y5528056D01*
X9640620Y5530697D01*
X9627006Y5531612D01*
X9613341Y5530697D01*
X9599879Y5528056D01*
X9586925Y5523636D01*
X9574682Y5517591D01*
X9563303Y5509971D01*
X9552990Y5500979D01*
X9543999Y5490667D01*
X9533737Y5475579D01*
X9530588Y5473598D01*
X9526879Y5472887D01*
X9473082Y5472887D01*
X9469374Y5473598D01*
X9466224Y5475579D01*
X9455962Y5490667D01*
X9446971Y5500979D01*
X9436658Y5509971D01*
X9425279Y5517591D01*
X9413036Y5523636D01*
X9400082Y5528056D01*
X9386620Y5530697D01*
X9373006Y5531612D01*
X9359341Y5530697D01*
X9345879Y5528056D01*
X9332925Y5523636D01*
X9320682Y5517591D01*
X9309303Y5509971D01*
X9298990Y5500979D01*
X9289999Y5490667D01*
X9282379Y5479288D01*
X9276334Y5467045D01*
X9271914Y5454091D01*
X9269272Y5440629D01*
X9269018Y5437378D01*
X9268155Y5433822D01*
X9266072Y5430824D01*
X9067952Y5232704D01*
X9063888Y5227777D01*
X9060688Y5225186D01*
G37*

%LPC*%
G36*
X9418726Y5726684D02*
G01*
X9466834Y5726684D01*
X9463582Y5733288D01*
X9455962Y5744667D01*
X9446971Y5754979D01*
X9436658Y5763971D01*
X9425279Y5771591D01*
X9418726Y5774842D01*
G37*
G36*
X9145727Y8171840D02*
G01*
X9204655Y8171840D01*
X9204655Y8207400D01*
X9203893Y8213750D01*
X9202013Y8219186D01*
X9198914Y8224113D01*
X9194850Y8228177D01*
X9189923Y8231276D01*
X9184487Y8233156D01*
X9178137Y8233867D01*
X9145727Y8233867D01*
G37*
G36*
X9145727Y8012074D02*
G01*
X9178137Y8012074D01*
X9184487Y8012785D01*
X9189923Y8014716D01*
X9194850Y8017764D01*
X9198914Y8021878D01*
X9202013Y8026755D01*
X9203893Y8032242D01*
X9204655Y8038541D01*
X9204655Y8074152D01*
X9145727Y8074152D01*
G37*
G36*
X9021826Y8012074D02*
G01*
X9054287Y8012074D01*
X9054287Y8074152D01*
X8995359Y8074152D01*
X8995359Y8038541D01*
X8996070Y8032242D01*
X8997950Y8026755D01*
X9001048Y8021878D01*
X9005112Y8017764D01*
X9010040Y8014716D01*
X9015476Y8012785D01*
G37*
G36*
X9136227Y7442403D02*
G01*
X9196120Y7442403D01*
X9194495Y7446670D01*
X9190329Y7453426D01*
X9184995Y7459268D01*
X9178645Y7464044D01*
X9171533Y7467600D01*
X9163913Y7469784D01*
X9155531Y7470546D01*
X9136227Y7470546D01*
G37*
G36*
X8977020Y7442403D02*
G01*
X9036913Y7442403D01*
X9036913Y7470546D01*
X9017609Y7470546D01*
X9009227Y7469784D01*
X9001607Y7467600D01*
X8994495Y7464044D01*
X8988145Y7459268D01*
X8982811Y7453426D01*
X8978646Y7446670D01*
G37*
G36*
X8995359Y8171840D02*
G01*
X9054287Y8171840D01*
X9054287Y8233867D01*
X9021826Y8233867D01*
X9015476Y8233156D01*
X9010040Y8231276D01*
X9005112Y8228177D01*
X9001048Y8224113D01*
X8997950Y8219186D01*
X8996070Y8213750D01*
X8995359Y8207400D01*
G37*
G36*
X9279128Y5726684D02*
G01*
X9327286Y5726684D01*
X9327286Y5774842D01*
X9320682Y5771591D01*
X9309303Y5763971D01*
X9298990Y5754979D01*
X9289999Y5744667D01*
X9282379Y5733288D01*
G37*
G36*
X9327286Y5587136D02*
G01*
X9327286Y5635244D01*
X9279128Y5635244D01*
X9282379Y5628690D01*
X9289999Y5617311D01*
X9298990Y5606999D01*
X9309303Y5598007D01*
X9320682Y5590387D01*
G37*
G36*
X9581286Y5587136D02*
G01*
X9581286Y5635244D01*
X9533128Y5635244D01*
X9536379Y5628690D01*
X9543999Y5617311D01*
X9552990Y5606999D01*
X9563303Y5598007D01*
X9574682Y5590387D01*
G37*
G36*
X9418726Y5587136D02*
G01*
X9425279Y5590387D01*
X9436658Y5598007D01*
X9446971Y5606999D01*
X9455962Y5617311D01*
X9463582Y5628690D01*
X9466834Y5635244D01*
X9418726Y5635244D01*
G37*
G36*
X9037370Y7311542D02*
G01*
X9037726Y7313168D01*
X9039910Y7316470D01*
X9043212Y7318654D01*
X9047073Y7319416D01*
X9126067Y7319416D01*
X9130182Y7318552D01*
X9133586Y7316063D01*
X9135719Y7312406D01*
X9196120Y7312406D01*
X9194495Y7316622D01*
X9189466Y7324547D01*
X9188094Y7328103D01*
X9188094Y7331862D01*
X9189466Y7335418D01*
X9194495Y7343343D01*
X9197390Y7350709D01*
X9198813Y7358532D01*
X9198813Y7366457D01*
X9197390Y7374280D01*
X9194495Y7381595D01*
X9189466Y7389571D01*
X9188094Y7393076D01*
X9188094Y7396886D01*
X9189466Y7400442D01*
X9194495Y7408367D01*
X9196120Y7412583D01*
X9135719Y7412583D01*
X9133586Y7408925D01*
X9130182Y7406436D01*
X9126067Y7405522D01*
X9047073Y7405522D01*
X9042958Y7406436D01*
X9039555Y7408925D01*
X9037421Y7412583D01*
X8977020Y7412583D01*
X8978646Y7408367D01*
X8983675Y7400442D01*
X8985046Y7396886D01*
X8985046Y7393076D01*
X8983675Y7389571D01*
X8978646Y7381595D01*
X8975750Y7374280D01*
X8974328Y7366457D01*
X8974328Y7358532D01*
X8975750Y7350709D01*
X8978646Y7343343D01*
X8983675Y7335418D01*
X8985046Y7331862D01*
X8985046Y7328103D01*
X8983675Y7324547D01*
X8978646Y7316622D01*
X8977020Y7312406D01*
X9037421Y7312406D01*
G37*
G36*
X9136227Y7247432D02*
G01*
X9196120Y7247432D01*
X9194495Y7251598D01*
X9189466Y7259523D01*
X9188094Y7263079D01*
X9188094Y7266889D01*
X9189466Y7270445D01*
X9194495Y7278370D01*
X9196120Y7282535D01*
X9136227Y7282535D01*
G37*
G36*
X8977020Y7247432D02*
G01*
X9036913Y7247432D01*
X9036913Y7282535D01*
X8977020Y7282535D01*
X8978646Y7278370D01*
X8983675Y7270445D01*
X8985046Y7266889D01*
X8985046Y7263079D01*
X8983675Y7259523D01*
X8978646Y7251598D01*
G37*
G36*
X9533128Y5726684D02*
G01*
X9581286Y5726684D01*
X9581286Y5774842D01*
X9574682Y5771591D01*
X9563303Y5763971D01*
X9552990Y5754979D01*
X9543999Y5744667D01*
X9536379Y5733288D01*
G37*

%LPD*%
G36*
X9471202Y3675887D02*
G01*
X9468104Y3676396D01*
X9465310Y3677767D01*
X9463074Y3679951D01*
X9459264Y3684981D01*
X9453422Y3690315D01*
X9446666Y3694531D01*
X9439249Y3697376D01*
X9431426Y3698849D01*
X9423501Y3698849D01*
X9420453Y3698240D01*
X9415983Y3698392D01*
X9412071Y3700424D01*
X9409379Y3703929D01*
X9408414Y3708247D01*
X9408363Y4339234D01*
X9407144Y4347972D01*
X9404451Y4355998D01*
X9400336Y4363415D01*
X9394647Y4370273D01*
X9248851Y4516018D01*
X9246666Y4519320D01*
X9245904Y4523232D01*
X9245904Y4976774D01*
X9246666Y4980635D01*
X9248851Y4983937D01*
X9250984Y4986070D01*
X9254286Y4988255D01*
X9258198Y4989068D01*
X9262059Y4988255D01*
X9265361Y4986070D01*
X9267545Y4982768D01*
X9268358Y4978908D01*
X9268358Y4840833D01*
X9269069Y4834483D01*
X9270949Y4829048D01*
X9274048Y4824120D01*
X9278112Y4820056D01*
X9283039Y4816957D01*
X9288475Y4815078D01*
X9294825Y4814316D01*
X9451136Y4814316D01*
X9457486Y4815078D01*
X9462922Y4816957D01*
X9467850Y4820056D01*
X9471914Y4824120D01*
X9474962Y4828946D01*
X9477298Y4836109D01*
X9479432Y4839766D01*
X9482836Y4842205D01*
X9486950Y4843068D01*
X9551365Y4843068D01*
X9554972Y4842408D01*
X9558070Y4840579D01*
X9563303Y4836007D01*
X9574682Y4828387D01*
X9586925Y4822342D01*
X9599879Y4817922D01*
X9613341Y4815281D01*
X9620250Y4814824D01*
X9623755Y4813909D01*
X9626752Y4811826D01*
X9721189Y4717440D01*
X9723424Y4714138D01*
X9724186Y4710226D01*
X9724186Y3686048D01*
X9723374Y3682136D01*
X9721189Y3678834D01*
X9717887Y3676650D01*
X9713976Y3675887D01*
X9699904Y3675989D01*
X9696602Y3676548D01*
X9693605Y3678224D01*
X9691370Y3680714D01*
X9687661Y3686606D01*
X9683597Y3690670D01*
X9679533Y3694226D01*
X9677958Y3697935D01*
X9677958Y3702050D01*
X9679533Y3705758D01*
X9683597Y3709314D01*
X9687661Y3713378D01*
X9690760Y3718306D01*
X9692690Y3723741D01*
X9693402Y3730040D01*
X9693402Y3758387D01*
X9640062Y3758387D01*
X9640062Y3706571D01*
X9639300Y3702659D01*
X9637115Y3699357D01*
X9633813Y3697173D01*
X9629902Y3696411D01*
X9570059Y3696411D01*
X9566148Y3697173D01*
X9562846Y3699357D01*
X9560661Y3702659D01*
X9559899Y3706571D01*
X9559899Y3758387D01*
X9506559Y3758387D01*
X9506559Y3730040D01*
X9507270Y3723741D01*
X9509201Y3718306D01*
X9512300Y3713378D01*
X9516364Y3709314D01*
X9520428Y3705758D01*
X9522002Y3702050D01*
X9522002Y3697935D01*
X9520428Y3694226D01*
X9516364Y3690670D01*
X9512300Y3686606D01*
X9508591Y3680663D01*
X9506305Y3678123D01*
X9503308Y3676497D01*
X9499955Y3675887D01*
G37*

%LPC*%
G36*
X9640062Y3841597D02*
G01*
X9693402Y3841597D01*
X9693402Y3869944D01*
X9692690Y3876243D01*
X9690760Y3881729D01*
X9687661Y3886606D01*
X9683597Y3890721D01*
X9678670Y3893769D01*
X9673234Y3895699D01*
X9666935Y3896410D01*
X9640062Y3896410D01*
G37*
G36*
X9506559Y3841597D02*
G01*
X9559899Y3841597D01*
X9559899Y3896410D01*
X9533026Y3896410D01*
X9526727Y3895699D01*
X9521291Y3893769D01*
X9516364Y3890721D01*
X9512300Y3886606D01*
X9509201Y3881729D01*
X9507270Y3876243D01*
X9506559Y3869944D01*
G37*

%LPD*%
G36*
X9599980Y3254197D02*
G01*
X9596069Y3254959D01*
X9592818Y3257194D01*
X9402978Y3447034D01*
X9400743Y3450336D01*
X9399981Y3454196D01*
X9399981Y3467049D01*
X9400743Y3470910D01*
X9402876Y3474161D01*
X9406128Y3476396D01*
X9409938Y3477209D01*
X9412579Y3476751D01*
X9412579Y3537458D01*
X9408922Y3539540D01*
X9406432Y3542995D01*
X9405518Y3547110D01*
X9405518Y3569563D01*
X9405924Y3572306D01*
X9407601Y3578148D01*
X9408414Y3587038D01*
X9408414Y3626053D01*
X9408871Y3629202D01*
X9410344Y3631996D01*
X9412579Y3634232D01*
X9412579Y3639820D01*
X9413341Y3643731D01*
X9415526Y3647033D01*
X9418828Y3649218D01*
X9422739Y3649979D01*
X9432239Y3649979D01*
X9436150Y3649218D01*
X9439452Y3647033D01*
X9441637Y3643731D01*
X9442399Y3639820D01*
X9442399Y3636213D01*
X9470542Y3636213D01*
X9470542Y3639820D01*
X9471304Y3643731D01*
X9473539Y3647033D01*
X9476790Y3649218D01*
X9480702Y3649979D01*
X9496399Y3649979D01*
X9499904Y3649370D01*
X9502952Y3647592D01*
X9505238Y3644900D01*
X9506407Y3641598D01*
X9560052Y3641598D01*
X9561220Y3644900D01*
X9563506Y3647592D01*
X9566554Y3649370D01*
X9570059Y3649979D01*
X9629902Y3649979D01*
X9633407Y3649370D01*
X9636455Y3647592D01*
X9638741Y3644900D01*
X9639909Y3641598D01*
X9693554Y3641598D01*
X9694722Y3644900D01*
X9697008Y3647592D01*
X9700056Y3649370D01*
X9703562Y3649979D01*
X9839807Y3649979D01*
X9843719Y3649218D01*
X9847021Y3647033D01*
X9849205Y3643731D01*
X9849967Y3639820D01*
X9849967Y3504184D01*
X9849205Y3500323D01*
X9847021Y3497021D01*
X9607143Y3257194D01*
X9603892Y3254959D01*
G37*

%LPC*%
G36*
X9442399Y3477006D02*
G01*
X9446666Y3478631D01*
X9453422Y3482848D01*
X9459264Y3488182D01*
X9464040Y3494532D01*
X9467596Y3501593D01*
X9469780Y3509264D01*
X9470542Y3517646D01*
X9470542Y3536950D01*
X9442399Y3536950D01*
G37*
G36*
X9533026Y3503574D02*
G01*
X9559899Y3503574D01*
X9559899Y3558387D01*
X9506559Y3558387D01*
X9506559Y3530041D01*
X9507270Y3523742D01*
X9509201Y3518255D01*
X9512300Y3513378D01*
X9516364Y3509264D01*
X9521291Y3506215D01*
X9526727Y3504285D01*
G37*
G36*
X9640062Y3503574D02*
G01*
X9666935Y3503574D01*
X9673234Y3504285D01*
X9678670Y3506215D01*
X9683597Y3509264D01*
X9687661Y3513378D01*
X9690760Y3518255D01*
X9692690Y3523742D01*
X9693402Y3530041D01*
X9693402Y3558387D01*
X9640062Y3558387D01*
G37*

%LPD*%
D10*
X5999993Y7940042D02*
G01*
X6340091Y7599934D01*
X7999984Y7599934D01*
X8237420Y7362494D01*
X8513419Y7362494D01*
X7999984Y7940042D02*
G01*
X7999984Y7700007D01*
X8272498Y7427493D01*
X8513419Y7427493D01*
X8513419Y7232497D02*
G01*
X8167522Y7232497D01*
X7999984Y7400038D01*
X2540000Y7400038D01*
X2000001Y7940042D01*
D11*
X1999995Y5099989D02*
G01*
X1999995Y5439994D01*
X3999991Y5099987D02*
G01*
X3999991Y5439994D01*
X5999988Y5099987D02*
G01*
X5999988Y5439994D01*
X7999984Y5099987D02*
G01*
X7999984Y5439994D01*
D10*
X8513419Y7167498D02*
G01*
X2667513Y7167498D01*
X2000001Y6499987D01*
X2000001Y5439996D01*
X3999991Y5439915D02*
G01*
X3999991Y6499857D01*
X4602609Y7102475D01*
X8513419Y7102475D01*
X5999993Y5439996D02*
G01*
X5999993Y6799988D01*
X6237483Y7037476D01*
X8513419Y7037476D01*
X7999984Y5439996D02*
G01*
X7999984Y6599986D01*
X8372472Y6972477D01*
X8513419Y6972477D01*
X9232468Y3013417D02*
G01*
X9232468Y2832480D01*
X9099981Y2699994D01*
X8239993Y2699994D01*
X7999984Y2939996D01*
X9297415Y3013455D02*
G01*
X9297415Y2697479D01*
X9100058Y2500121D01*
X6439915Y2500121D01*
X5999988Y2940050D01*
X9362440Y3013455D02*
G01*
X9362440Y2562605D01*
X9100058Y2299970D01*
X4640072Y2299970D01*
X3999991Y2940050D01*
X9427463Y3013455D02*
G01*
X9427463Y2427478D01*
X9100058Y2100071D01*
X2839974Y2100071D01*
X1999995Y2940050D01*
D11*
X9372981Y4918989D02*
G01*
X9599980Y4918989D01*
X9626983Y4891986D01*
D10*
X9086565Y7102475D02*
G01*
X9297492Y7102475D01*
X9399983Y6999988D01*
X9399983Y6699981D01*
X9099981Y6399979D01*
X9099981Y5699988D01*
X9699980Y7124649D02*
G01*
X9699980Y6899988D01*
X9699985Y6899988D01*
X9700006Y7275321D02*
G01*
X9700006Y8124952D01*
X9448038Y8376920D01*
X9100058Y8376920D01*
X9086595Y7167626D02*
G01*
X8932418Y7167626D01*
X8824975Y7275068D01*
X8824975Y8275065D01*
X8927084Y8376920D01*
X9100058Y8376920D01*
X9086595Y7167626D02*
G01*
X8917431Y7167626D01*
X8649970Y6899910D01*
X8649970Y6549897D01*
X8899906Y6299962D01*
X8899906Y5400039D01*
X8999981Y5299963D01*
X8999981Y4500118D01*
X9232391Y4267454D01*
X9232391Y3586479D01*
D11*
X9626981Y4918989D02*
G01*
X9800084Y4745885D01*
X9800084Y3500120D01*
X9599935Y3299965D01*
D10*
X8513318Y7297420D02*
G01*
X8202422Y7297420D01*
X7999729Y7499858D01*
X4440174Y7499858D01*
X3999991Y7940039D01*
D11*
X999997Y5499988D02*
G01*
X999997Y3500120D01*
X9626981Y4918989D02*
G01*
X9799985Y5091993D01*
X9799985Y6599986D01*
X9799985Y6799988D01*
X9699985Y6899988D01*
X1000000Y5499986D02*
G01*
X999997Y5499988D01*
X999997Y7999984D01*
X999997Y7999984D02*
G01*
X1199997Y8199983D01*
X1200150Y3299968D02*
G01*
X999997Y3500120D01*
X1199997Y5699988D02*
G01*
X999997Y5499988D01*
D10*
X9167469Y3586556D02*
G01*
X9167469Y3299993D01*
X9362493Y3586553D02*
G01*
X9362493Y4337484D01*
X9199984Y4499990D01*
X9199984Y4999992D01*
X9372981Y5172989D01*
X9297415Y3586479D02*
G01*
X9297415Y4302503D01*
X9100058Y4499861D01*
X9100058Y5199887D01*
X9327159Y5426989D01*
X9372981Y5426989D01*
X9086565Y7037473D02*
G01*
X9262490Y7037473D01*
X9299983Y6999980D01*
X9299983Y6699989D01*
X8999981Y6399984D01*
X8999981Y5499988D01*
X9372981Y5172989D02*
G01*
X9599980Y5172989D01*
X9626983Y5145986D01*
X9372981Y5426989D02*
G01*
X9599980Y5426989D01*
X9626983Y5399986D01*
D11*
X7999984Y7939986D02*
G01*
X7999984Y7939986D01*
X7999984Y8499983D01*
X5999993Y7939986D02*
G01*
X5999988Y7939991D01*
X5999988Y8499983D01*
X3999991Y7939986D02*
G01*
X3999991Y7939986D01*
X3999991Y8499983D01*
X2000001Y7939986D02*
G01*
X1999995Y7939991D01*
X1999995Y8499983D01*
X7999984Y2939994D02*
G01*
X7999984Y2939994D01*
X7999984Y3599992D01*
X5999993Y2939994D02*
G01*
X5999988Y2939999D01*
X5999988Y3599992D01*
X3999991Y2939994D02*
G01*
X3999991Y2939994D01*
X3999991Y3599992D01*
X1999995Y3599992D02*
G01*
X1999995Y2939999D01*
X2000001Y2939994D01*
D12*
G01*
X9699980Y7124649D03*
D13*
G01*
X9699980Y7275310D03*
D14*
G01*
X8513419Y6972477D03*
G01*
X8513419Y7037476D03*
G01*
X8513419Y7102475D03*
G01*
X8513419Y7167498D03*
G01*
X8513419Y7232497D03*
G01*
X8513419Y7297496D03*
G01*
X8513419Y7362494D03*
G01*
X8513419Y7427493D03*
G01*
X9086570Y6972477D03*
G01*
X9086570Y7037476D03*
G01*
X9086570Y7102475D03*
G01*
X9086570Y7167498D03*
G01*
X9086570Y7232497D03*
G01*
X9086570Y7297496D03*
G01*
X9086570Y7362494D03*
G01*
X9086570Y7427493D03*
D15*
G01*
X9427489Y3013405D03*
G01*
X9362490Y3013405D03*
G01*
X9297492Y3013405D03*
G01*
X9232468Y3013405D03*
G01*
X9167469Y3013405D03*
G01*
X9102470Y3013405D03*
G01*
X9037472Y3013405D03*
G01*
X8972473Y3013405D03*
G01*
X9427489Y3586556D03*
G01*
X9362490Y3586556D03*
G01*
X9297492Y3586556D03*
G01*
X9232468Y3586556D03*
G01*
X9167469Y3586556D03*
G01*
X9102470Y3586556D03*
G01*
X9037472Y3586556D03*
G01*
X8972473Y3586556D03*
D16*
G01*
X7999984Y3599992D03*
D17*
G01*
X7999984Y3799994D03*
D16*
G01*
X5999988Y3599992D03*
D17*
G01*
X5999987Y3799994D03*
D16*
G01*
X3999991Y3599992D03*
D17*
G01*
X3999992Y3799994D03*
D16*
G01*
X1999995Y3599992D03*
D17*
G01*
X1999996Y3799994D03*
D16*
G01*
X7999984Y5099989D03*
D17*
G01*
X7999984Y4899987D03*
D16*
G01*
X5999988Y5099989D03*
D17*
G01*
X5999987Y4899987D03*
D16*
G01*
X3999991Y5099989D03*
D17*
G01*
X3999992Y4899987D03*
D16*
G01*
X1999995Y5099989D03*
D17*
G01*
X1999996Y4899987D03*
D16*
G01*
X7999984Y8499983D03*
D17*
G01*
X7999984Y8699985D03*
D16*
G01*
X5999988Y8499983D03*
D17*
G01*
X5999987Y8699985D03*
D16*
G01*
X3999991Y8499983D03*
D17*
G01*
X3999992Y8699985D03*
D16*
G01*
X1999995Y8499983D03*
D17*
G01*
X1999996Y8699985D03*
D16*
G01*
X9599980Y3599992D03*
D17*
G01*
X9599980Y3799994D03*
D18*
G01*
X8999984Y6749986D03*
G01*
X8799979Y6749986D03*
D19*
G01*
X9099981Y8122984D03*
D20*
G01*
X9099981Y8376970D03*
D21*
G01*
X9372980Y4918989D03*
D22*
G01*
X9626981Y4918989D03*
G01*
X9372981Y5172989D03*
G01*
X9626981Y5172989D03*
G01*
X9372981Y5426989D03*
G01*
X9626981Y5426989D03*
G01*
X9372981Y5680989D03*
G01*
X9626981Y5680989D03*
D23*
G01*
X3750005Y7939989D03*
G01*
X3999991Y7939989D03*
G01*
X4249978Y7939989D03*
D24*
G01*
X3559987Y8639987D03*
G01*
X4439996Y8639987D03*
D23*
G01*
X5750001Y7939989D03*
G01*
X5999988Y7939989D03*
G01*
X6249974Y7939989D03*
D24*
G01*
X5559983Y8639987D03*
G01*
X6439992Y8639987D03*
D23*
G01*
X7749997Y7939989D03*
G01*
X7999984Y7939989D03*
G01*
X8249970Y7939989D03*
D24*
G01*
X7559979Y8639987D03*
G01*
X8439988Y8639987D03*
D23*
G01*
X1750009Y5439994D03*
G01*
X1999995Y5439994D03*
G01*
X2249982Y5439994D03*
D24*
G01*
X1559991Y6139992D03*
G01*
X2440000Y6139992D03*
D23*
G01*
X3750005Y5439994D03*
G01*
X3999991Y5439994D03*
G01*
X4249978Y5439994D03*
D24*
G01*
X3559987Y6139992D03*
G01*
X4439996Y6139992D03*
D23*
G01*
X5750001Y5439994D03*
G01*
X5999988Y5439994D03*
G01*
X6249974Y5439994D03*
D24*
G01*
X5559983Y6139992D03*
G01*
X6439992Y6139992D03*
D23*
G01*
X7749997Y5439994D03*
G01*
X7999984Y5439994D03*
G01*
X8249970Y5439994D03*
D24*
G01*
X7559979Y6139992D03*
G01*
X8439988Y6139992D03*
D23*
G01*
X1750009Y2939999D03*
G01*
X1999995Y2939999D03*
G01*
X2249982Y2939999D03*
D24*
G01*
X1559991Y3639997D03*
G01*
X2440000Y3639997D03*
D23*
G01*
X3750005Y2939999D03*
G01*
X3999991Y2939999D03*
G01*
X4249978Y2939999D03*
D24*
G01*
X3559987Y3639997D03*
G01*
X4439996Y3639997D03*
D23*
G01*
X5750001Y2939999D03*
G01*
X5999988Y2939999D03*
G01*
X6249974Y2939999D03*
D24*
G01*
X5559983Y3639997D03*
G01*
X6439992Y3639997D03*
D23*
G01*
X7749997Y2939999D03*
G01*
X7999984Y2939999D03*
G01*
X8249970Y2939999D03*
D24*
G01*
X7559979Y3639997D03*
G01*
X8439988Y3639997D03*
D23*
G01*
X1750009Y7939989D03*
G01*
X1999995Y7939989D03*
G01*
X2249982Y7939989D03*
D24*
G01*
X1559991Y8639987D03*
G01*
X2440000Y8639987D03*
D25*
G01*
X9099981Y5699988D03*
G01*
X8999981Y5499988D03*
G01*
X9599929Y3299968D03*
G01*
X9799980Y3499993D03*
G01*
X9699980Y3399993D03*
G01*
X9167469Y3299993D03*
G01*
X999997Y5499988D03*
G01*
X1199997Y5699988D03*
G01*
X1099997Y5599988D03*
G01*
X999997Y3500120D03*
G01*
X1099997Y3399993D03*
G01*
X1200150Y3299968D03*
G01*
X999997Y7999984D03*
G01*
X1199997Y8199983D03*
G01*
X1099997Y8099983D03*
G01*
X9699980Y6899986D03*
G01*
X9199981Y6899986D03*
G01*
X9199981Y6799986D03*
G01*
X9099981Y6899986D03*
G01*
X9499981Y3999992D03*
G01*
X9649993Y3999992D03*
G01*
X9349993Y4649978D03*
G01*
X9499981Y4649978D03*
G01*
X9649993Y4649978D03*
G01*
X9499981Y4349978D03*
G01*
X9649993Y4349978D03*
G01*
X8799982Y6899986D03*
G01*
X8799982Y6599986D03*
D26*
G01*
X107213Y8876766D03*
G01*
X107213Y8368766D03*
G01*
X107213Y7860766D03*
G01*
X107213Y7352766D03*
G01*
X107213Y6844766D03*
G01*
X107213Y6336766D03*
G01*
X107213Y5828792D03*
G01*
X107213Y5320792D03*
G01*
X107213Y4812792D03*
G01*
X107213Y4304792D03*
G01*
X107213Y3796792D03*
G01*
X107213Y3288792D03*
G01*
X107213Y2780792D03*
G01*
X107213Y2272792D03*
G01*
X107213Y1764792D03*
G01*
X107213Y1256792D03*
G01*
X615213Y8876766D03*
G01*
X615213Y8368766D03*
G01*
X615213Y7860766D03*
G01*
X615213Y7352766D03*
G01*
X615213Y6844766D03*
G01*
X615213Y6336766D03*
G01*
X615213Y5828792D03*
G01*
X615213Y5320792D03*
G01*
X615213Y4812792D03*
G01*
X615213Y4304792D03*
G01*
X615213Y3796792D03*
G01*
X615213Y3288792D03*
G01*
X615213Y2780792D03*
G01*
X615213Y2272792D03*
G01*
X615213Y1764792D03*
G01*
X615213Y1256792D03*
G01*
X1123213Y9892766D03*
G01*
X1123213Y9384766D03*
G01*
X1123213Y8876766D03*
G01*
X1123213Y8368766D03*
G01*
X1123213Y7860766D03*
G01*
X1123213Y7352766D03*
G01*
X1123213Y6844766D03*
G01*
X1123213Y6336766D03*
G01*
X1123213Y5828792D03*
G01*
X1123213Y5320792D03*
G01*
X1123213Y4812792D03*
G01*
X1123213Y4304792D03*
G01*
X1123213Y3796792D03*
G01*
X1123213Y2780792D03*
G01*
X1123213Y2272792D03*
G01*
X1123213Y1764792D03*
G01*
X1123213Y1256792D03*
G01*
X1123213Y748792D03*
G01*
X1123213Y240792D03*
G01*
X1631213Y9892766D03*
G01*
X1631213Y9384766D03*
G01*
X1631213Y7352766D03*
G01*
X1631213Y6844766D03*
G01*
X1631213Y4812792D03*
G01*
X1631213Y4304792D03*
G01*
X1631213Y2780792D03*
G01*
X1631213Y2272792D03*
G01*
X1631213Y1764792D03*
G01*
X1631213Y1256792D03*
G01*
X1631213Y748792D03*
G01*
X1631213Y240792D03*
G01*
X2139213Y9892766D03*
G01*
X2139213Y9384766D03*
G01*
X2139213Y7352766D03*
G01*
X2139213Y6844766D03*
G01*
X2139213Y4812792D03*
G01*
X2139213Y4304792D03*
G01*
X2139213Y2272792D03*
G01*
X2139213Y1764792D03*
G01*
X2139213Y1256792D03*
G01*
X2139213Y748792D03*
G01*
X2139213Y240792D03*
G01*
X2647213Y9892766D03*
G01*
X2647213Y9384766D03*
G01*
X2647213Y8876766D03*
G01*
X2647213Y8368766D03*
G01*
X2647213Y7860766D03*
G01*
X2647213Y6844766D03*
G01*
X2647213Y5320792D03*
G01*
X2647213Y4812792D03*
G01*
X2647213Y4304792D03*
G01*
X2647213Y2780792D03*
G01*
X2647213Y1764792D03*
G01*
X2647213Y1256792D03*
G01*
X2647213Y748792D03*
G01*
X2647213Y240792D03*
G01*
X3155213Y9892766D03*
G01*
X3155213Y9384766D03*
G01*
X3155213Y8876766D03*
G01*
X3155213Y8368766D03*
G01*
X3155213Y7860766D03*
G01*
X3155213Y6844766D03*
G01*
X3155213Y6336766D03*
G01*
X3155213Y5320792D03*
G01*
X3155213Y4812792D03*
G01*
X3155213Y4304792D03*
G01*
X3155213Y3796792D03*
G01*
X3155213Y2780792D03*
G01*
X3155213Y2272792D03*
G01*
X3155213Y1764792D03*
G01*
X3155213Y1256792D03*
G01*
X3155213Y748792D03*
G01*
X3155213Y240792D03*
G01*
X3663188Y9892766D03*
G01*
X3663188Y9384766D03*
G01*
X3663188Y6844766D03*
G01*
X3663188Y4812792D03*
G01*
X3663188Y4304792D03*
G01*
X3663188Y2780792D03*
G01*
X3663188Y2272792D03*
G01*
X3663188Y1764792D03*
G01*
X3663188Y1256792D03*
G01*
X3663188Y748792D03*
G01*
X3663188Y240792D03*
G01*
X4171188Y9892766D03*
G01*
X4171188Y9384766D03*
G01*
X4171188Y6844766D03*
G01*
X4171188Y4812792D03*
G01*
X4171188Y4304792D03*
G01*
X4171188Y2272792D03*
G01*
X4171188Y1764792D03*
G01*
X4171188Y1256792D03*
G01*
X4171188Y748792D03*
G01*
X4171188Y240792D03*
G01*
X4679188Y9892766D03*
G01*
X4679188Y9384766D03*
G01*
X4679188Y8876766D03*
G01*
X4679188Y8368766D03*
G01*
X4679188Y7860766D03*
G01*
X4679188Y6844766D03*
G01*
X4679188Y6336766D03*
G01*
X4679188Y5320792D03*
G01*
X4679188Y4812792D03*
G01*
X4679188Y4304792D03*
G01*
X4679188Y2780792D03*
G01*
X4679188Y1764792D03*
G01*
X4679188Y240792D03*
G01*
X5187188Y9892766D03*
G01*
X5187188Y9384766D03*
G01*
X5187188Y8876766D03*
G01*
X5187188Y8368766D03*
G01*
X5187188Y7860766D03*
G01*
X5187188Y6844766D03*
G01*
X5187188Y6336766D03*
G01*
X5187188Y5320792D03*
G01*
X5187188Y4812792D03*
G01*
X5187188Y4304792D03*
G01*
X5187188Y3796792D03*
G01*
X5187188Y2780792D03*
G01*
X5187188Y1764792D03*
G01*
X5187188Y240792D03*
G01*
X5695188Y9892766D03*
G01*
X5695188Y9384766D03*
G01*
X5695188Y6844766D03*
G01*
X5695188Y4812792D03*
G01*
X5695188Y4304792D03*
G01*
X5695188Y1764792D03*
G01*
X5695188Y240792D03*
G01*
X6203188Y9892766D03*
G01*
X6203188Y9384766D03*
G01*
X6203188Y8368766D03*
G01*
X6203188Y6844766D03*
G01*
X6203188Y4812792D03*
G01*
X6203188Y4304792D03*
G01*
X6203188Y1764792D03*
G01*
X6203188Y240792D03*
G01*
X6711188Y9892766D03*
G01*
X6711188Y9384766D03*
G01*
X6711188Y8876766D03*
G01*
X6711188Y8368766D03*
G01*
X6711188Y7860766D03*
G01*
X6711188Y6844766D03*
G01*
X6711188Y6336766D03*
G01*
X6711188Y5320792D03*
G01*
X6711188Y4812792D03*
G01*
X6711188Y4304792D03*
G01*
X6711188Y3796792D03*
G01*
X6711188Y2780792D03*
G01*
X6711188Y1764792D03*
G01*
X6711188Y1256792D03*
G01*
X6711188Y748792D03*
G01*
X6711188Y240792D03*
G01*
X7219188Y9892766D03*
G01*
X7219188Y9384766D03*
G01*
X7219188Y8876766D03*
G01*
X7219188Y8368766D03*
G01*
X7219188Y7860766D03*
G01*
X7219188Y6844766D03*
G01*
X7219188Y6336766D03*
G01*
X7219188Y5320792D03*
G01*
X7219188Y4812792D03*
G01*
X7219188Y4304792D03*
G01*
X7219188Y3796792D03*
G01*
X7219188Y2780792D03*
G01*
X7219188Y1764792D03*
G01*
X7219188Y1256792D03*
G01*
X7219188Y748792D03*
G01*
X7219188Y240792D03*
G01*
X7727188Y9892766D03*
G01*
X7727188Y9384766D03*
G01*
X7727188Y6844766D03*
G01*
X7727188Y4812792D03*
G01*
X7727188Y4304792D03*
G01*
X7727188Y1764792D03*
G01*
X7727188Y1256792D03*
G01*
X7727188Y748792D03*
G01*
X7727188Y240792D03*
G01*
X8235188Y9892766D03*
G01*
X8235188Y9384766D03*
G01*
X8235188Y4812792D03*
G01*
X8235188Y4304792D03*
G01*
X8235188Y1764792D03*
G01*
X8235188Y1256792D03*
G01*
X8235188Y748792D03*
G01*
X8235188Y240792D03*
G01*
X8743188Y9892766D03*
G01*
X8743188Y9384766D03*
G01*
X8743188Y7352766D03*
G01*
X8743188Y6336766D03*
G01*
X8743188Y5828792D03*
G01*
X8743188Y5320792D03*
G01*
X8743188Y4812792D03*
G01*
X8743188Y4304792D03*
G01*
X8743188Y3796792D03*
G01*
X8743188Y2780792D03*
G01*
X8743188Y1764792D03*
G01*
X8743188Y1256792D03*
G01*
X8743188Y748792D03*
G01*
X8743188Y240792D03*
G01*
X9251188Y8876766D03*
G01*
X9251188Y7860766D03*
G01*
X9251188Y7352766D03*
G01*
X9251188Y6336766D03*
G01*
X9251188Y5828792D03*
G01*
X9251188Y1764792D03*
G01*
X9251188Y1256792D03*
G01*
X9759188Y8876766D03*
G01*
X9759188Y2780792D03*
G01*
X9759188Y2272792D03*
G01*
X9759188Y1764792D03*
G01*
X9759188Y1256792D03*
M02*
